<?xml version="1.0" encoding="utf-8"?>
<!-- Generator: Adobe Illustrator 27.2.0, SVG Export Plug-In . SVG Version: 6.00 Build 0)  -->
<svg version="1.1" id="Layer_1" xmlns="http://www.w3.org/2000/svg" xmlns:xlink="http://www.w3.org/1999/xlink" x="0px" y="0px"
	 viewBox="0 0 308 259.1" style="enable-background:new 0 0 308 259.1;" xml:space="preserve">
<style type="text/css">
	.st0{fill:#FFFFFF;}
	.st1{fill:url(#SVGID_1_);}
	.st2{fill:url(#SVGID_00000067211736232909425970000006696734566425658779_);}
	.st3{fill:url(#SVGID_00000023966290748896553990000016218157671574254005_);}
	.st4{fill:#96266B;}
	.st5{fill:#A558A2;}
	.st6{fill:#A63F83;}
	.st7{fill:#703392;}
	.st8{fill:#964A9B;}
	.st9{fill:#8A3292;}
	.st10{fill:url(#SVGID_00000072973850175892344990000016368349249541213618_);}
	.st11{fill:url(#SVGID_00000119797010413149898950000017067187655887104181_);}
</style>
<g>
	<g>
		<g>
			<path class="st0" d="M219.5,28.9h2.9v0.6h-2.1v1.4h1.8v0.6h-1.8v1.6h2.2v0.6h-2.9V28.9z"/>
			<path class="st0" d="M223.1,31.9c0-1.2,0.8-1.9,1.8-1.9c0.5,0,0.8,0.2,1.1,0.4l-0.4,0.5c-0.2-0.2-0.4-0.3-0.6-0.3
				c-0.6,0-1,0.5-1,1.3c0,0.8,0.4,1.3,1,1.3c0.3,0,0.6-0.1,0.8-0.3l0.3,0.5c-0.3,0.3-0.8,0.4-1.2,0.4
				C223.9,33.8,223.1,33.1,223.1,31.9z"/>
			<path class="st0" d="M226.3,31.9c0-1.2,0.8-1.9,1.7-1.9c0.9,0,1.7,0.7,1.7,1.9c0,1.2-0.8,1.9-1.7,1.9
				C227.2,33.8,226.3,33.1,226.3,31.9z M229,31.9c0-0.8-0.4-1.3-0.9-1.3c-0.6,0-0.9,0.5-0.9,1.3c0,0.8,0.4,1.3,0.9,1.3
				C228.6,33.2,229,32.7,229,31.9z"/>
			<path class="st0" d="M230.3,33.3l0.4-0.5c0.3,0.3,0.6,0.4,1,0.4c0.4,0,0.6-0.2,0.6-0.5c0-0.3-0.4-0.5-0.8-0.6
				c-0.5-0.2-1-0.4-1-1.1c0-0.6,0.5-1.1,1.3-1.1c0.5,0,0.9,0.2,1.2,0.4l-0.4,0.5c-0.3-0.2-0.5-0.3-0.8-0.3c-0.4,0-0.6,0.2-0.6,0.4
				c0,0.3,0.4,0.4,0.8,0.6c0.5,0.2,1.1,0.4,1.1,1.1c0,0.6-0.5,1.1-1.4,1.1C231.1,33.8,230.6,33.6,230.3,33.3z"/>
			<path class="st0" d="M233.5,35.2l0.1-0.6c0.1,0,0.2,0.1,0.3,0.1c0.4,0,0.6-0.3,0.8-0.7l0.1-0.3l-1.4-3.6h0.8l0.7,1.9
				c0.1,0.3,0.2,0.7,0.3,1h0c0.1-0.3,0.2-0.7,0.3-1l0.6-1.9h0.7l-1.3,3.8c-0.3,0.8-0.7,1.3-1.4,1.3
				C233.8,35.3,233.6,35.2,233.5,35.2z"/>
			<path class="st0" d="M237,33.3l0.4-0.5c0.3,0.3,0.6,0.4,1,0.4c0.4,0,0.6-0.2,0.6-0.5c0-0.3-0.4-0.5-0.8-0.6c-0.5-0.2-1-0.4-1-1.1
				c0-0.6,0.5-1.1,1.3-1.1c0.5,0,0.9,0.2,1.2,0.4l-0.4,0.5c-0.3-0.2-0.5-0.3-0.8-0.3c-0.4,0-0.6,0.2-0.6,0.4c0,0.3,0.4,0.4,0.8,0.6
				c0.5,0.2,1.1,0.4,1.1,1.1c0,0.6-0.5,1.1-1.4,1.1C237.9,33.8,237.4,33.6,237,33.3z"/>
			<path class="st0" d="M240.5,32.5v-1.8H240v-0.6l0.6,0l0.1-1h0.6v1h0.9v0.6h-0.9v1.8c0,0.4,0.2,0.7,0.5,0.7c0.1,0,0.3,0,0.4-0.1
				l0.1,0.6c-0.2,0.1-0.4,0.1-0.7,0.1C240.8,33.8,240.5,33.3,240.5,32.5z"/>
			<path class="st0" d="M242.7,31.9c0-1.2,0.8-1.9,1.7-1.9c1,0,1.5,0.7,1.5,1.7c0,0.2,0,0.3,0,0.4h-2.4c0.1,0.7,0.5,1.1,1.1,1.1
				c0.3,0,0.6-0.1,0.9-0.3l0.3,0.5c-0.3,0.2-0.8,0.4-1.2,0.4C243.4,33.8,242.7,33.1,242.7,31.9z M245.1,31.6c0-0.6-0.3-1-0.8-1
				c-0.5,0-0.9,0.3-0.9,1H245.1z"/>
			<path class="st0" d="M246.6,30.1h0.6l0.1,0.5h0c0.3-0.3,0.7-0.6,1.1-0.6c0.5,0,0.8,0.3,1,0.7c0.4-0.4,0.7-0.7,1.2-0.7
				c0.8,0,1.1,0.5,1.1,1.4v2.3H251v-2.2c0-0.6-0.2-0.9-0.6-0.9c-0.3,0-0.5,0.2-0.8,0.5v2.6h-0.8v-2.2c0-0.6-0.2-0.9-0.6-0.9
				c-0.2,0-0.5,0.2-0.8,0.5v2.6h-0.8V30.1z"/>
			<path class="st0" d="M254.4,28.9h2.9v0.6h-2.1V31h1.8v0.6h-1.8v2.1h-0.8V28.9z"/>
			<path class="st0" d="M257.9,32.4v-2.3h0.8v2.2c0,0.6,0.2,0.9,0.6,0.9c0.3,0,0.6-0.2,0.9-0.5v-2.5h0.8v3.6h-0.6l-0.1-0.5h0
				c-0.3,0.4-0.7,0.6-1.2,0.6C258.2,33.8,257.9,33.3,257.9,32.4z"/>
			<path class="st0" d="M262,30.1h0.6l0.1,0.5h0c0.3-0.3,0.7-0.6,1.2-0.6c0.8,0,1.1,0.5,1.1,1.4v2.3h-0.8v-2.2
				c0-0.6-0.2-0.9-0.6-0.9c-0.3,0-0.6,0.2-0.9,0.5v2.6H262V30.1z"/>
			<path class="st0" d="M267.5,30.7c0-0.3,0.2-0.5,0.5-0.5s0.5,0.2,0.5,0.5c0,0.3-0.2,0.5-0.5,0.5S267.5,31,267.5,30.7z M267.5,33.3
				c0-0.3,0.2-0.5,0.5-0.5s0.5,0.2,0.5,0.5c0,0.3-0.2,0.5-0.5,0.5S267.5,33.6,267.5,33.3z"/>
			<path class="st0" d="M270.7,33.2l0.4-0.5c0.3,0.3,0.6,0.5,1.1,0.5c0.5,0,0.9-0.3,0.9-0.8c0-0.5-0.3-0.9-1.4-0.9V31
				c1,0,1.3-0.3,1.3-0.8c0-0.4-0.3-0.7-0.7-0.7c-0.4,0-0.7,0.2-1,0.5l-0.4-0.5c0.4-0.3,0.8-0.6,1.4-0.6c0.9,0,1.5,0.4,1.5,1.2
				c0,0.5-0.3,0.9-0.8,1.1v0c0.6,0.1,1,0.5,1,1.2c0,0.9-0.7,1.4-1.6,1.4C271.5,33.8,271,33.5,270.7,33.2z"/>
			<path class="st0" d="M274.5,33.2l0.4-0.5c0.3,0.3,0.6,0.5,1.1,0.5c0.5,0,1-0.4,1-1c0-0.6-0.4-1-0.9-1c-0.3,0-0.5,0.1-0.8,0.3
				l-0.4-0.2L275,29h2.5v0.6h-1.8l-0.1,1.2c0.2-0.1,0.4-0.2,0.7-0.2c0.8,0,1.5,0.5,1.5,1.5c0,1-0.8,1.6-1.6,1.6
				C275.3,33.8,274.8,33.5,274.5,33.2z"/>
			<path class="st0" d="M279.8,30.3c0-1,0.5-1.5,1.1-1.5c0.7,0,1.1,0.6,1.1,1.5s-0.5,1.5-1.1,1.5C280.2,31.9,279.8,31.3,279.8,30.3z
				 M281.5,30.3c0-0.8-0.2-1.1-0.6-1.1c-0.3,0-0.6,0.3-0.6,1.1c0,0.7,0.2,1.1,0.6,1.1C281.2,31.4,281.5,31.1,281.5,30.3z
				 M283.7,28.8h0.5l-2.7,5H281L283.7,28.8z M283.2,32.3c0-1,0.5-1.5,1.1-1.5c0.7,0,1.1,0.6,1.1,1.5s-0.5,1.5-1.1,1.5
				C283.7,33.8,283.2,33.3,283.2,32.3z M284.9,32.3c0-0.8-0.2-1.1-0.6-1.1c-0.3,0-0.6,0.3-0.6,1.1c0,0.7,0.2,1.1,0.6,1.1
				C284.7,33.4,284.9,33,284.9,32.3z"/>
		</g>
		<linearGradient id="SVGID_1_" gradientUnits="userSpaceOnUse" x1="153.2194" y1="75.1841" x2="158.282" y2="75.1841">
			<stop  offset="0" style="stop-color:#446CB3"/>
			<stop  offset="1" style="stop-color:#9453A0"/>
		</linearGradient>
		<rect x="155.8" y="75.2" class="st1" width="0" height="0"/>
		
			<linearGradient id="SVGID_00000004538737690289583500000006904583791248868533_" gradientUnits="userSpaceOnUse" x1="155.1754" y1="75.1842" x2="156.3259" y2="75.1842">
			<stop  offset="0" style="stop-color:#446CB3"/>
			<stop  offset="1" style="stop-color:#9453A0"/>
		</linearGradient>
		<polygon style="fill:url(#SVGID_00000004538737690289583500000006904583791248868533_);" points="155.8,75.2 155.8,75.2 
			155.8,75.2 		"/>
		
			<linearGradient id="SVGID_00000065056691856305371410000003228875409494930584_" gradientUnits="userSpaceOnUse" x1="155.1752" y1="75.1841" x2="156.3258" y2="75.1841">
			<stop  offset="0" style="stop-color:#446CB3"/>
			<stop  offset="1" style="stop-color:#9453A0"/>
		</linearGradient>
		<polygon style="fill:url(#SVGID_00000065056691856305371410000003228875409494930584_);" points="155.8,75.2 155.8,75.2 
			155.8,75.2 		"/>
		<path class="st4" d="M155.8,75.2l0.1-0.6L155.8,75.2L155.8,75.2l0.6-0.1L155.8,75.2h0.1H155.8L155.8,75.2l59.4,27.1
			c3.8-8.3,5.9-17.5,5.9-27.1c0-36-29.2-65.2-65.2-65.2L155.8,75.2L155.8,75.2z"/>
		<path class="st5" d="M92.1,89.5c5.4,24.1,24.1,43.2,48,49.1l15.6-63.4L92.1,89.5z"/>
		<path class="st6" d="M155.8,75.2L155.8,75.2l-15.6,63.4c5,1.2,10.2,1.9,15.6,1.9c26.4,0,49.1-15.6,59.4-38.1L155.8,75.2z"/>
		<path class="st7" d="M155.8,9.9c-26.4,0-49.1,15.6-59.4,38.1l59.4,27.1V9.9z"/>
		<path class="st8" d="M155.8,75.2L155.8,75.2l-65.2,0c0,4.9,0.5,9.7,1.6,14.3L155.8,75.2L155.8,75.2z"/>
		<path class="st9" d="M96.4,48.1c-3.8,8.3-5.9,17.5-5.9,27.1h65.2L96.4,48.1z"/>
		<path class="st0" d="M187.3,44.2c-0.2,0-0.4-0.1-0.4-0.3c-0.1-0.2,0-0.5,0.3-0.6l28.8-10c0.2-0.1,0.5,0,0.6,0.3
			c0.1,0.2,0,0.5-0.3,0.6l-28.8,10C187.4,44.2,187.4,44.2,187.3,44.2z"/>
		<g>
			<path class="st0" d="M203.2,137.5h1.6c1,0,1.8,0.4,1.8,1.4c0,0.8-0.4,1.2-1,1.4l1.2,2.1h-0.9l-1.1-2h-0.8v2h-0.8V137.5z
				 M204.7,139.8c0.7,0,1.1-0.3,1.1-0.9c0-0.6-0.4-0.8-1.1-0.8h-0.7v1.7H204.7z"/>
			<path class="st0" d="M207.1,140.5c0-1.2,0.8-1.9,1.7-1.9c1,0,1.5,0.7,1.5,1.7c0,0.2,0,0.3,0,0.4h-2.4c0.1,0.7,0.5,1.1,1.1,1.1
				c0.3,0,0.6-0.1,0.9-0.3l0.3,0.5c-0.3,0.2-0.8,0.4-1.2,0.4C207.9,142.4,207.1,141.7,207.1,140.5z M209.6,140.2c0-0.6-0.3-1-0.8-1
				c-0.5,0-0.9,0.3-0.9,1H209.6z"/>
			<path class="st0" d="M210.7,141.9l0.4-0.5c0.3,0.3,0.6,0.4,1,0.4c0.4,0,0.6-0.2,0.6-0.5c0-0.3-0.4-0.5-0.8-0.6
				c-0.5-0.2-1-0.4-1-1.1c0-0.6,0.5-1.1,1.3-1.1c0.5,0,0.9,0.2,1.2,0.4l-0.4,0.5c-0.3-0.2-0.5-0.3-0.8-0.3c-0.4,0-0.6,0.2-0.6,0.4
				c0,0.3,0.4,0.4,0.8,0.6c0.5,0.2,1.1,0.4,1.1,1.1c0,0.6-0.5,1.1-1.4,1.1C211.6,142.4,211.1,142.2,210.7,141.9z"/>
			<path class="st0" d="M214,140.5c0-1.2,0.8-1.9,1.7-1.9c1,0,1.5,0.7,1.5,1.7c0,0.2,0,0.3,0,0.4h-2.4c0.1,0.7,0.5,1.1,1.1,1.1
				c0.3,0,0.6-0.1,0.9-0.3l0.3,0.5c-0.3,0.2-0.8,0.4-1.2,0.4C214.8,142.4,214,141.7,214,140.5z M216.5,140.2c0-0.6-0.3-1-0.8-1
				c-0.5,0-0.9,0.3-0.9,1H216.5z"/>
			<path class="st0" d="M218,138.7h0.6l0.1,0.7h0c0.3-0.5,0.6-0.7,1-0.7c0.2,0,0.3,0,0.4,0.1l-0.1,0.7c-0.1,0-0.2-0.1-0.4-0.1
				c-0.3,0-0.7,0.2-0.9,0.8v2.3H218V138.7z"/>
			<path class="st0" d="M220.3,138.7h0.8l0.6,2c0.1,0.4,0.2,0.7,0.3,1.1h0c0.1-0.4,0.2-0.7,0.3-1.1l0.6-2h0.7l-1.3,3.6h-0.9
				L220.3,138.7z"/>
			<path class="st0" d="M224.1,140.5c0-1.2,0.8-1.9,1.7-1.9c1,0,1.5,0.7,1.5,1.7c0,0.2,0,0.3,0,0.4h-2.4c0.1,0.7,0.5,1.1,1.1,1.1
				c0.3,0,0.6-0.1,0.9-0.3l0.3,0.5c-0.3,0.2-0.8,0.4-1.2,0.4C224.9,142.4,224.1,141.7,224.1,140.5z M226.6,140.2c0-0.6-0.3-1-0.8-1
				c-0.5,0-0.9,0.3-0.9,1H226.6z"/>
			<path class="st0" d="M229.5,139.3c0-0.3,0.2-0.5,0.5-0.5s0.5,0.2,0.5,0.5c0,0.3-0.2,0.5-0.5,0.5S229.5,139.6,229.5,139.3z
				 M229.5,141.9c0-0.3,0.2-0.5,0.5-0.5s0.5,0.2,0.5,0.5c0,0.3-0.2,0.5-0.5,0.5S229.5,142.2,229.5,141.9z"/>
			<path class="st0" d="M232.8,141.9c1.4-1.3,2.2-2.2,2.2-2.9c0-0.5-0.3-0.9-0.8-0.9c-0.4,0-0.7,0.2-1,0.5l-0.4-0.4
				c0.4-0.4,0.8-0.7,1.5-0.7c0.9,0,1.5,0.6,1.5,1.4c0,0.9-0.8,1.7-1.8,2.8c0.2,0,0.6,0,0.8,0h1.2v0.6h-3.1V141.9z"/>
			<path class="st0" d="M236.6,140c0-1.6,0.6-2.4,1.6-2.4c1,0,1.6,0.9,1.6,2.4c0,1.6-0.6,2.5-1.6,2.5
				C237.2,142.4,236.6,141.6,236.6,140z M239,140c0-1.4-0.3-1.8-0.8-1.8s-0.8,0.5-0.8,1.8s0.3,1.9,0.8,1.9S239,141.3,239,140z"/>
			<path class="st0" d="M240.2,138.9c0-1,0.5-1.5,1.1-1.5c0.7,0,1.1,0.6,1.1,1.5s-0.5,1.5-1.1,1.5
				C240.7,140.5,240.2,139.9,240.2,138.9z M242,138.9c0-0.8-0.2-1.1-0.6-1.1c-0.3,0-0.6,0.3-0.6,1.1c0,0.7,0.2,1.1,0.6,1.1
				C241.7,140,242,139.7,242,138.9z M244.2,137.4h0.5l-2.7,5h-0.5L244.2,137.4z M243.7,140.9c0-1,0.5-1.5,1.1-1.5
				c0.7,0,1.1,0.6,1.1,1.5s-0.5,1.5-1.1,1.5C244.1,142.4,243.7,141.9,243.7,140.9z M245.4,140.9c0-0.8-0.2-1.1-0.6-1.1
				c-0.3,0-0.6,0.3-0.6,1.1c0,0.7,0.2,1.1,0.6,1.1C245.2,142,245.4,141.7,245.4,140.9z"/>
		</g>
		<path class="st0" d="M199.5,142.8c-0.1,0-0.3-0.1-0.3-0.2l-23.7-25.9c-0.2-0.2-0.2-0.5,0-0.7c0.2-0.2,0.5-0.2,0.7,0l23.7,25.9
			c0.2,0.2,0.2,0.5,0,0.7C199.8,142.8,199.7,142.8,199.5,142.8z"/>
		<g>
			<path class="st0" d="M56.4,138.1h-1.4v-0.6h3.6v0.6h-1.4v4.2h-0.8V138.1z"/>
			<path class="st0" d="M58.6,140.5c0-1.2,0.8-1.9,1.7-1.9c1,0,1.5,0.7,1.5,1.7c0,0.2,0,0.3,0,0.4h-2.4c0.1,0.7,0.5,1.1,1.1,1.1
				c0.3,0,0.6-0.1,0.9-0.3l0.3,0.5c-0.3,0.2-0.8,0.4-1.2,0.4C59.4,142.4,58.6,141.7,58.6,140.5z M61.1,140.2c0-0.6-0.3-1-0.8-1
				c-0.5,0-0.9,0.3-0.9,1H61.1z"/>
			<path class="st0" d="M62.2,141.4c0-0.8,0.7-1.2,2.2-1.3c0-0.4-0.2-0.8-0.7-0.8c-0.4,0-0.7,0.2-1,0.4l-0.3-0.5
				c0.4-0.2,0.9-0.5,1.5-0.5c0.9,0,1.3,0.6,1.3,1.5v2.2h-0.6l-0.1-0.4h0c-0.3,0.3-0.7,0.5-1.2,0.5C62.7,142.4,62.2,142,62.2,141.4z
				 M64.4,141.4v-0.9c-1.1,0.1-1.4,0.4-1.4,0.8c0,0.4,0.2,0.5,0.6,0.5C63.9,141.8,64.1,141.7,64.4,141.4z"/>
			<path class="st0" d="M66.2,138.7h0.6l0.1,0.5h0c0.3-0.3,0.7-0.6,1.1-0.6c0.5,0,0.8,0.3,1,0.7c0.4-0.4,0.7-0.7,1.2-0.7
				c0.8,0,1.1,0.5,1.1,1.4v2.3h-0.8v-2.2c0-0.6-0.2-0.9-0.6-0.9c-0.3,0-0.5,0.2-0.8,0.5v2.6h-0.8v-2.2c0-0.6-0.2-0.9-0.6-0.9
				c-0.2,0-0.5,0.2-0.8,0.5v2.6h-0.8V138.7z"/>
			<path class="st0" d="M73.6,141.1c0-0.7,0.4-1.1,0.9-1.4c-0.2-0.4-0.3-0.8-0.3-1.1c0-0.7,0.5-1.2,1.2-1.2c0.6,0,1,0.4,1,1
				c0,0.6-0.5,1-1.1,1.4c0.3,0.4,0.7,0.9,1.2,1.2c0.3-0.4,0.5-0.8,0.6-1.3h0.7c-0.2,0.6-0.5,1.2-0.8,1.7c0.3,0.2,0.6,0.3,0.9,0.4
				l-0.2,0.6c-0.4-0.1-0.8-0.3-1.2-0.5c-0.4,0.3-0.9,0.5-1.4,0.5C74.2,142.4,73.6,141.9,73.6,141.1z M75.2,141.9
				c0.3,0,0.6-0.1,0.8-0.3c-0.4-0.4-0.9-0.8-1.2-1.3c-0.3,0.3-0.5,0.5-0.5,0.8C74.3,141.5,74.7,141.9,75.2,141.9z M75.1,139.4
				c0.4-0.3,0.8-0.5,0.8-0.9c0-0.3-0.1-0.5-0.4-0.5c-0.3,0-0.6,0.3-0.6,0.7C74.9,138.8,74.9,139.1,75.1,139.4z"/>
			<path class="st0" d="M81.1,137.5H82l1.6,4.9h-0.8l-0.4-1.4h-1.7l-0.4,1.4h-0.8L81.1,137.5z M80.9,140.4h1.3l-0.2-0.7
				c-0.2-0.5-0.3-1.1-0.5-1.6h0c-0.1,0.6-0.3,1.1-0.4,1.6L80.9,140.4z"/>
			<path class="st0" d="M84,140.5c0-1.2,0.7-1.9,1.6-1.9c0.4,0,0.7,0.2,1,0.4l0-0.6v-1.3h0.8v5.3h-0.6l-0.1-0.4h0
				c-0.3,0.3-0.6,0.5-1.1,0.5C84.5,142.4,84,141.8,84,140.5z M86.5,141.4v-1.8c-0.3-0.2-0.5-0.3-0.8-0.3c-0.5,0-0.9,0.5-0.9,1.3
				c0,0.8,0.3,1.3,0.9,1.3C85.9,141.8,86.2,141.7,86.5,141.4z"/>
			<path class="st0" d="M87.9,138.7h0.8l0.6,2c0.1,0.4,0.2,0.7,0.3,1.1h0c0.1-0.4,0.2-0.7,0.3-1.1l0.6-2h0.7l-1.3,3.6h-0.9
				L87.9,138.7z"/>
			<path class="st0" d="M91.9,137.6c0-0.3,0.2-0.4,0.5-0.4c0.3,0,0.5,0.2,0.5,0.4c0,0.3-0.2,0.5-0.5,0.5
				C92,138,91.9,137.9,91.9,137.6z M91.9,138.7h0.8v3.6h-0.8V138.7z"/>
			<path class="st0" d="M93.5,141.9l0.4-0.5c0.3,0.3,0.6,0.4,1,0.4c0.4,0,0.6-0.2,0.6-0.5c0-0.3-0.4-0.5-0.8-0.6
				c-0.5-0.2-1-0.4-1-1.1c0-0.6,0.5-1.1,1.3-1.1c0.5,0,0.9,0.2,1.2,0.4l-0.4,0.5c-0.3-0.2-0.5-0.3-0.8-0.3c-0.4,0-0.6,0.2-0.6,0.4
				c0,0.3,0.4,0.4,0.8,0.6c0.5,0.2,1.1,0.4,1.1,1.1c0,0.6-0.5,1.1-1.4,1.1C94.3,142.4,93.8,142.2,93.5,141.9z"/>
			<path class="st0" d="M96.8,140.5c0-1.2,0.8-1.9,1.7-1.9c0.9,0,1.7,0.7,1.7,1.9c0,1.2-0.8,1.9-1.7,1.9
				C97.6,142.4,96.8,141.8,96.8,140.5z M99.4,140.5c0-0.8-0.4-1.3-0.9-1.3c-0.6,0-0.9,0.5-0.9,1.3c0,0.8,0.4,1.3,0.9,1.3
				C99,141.8,99.4,141.3,99.4,140.5z"/>
			<path class="st0" d="M101.1,138.7h0.6l0.1,0.7h0c0.3-0.5,0.6-0.7,1-0.7c0.2,0,0.3,0,0.4,0.1l-0.1,0.7c-0.1,0-0.2-0.1-0.4-0.1
				c-0.3,0-0.7,0.2-0.9,0.8v2.3h-0.8V138.7z"/>
			<path class="st0" d="M103.3,141.9l0.4-0.5c0.3,0.3,0.6,0.4,1,0.4c0.4,0,0.6-0.2,0.6-0.5c0-0.3-0.4-0.5-0.8-0.6
				c-0.5-0.2-1-0.4-1-1.1c0-0.6,0.5-1.1,1.3-1.1c0.5,0,0.9,0.2,1.2,0.4l-0.4,0.5c-0.3-0.2-0.5-0.3-0.8-0.3c-0.4,0-0.6,0.2-0.6,0.4
				c0,0.3,0.4,0.4,0.8,0.6c0.5,0.2,1.1,0.4,1.1,1.1c0,0.6-0.5,1.1-1.4,1.1C104.2,142.4,103.7,142.2,103.3,141.9z"/>
			<path class="st0" d="M109.8,139.3c0-0.3,0.2-0.5,0.5-0.5c0.3,0,0.5,0.2,0.5,0.5c0,0.3-0.2,0.5-0.5,0.5
				C110,139.9,109.8,139.6,109.8,139.3z M109.8,141.9c0-0.3,0.2-0.5,0.5-0.5c0.3,0,0.5,0.2,0.5,0.5c0,0.3-0.2,0.5-0.5,0.5
				C110,142.4,109.8,142.2,109.8,141.9z"/>
			<path class="st0" d="M113.3,141.7h1.1v-3.2h-0.9V138c0.5-0.1,0.8-0.2,1.1-0.4h0.6v4.1h1v0.6h-2.8V141.7z"/>
			<path class="st0" d="M116.7,141.8l0.4-0.5c0.3,0.3,0.6,0.5,1.1,0.5c0.5,0,1-0.4,1-1c0-0.6-0.4-1-0.9-1c-0.3,0-0.5,0.1-0.8,0.3
				l-0.4-0.2l0.1-2.3h2.5v0.6h-1.8l-0.1,1.2c0.2-0.1,0.4-0.2,0.7-0.2c0.8,0,1.5,0.5,1.5,1.5c0,1-0.8,1.6-1.6,1.6
				C117.5,142.4,117,142.1,116.7,141.8z"/>
			<path class="st0" d="M120.5,138.9c0-1,0.5-1.5,1.1-1.5c0.7,0,1.1,0.6,1.1,1.5s-0.5,1.5-1.1,1.5
				C120.9,140.5,120.5,139.9,120.5,138.9z M122.2,138.9c0-0.8-0.2-1.1-0.6-1.1c-0.3,0-0.6,0.3-0.6,1.1c0,0.7,0.2,1.1,0.6,1.1
				C122,140,122.2,139.7,122.2,138.9z M124.4,137.4h0.5l-2.7,5h-0.5L124.4,137.4z M123.9,140.9c0-1,0.5-1.5,1.1-1.5
				c0.7,0,1.1,0.6,1.1,1.5s-0.5,1.5-1.1,1.5C124.4,142.4,123.9,141.9,123.9,140.9z M125.7,140.9c0-0.8-0.2-1.1-0.6-1.1
				c-0.3,0-0.6,0.3-0.6,1.1c0,0.7,0.2,1.1,0.6,1.1C125.4,142,125.7,141.7,125.7,140.9z"/>
		</g>
		<path class="st0" d="M76,133.8c-0.2,0-0.3-0.1-0.4-0.2c-0.1-0.2-0.1-0.5,0.1-0.7l42.5-27.5c0.2-0.1,0.5-0.1,0.7,0.1
			c0.1,0.2,0.1,0.5-0.1,0.7l-42.5,27.5C76.2,133.8,76.1,133.8,76,133.8z"/>
		<g>
			<path class="st0" d="M43.1,88.7h1.5c1.1,0,1.9,0.4,1.9,1.5c0,1.1-0.8,1.6-1.8,1.6h-0.7v1.8h-0.8V88.7z M44.5,91.1
				c0.8,0,1.1-0.3,1.1-0.9c0-0.6-0.4-0.9-1.2-0.9h-0.6v1.8H44.5z"/>
			<path class="st0" d="M46.8,92.6c0-0.8,0.7-1.2,2.2-1.3c0-0.4-0.2-0.8-0.7-0.8c-0.4,0-0.7,0.2-1,0.4l-0.3-0.5
				c0.4-0.2,0.9-0.5,1.5-0.5c0.9,0,1.3,0.6,1.3,1.5v2.2h-0.6L49,93.2h0c-0.3,0.3-0.7,0.5-1.2,0.5C47.2,93.7,46.8,93.3,46.8,92.6z
				 M48.9,92.7v-0.9c-1.1,0.1-1.4,0.4-1.4,0.8c0,0.4,0.2,0.5,0.6,0.5C48.4,93.1,48.6,92.9,48.9,92.7z"/>
			<path class="st0" d="M50.8,90h0.6l0.1,0.7h0c0.3-0.5,0.6-0.7,1-0.7c0.2,0,0.3,0,0.4,0.1l-0.1,0.7c-0.1,0-0.2-0.1-0.4-0.1
				c-0.3,0-0.7,0.2-0.9,0.8v2.3h-0.8V90z"/>
			<path class="st0" d="M53.6,92.4v-1.8h-0.5V90l0.6,0l0.1-1h0.6v1h0.9v0.6h-0.9v1.8c0,0.4,0.2,0.7,0.5,0.7c0.1,0,0.3,0,0.4-0.1
				l0.1,0.6c-0.2,0.1-0.4,0.1-0.7,0.1C53.9,93.7,53.6,93.2,53.6,92.4z"/>
			<path class="st0" d="M56.1,90h0.6l0.1,0.5h0c0.3-0.3,0.7-0.6,1.2-0.6c0.8,0,1.1,0.5,1.1,1.4v2.3h-0.8v-2.2c0-0.6-0.2-0.9-0.6-0.9
				c-0.3,0-0.6,0.2-0.9,0.5v2.6h-0.8V90z"/>
			<path class="st0" d="M59.9,91.8c0-1.2,0.8-1.9,1.7-1.9c1,0,1.5,0.7,1.5,1.7c0,0.2,0,0.3,0,0.4h-2.4c0.1,0.7,0.5,1.1,1.1,1.1
				c0.3,0,0.6-0.1,0.9-0.3l0.3,0.5c-0.3,0.2-0.8,0.4-1.2,0.4C60.7,93.7,59.9,93,59.9,91.8z M62.4,91.4c0-0.6-0.3-1-0.8-1
				c-0.5,0-0.9,0.3-0.9,1H62.4z"/>
			<path class="st0" d="M63.9,90h0.6l0.1,0.7h0c0.3-0.5,0.6-0.7,1-0.7c0.2,0,0.3,0,0.4,0.1l-0.1,0.7c-0.1,0-0.2-0.1-0.4-0.1
				c-0.3,0-0.7,0.2-0.9,0.8v2.3h-0.8V90z"/>
			<path class="st0" d="M68,90.6c0-0.3,0.2-0.5,0.5-0.5c0.3,0,0.5,0.2,0.5,0.5c0,0.3-0.2,0.5-0.5,0.5C68.2,91.1,68,90.9,68,90.6z
				 M68,93.1c0-0.3,0.2-0.5,0.5-0.5c0.3,0,0.5,0.2,0.5,0.5c0,0.3-0.2,0.5-0.5,0.5C68.2,93.7,68,93.5,68,93.1z"/>
			<path class="st0" d="M71.2,93l0.4-0.5c0.3,0.3,0.6,0.5,1.1,0.5c0.5,0,1-0.4,1-1c0-0.6-0.4-1-0.9-1c-0.3,0-0.5,0.1-0.8,0.3
				l-0.4-0.2l0.1-2.3h2.5v0.6h-1.8l-0.1,1.2c0.2-0.1,0.4-0.2,0.7-0.2c0.8,0,1.5,0.5,1.5,1.5c0,1-0.8,1.6-1.6,1.6
				C72,93.7,71.5,93.4,71.2,93z"/>
			<path class="st0" d="M76.5,90.2c0-1,0.5-1.5,1.1-1.5c0.7,0,1.1,0.6,1.1,1.5s-0.5,1.5-1.1,1.5C76.9,91.7,76.5,91.1,76.5,90.2z
				 M78.2,90.2c0-0.8-0.2-1.1-0.6-1.1c-0.3,0-0.6,0.3-0.6,1.1c0,0.7,0.2,1.1,0.6,1.1C77.9,91.3,78.2,90.9,78.2,90.2z M80.4,88.6h0.5
				l-2.7,5h-0.5L80.4,88.6z M79.9,92.1c0-1,0.5-1.5,1.1-1.5c0.7,0,1.1,0.6,1.1,1.5s-0.5,1.5-1.1,1.5C80.4,93.7,79.9,93.1,79.9,92.1z
				 M81.6,92.1c0-0.8-0.2-1.1-0.6-1.1c-0.3,0-0.6,0.3-0.6,1.1c0,0.7,0.2,1.1,0.6,1.1C81.4,93.2,81.6,92.9,81.6,92.1z"/>
		</g>
		<path class="st0" d="M80.9,86.4c-0.2,0-0.4-0.2-0.5-0.4c-0.1-0.3,0.1-0.5,0.4-0.6l16.3-3.4c0.3-0.1,0.5,0.1,0.6,0.4
			c0.1,0.3-0.1,0.5-0.4,0.6L80.9,86.4C81,86.4,80.9,86.4,80.9,86.4z"/>
		<g>
			<path class="st0" d="M22.6,48.8h0.8v4.9h-0.8V48.8z"/>
			<path class="st0" d="M24.5,50h0.6l0.1,0.5h0c0.3-0.3,0.7-0.6,1.2-0.6c0.8,0,1.1,0.5,1.1,1.4v2.3h-0.8v-2.2c0-0.6-0.2-0.9-0.6-0.9
				c-0.3,0-0.6,0.2-0.9,0.5v2.6h-0.8V50z"/>
			<path class="st0" d="M28.6,48.9c0-0.3,0.2-0.4,0.5-0.4s0.5,0.2,0.5,0.4c0,0.3-0.2,0.5-0.5,0.5S28.6,49.2,28.6,48.9z M28.7,50h0.8
				v3.6h-0.8V50z"/>
			<path class="st0" d="M30.7,52.5v-1.8h-0.5V50l0.6,0l0.1-1h0.6v1h0.9v0.6h-0.9v1.8c0,0.4,0.2,0.7,0.5,0.7c0.1,0,0.3,0,0.4-0.1
				l0.1,0.6c-0.2,0.1-0.4,0.1-0.7,0.1C31,53.7,30.7,53.2,30.7,52.5z"/>
			<path class="st0" d="M33.1,48.9c0-0.3,0.2-0.4,0.5-0.4c0.3,0,0.5,0.2,0.5,0.4c0,0.3-0.2,0.5-0.5,0.5
				C33.3,49.3,33.1,49.2,33.1,48.9z M33.2,50h0.8v3.6h-0.8V50z"/>
			<path class="st0" d="M34.8,52.7c0-0.8,0.7-1.2,2.2-1.3c0-0.4-0.2-0.8-0.7-0.8c-0.4,0-0.7,0.2-1,0.4L35,50.4
				c0.4-0.2,0.9-0.5,1.5-0.5c0.9,0,1.3,0.6,1.3,1.5v2.2h-0.6l-0.1-0.4h0c-0.3,0.3-0.7,0.5-1.2,0.5C35.3,53.7,34.8,53.3,34.8,52.7z
				 M37,52.7v-0.9c-1.1,0.1-1.4,0.4-1.4,0.8c0,0.4,0.2,0.5,0.6,0.5C36.5,53.1,36.7,53,37,52.7z"/>
			<path class="st0" d="M38.8,52.8v-4.4h0.8v4.4c0,0.2,0.1,0.3,0.2,0.3c0,0,0.1,0,0.1,0l0.1,0.6c-0.1,0-0.2,0.1-0.4,0.1
				C39.1,53.7,38.8,53.4,38.8,52.8z"/>
			<path class="st0" d="M42.4,48.8h0.8V53h2.1v0.6h-2.8V48.8z"/>
			<path class="st0" d="M45.9,48.9c0-0.3,0.2-0.4,0.5-0.4c0.3,0,0.5,0.2,0.5,0.4c0,0.3-0.2,0.5-0.5,0.5
				C46.1,49.3,45.9,49.2,45.9,48.9z M46,50h0.8v3.6H46V50z"/>
			<path class="st0" d="M50.1,53.9l0-0.6c-0.3,0.3-0.6,0.5-1,0.5c-0.9,0-1.5-0.7-1.5-1.9c0-1.2,0.7-1.9,1.6-1.9c0.4,0,0.7,0.2,1,0.4
				h0l0.1-0.3h0.6v5.1h-0.8V53.9z M50.1,52.7v-1.8c-0.3-0.2-0.5-0.3-0.8-0.3c-0.5,0-0.9,0.5-0.9,1.3c0,0.8,0.3,1.3,0.9,1.3
				C49.6,53.1,49.9,53,50.1,52.7z"/>
			<path class="st0" d="M52,52.3V50h0.8v2.2c0,0.6,0.2,0.9,0.6,0.9c0.3,0,0.6-0.2,0.9-0.5V50H55v3.6h-0.6l-0.1-0.5h0
				c-0.3,0.4-0.7,0.6-1.2,0.6C52.3,53.7,52,53.2,52,52.3z"/>
			<path class="st0" d="M56,48.9c0-0.3,0.2-0.4,0.5-0.4c0.3,0,0.5,0.2,0.5,0.4c0,0.3-0.2,0.5-0.5,0.5C56.2,49.3,56,49.2,56,48.9z
				 M56.1,50h0.8v3.6h-0.8V50z"/>
			<path class="st0" d="M57.8,51.8c0-1.2,0.7-1.9,1.6-1.9c0.4,0,0.7,0.2,1,0.4l0-0.6v-1.3H61v5.3h-0.6l-0.1-0.4h0
				c-0.3,0.3-0.6,0.5-1.1,0.5C58.4,53.7,57.8,53,57.8,51.8z M60.3,52.7v-1.8c-0.3-0.2-0.5-0.3-0.8-0.3c-0.5,0-0.9,0.5-0.9,1.3
				c0,0.8,0.3,1.3,0.9,1.3C59.8,53.1,60,53,60.3,52.7z"/>
			<path class="st0" d="M62.1,48.9c0-0.3,0.2-0.4,0.5-0.4c0.3,0,0.5,0.2,0.5,0.4c0,0.3-0.2,0.5-0.5,0.5
				C62.3,49.3,62.1,49.2,62.1,48.9z M62.2,50h0.8v3.6h-0.8V50z"/>
			<path class="st0" d="M64.2,52.5v-1.8h-0.5V50l0.6,0l0.1-1h0.6v1h0.9v0.6h-0.9v1.8c0,0.4,0.2,0.7,0.5,0.7c0.1,0,0.3,0,0.4-0.1
				l0.1,0.6c-0.2,0.1-0.4,0.1-0.7,0.1C64.5,53.7,64.2,53.2,64.2,52.5z"/>
			<path class="st0" d="M66.4,55.1l0.1-0.6c0.1,0,0.2,0.1,0.3,0.1c0.4,0,0.6-0.3,0.8-0.7l0.1-0.3L66.2,50H67l0.7,1.9
				c0.1,0.3,0.2,0.7,0.3,1h0c0.1-0.3,0.2-0.7,0.3-1l0.6-1.9h0.7l-1.3,3.8c-0.3,0.8-0.7,1.3-1.4,1.3C66.7,55.2,66.5,55.1,66.4,55.1z"
				/>
			<path class="st0" d="M71.7,50.6c0-0.3,0.2-0.5,0.5-0.5c0.3,0,0.5,0.2,0.5,0.5c0,0.3-0.2,0.5-0.5,0.5
				C71.9,51.1,71.7,50.9,71.7,50.6z M71.7,53.2c0-0.3,0.2-0.5,0.5-0.5c0.3,0,0.5,0.2,0.5,0.5c0,0.3-0.2,0.5-0.5,0.5
				C71.9,53.7,71.7,53.5,71.7,53.2z"/>
			<path class="st0" d="M75.2,53h1.1v-3.2h-0.9v-0.5c0.5-0.1,0.8-0.2,1.1-0.4H77V53h1v0.6h-2.8V53z"/>
			<path class="st0" d="M78.7,51.3c0-1.6,0.6-2.4,1.6-2.4c1,0,1.6,0.9,1.6,2.4c0,1.6-0.6,2.5-1.6,2.5C79.3,53.7,78.7,52.8,78.7,51.3
				z M81.1,51.3c0-1.4-0.4-1.8-0.8-1.8c-0.5,0-0.8,0.5-0.8,1.8c0,1.4,0.3,1.9,0.8,1.9C80.8,53.1,81.1,52.6,81.1,51.3z"/>
			<path class="st0" d="M83.9,50.2c0-1,0.5-1.5,1.1-1.5c0.7,0,1.1,0.6,1.1,1.5s-0.5,1.5-1.1,1.5C84.3,51.8,83.9,51.2,83.9,50.2z
				 M85.6,50.2c0-0.8-0.2-1.1-0.6-1.1c-0.3,0-0.6,0.3-0.6,1.1c0,0.7,0.2,1.1,0.6,1.1C85.4,51.3,85.6,51,85.6,50.2z M87.8,48.7h0.5
				l-2.7,5h-0.5L87.8,48.7z M87.3,52.2c0-1,0.5-1.5,1.1-1.5c0.7,0,1.1,0.6,1.1,1.5s-0.5,1.5-1.1,1.5C87.8,53.7,87.3,53.2,87.3,52.2z
				 M89,52.2c0-0.8-0.2-1.1-0.6-1.1c-0.3,0-0.6,0.3-0.6,1.1c0,0.7,0.2,1.1,0.6,1.1C88.8,53.3,89,52.9,89,52.2z"/>
		</g>
		<path class="st0" d="M105,62.1C105,62.1,105,62.1,105,62.1l-35.6-3c-0.3,0-0.5-0.2-0.4-0.5c0-0.3,0.2-0.5,0.5-0.4l35.6,3
			c0.3,0,0.5,0.2,0.4,0.5C105.5,61.9,105.3,62.1,105,62.1z"/>
		<g>
			<path class="st0" d="M44.6,15.5h0.9l0.9,2.5c0.1,0.3,0.2,0.7,0.3,1h0c0.1-0.3,0.2-0.7,0.3-1l0.9-2.5h0.9v4.9h-0.7v-2.4
				c0-0.4,0.1-1.1,0.1-1.5h0l-0.4,1.1l-0.8,2.3h-0.5l-0.9-2.3l-0.4-1.1h0c0,0.4,0.1,1.1,0.1,1.5v2.4h-0.7V15.5z"/>
			<path class="st0" d="M49.8,19.4c0-0.8,0.7-1.2,2.2-1.3c0-0.4-0.2-0.8-0.7-0.8c-0.4,0-0.7,0.2-1,0.4l-0.3-0.5
				c0.4-0.2,0.9-0.5,1.5-0.5c0.9,0,1.3,0.6,1.3,1.5v2.2h-0.6L52,19.9h0c-0.3,0.3-0.7,0.5-1.2,0.5C50.2,20.4,49.8,20,49.8,19.4z
				 M52,19.4v-0.9c-1.1,0.1-1.4,0.4-1.4,0.8c0,0.4,0.2,0.5,0.6,0.5C51.4,19.8,51.7,19.7,52,19.4z"/>
			<path class="st0" d="M53.8,16.7h0.6l0.1,0.7h0c0.3-0.5,0.6-0.7,1-0.7c0.2,0,0.3,0,0.4,0.1l-0.1,0.7c-0.1,0-0.2-0.1-0.4-0.1
				c-0.3,0-0.7,0.2-0.9,0.8v2.3h-0.8V16.7z"/>
			<path class="st0" d="M56.5,15.1h0.7v3.4h0l1.4-1.8h0.8l-1.2,1.5l1.4,2.2h-0.8l-1-1.6l-0.6,0.7v0.9h-0.7V15.1z"/>
			<path class="st0" d="M59.9,18.5c0-1.2,0.8-1.9,1.7-1.9c1,0,1.5,0.7,1.5,1.7c0,0.2,0,0.3,0,0.4h-2.4c0.1,0.7,0.5,1.1,1.1,1.1
				c0.3,0,0.6-0.1,0.9-0.3l0.3,0.5c-0.3,0.2-0.8,0.4-1.2,0.4C60.7,20.4,59.9,19.7,59.9,18.5z M62.4,18.2c0-0.6-0.3-1-0.8-1
				c-0.5,0-0.9,0.3-0.9,1H62.4z"/>
			<path class="st0" d="M63.9,19.1v-1.8h-0.5v-0.6l0.6,0l0.1-1h0.6v1h0.9v0.6h-0.9v1.8c0,0.4,0.2,0.7,0.5,0.7c0.1,0,0.3,0,0.4-0.1
				l0.1,0.6c-0.2,0.1-0.4,0.1-0.7,0.1C64.2,20.4,63.9,19.9,63.9,19.1z"/>
			<path class="st0" d="M66.3,15.6c0-0.3,0.2-0.4,0.5-0.4s0.5,0.2,0.5,0.4c0,0.3-0.2,0.5-0.5,0.5S66.3,15.8,66.3,15.6z M66.4,16.7
				h0.8v3.6h-0.8V16.7z"/>
			<path class="st0" d="M68.3,16.7h0.6l0.1,0.5h0c0.3-0.3,0.7-0.6,1.2-0.6c0.8,0,1.1,0.5,1.1,1.4v2.3h-0.8v-2.2
				c0-0.6-0.2-0.9-0.6-0.9c-0.3,0-0.6,0.2-0.9,0.5v2.6h-0.8V16.7z"/>
			<path class="st0" d="M72.1,21c0-0.3,0.2-0.6,0.5-0.8v0c-0.2-0.1-0.3-0.3-0.3-0.6c0-0.3,0.2-0.5,0.4-0.7v0c-0.3-0.2-0.5-0.5-0.5-1
				c0-0.8,0.7-1.3,1.4-1.3c0.2,0,0.4,0,0.5,0.1h1.3v0.6h-0.7c0.1,0.1,0.2,0.4,0.2,0.7c0,0.8-0.6,1.2-1.4,1.2c-0.2,0-0.4,0-0.5-0.1
				c-0.1,0.1-0.2,0.2-0.2,0.4c0,0.2,0.1,0.4,0.6,0.4h0.7c0.9,0,1.3,0.3,1.3,0.9c0,0.7-0.7,1.3-1.9,1.3C72.8,22,72.1,21.6,72.1,21z
				 M74.8,20.8c0-0.3-0.2-0.4-0.7-0.4h-0.5c-0.2,0-0.3,0-0.5-0.1c-0.2,0.2-0.3,0.3-0.3,0.5c0,0.4,0.4,0.6,1,0.6
				C74.4,21.5,74.8,21.1,74.8,20.8z M74.4,17.9c0-0.5-0.3-0.8-0.7-0.8c-0.4,0-0.7,0.3-0.7,0.8c0,0.5,0.3,0.8,0.7,0.8
				S74.4,18.4,74.4,17.9z"/>
			<path class="st0" d="M77.6,17.3c0-0.3,0.2-0.5,0.5-0.5c0.3,0,0.5,0.2,0.5,0.5c0,0.3-0.2,0.5-0.5,0.5
				C77.8,17.8,77.6,17.6,77.6,17.3z M77.6,19.9c0-0.3,0.2-0.5,0.5-0.5c0.3,0,0.5,0.2,0.5,0.5c0,0.3-0.2,0.5-0.5,0.5
				C77.8,20.4,77.6,20.2,77.6,19.9z"/>
			<path class="st0" d="M81.2,19.7h1.1v-3.2h-0.9V16c0.5-0.1,0.8-0.2,1.1-0.4H83v4.1h1v0.6h-2.8V19.7z"/>
			<path class="st0" d="M84.5,19.8l0.4-0.5c0.3,0.3,0.6,0.5,1.1,0.5c0.5,0,1-0.4,1-1c0-0.6-0.4-1-0.9-1c-0.3,0-0.5,0.1-0.8,0.3
				l-0.4-0.2l0.1-2.3h2.5v0.6h-1.8l-0.1,1.2c0.2-0.1,0.4-0.2,0.7-0.2c0.8,0,1.5,0.5,1.5,1.5c0,1-0.8,1.6-1.6,1.6
				C85.3,20.4,84.9,20.1,84.5,19.8z"/>
			<path class="st0" d="M89.8,16.9c0-1,0.5-1.5,1.1-1.5s1.1,0.6,1.1,1.5c0,1-0.5,1.5-1.1,1.5S89.8,17.9,89.8,16.9z M91.6,16.9
				c0-0.8-0.2-1.1-0.6-1.1c-0.3,0-0.6,0.3-0.6,1.1c0,0.7,0.2,1.1,0.6,1.1C91.3,18,91.6,17.7,91.6,16.9z M93.8,15.4h0.5l-2.7,5h-0.5
				L93.8,15.4z M93.3,18.9c0-1,0.5-1.5,1.1-1.5c0.7,0,1.1,0.6,1.1,1.5c0,1-0.5,1.5-1.1,1.5C93.7,20.4,93.3,19.8,93.3,18.9z M95,18.9
				c0-0.8-0.2-1.1-0.6-1.1c-0.3,0-0.6,0.3-0.6,1.1c0,0.7,0.2,1.1,0.6,1.1C94.8,20,95,19.6,95,18.9z"/>
		</g>
		<path class="st0" d="M132.2,43c-0.1,0-0.1,0-0.2,0L79.5,25.1c-0.2-0.1-0.4-0.4-0.3-0.6s0.4-0.4,0.6-0.3l52.5,17.9
			c0.2,0.1,0.4,0.4,0.3,0.6C132.5,42.9,132.4,43,132.2,43z"/>
	</g>
	
		<linearGradient id="SVGID_00000042731544554285612620000015938299491070837154_" gradientUnits="userSpaceOnUse" x1="130.204" y1="101.663" x2="131.6179" y2="101.663" gradientTransform="matrix(-3.464551e-07 1 1 3.464551e-07 54.2401 42.3808)">
		<stop  offset="0" style="stop-color:#446CB3"/>
		<stop  offset="1" style="stop-color:#9453A0"/>
	</linearGradient>
	
		<rect x="58.6" y="172.6" style="fill:url(#SVGID_00000042731544554285612620000015938299491070837154_);" width="194.7" height="1.4"/>
	
		<linearGradient id="SVGID_00000132046644627766806350000004032484073387194255_" gradientUnits="userSpaceOnUse" x1="190.2477" y1="101.6631" x2="191.1904" y2="101.6631" gradientTransform="matrix(-3.464551e-07 1 1 3.464551e-07 54.2401 42.3808)">
		<stop  offset="0" style="stop-color:#446CB3"/>
		<stop  offset="1" style="stop-color:#9453A0"/>
	</linearGradient>
	
		<rect x="58.6" y="232.6" style="fill:url(#SVGID_00000132046644627766806350000004032484073387194255_);" width="194.7" height="0.9"/>
	<g>
		<path class="st0" d="M120.8,185.6h1.7v0.6h-1.7V185.6z"/>
		<path class="st0" d="M126,183.6h-1.4v-0.6h3.6v0.6h-1.4v4.2H126V183.6z"/>
		<path class="st0" d="M128.2,186c0-1.2,0.8-1.9,1.7-1.9s1.7,0.7,1.7,1.9c0,1.2-0.8,1.9-1.7,1.9S128.2,187.2,128.2,186z M130.8,186
			c0-0.8-0.4-1.3-0.9-1.3c-0.6,0-0.9,0.5-0.9,1.3c0,0.8,0.4,1.3,0.9,1.3C130.5,187.3,130.8,186.8,130.8,186z"/>
		<path class="st0" d="M132.5,182.5h0.7v3.4h0l1.4-1.8h0.8l-1.2,1.5l1.4,2.2h-0.8l-1-1.6l-0.6,0.7v0.9h-0.7V182.5z"/>
		<path class="st0" d="M135.9,186c0-1.2,0.8-1.9,1.7-1.9c1,0,1.5,0.7,1.5,1.7c0,0.2,0,0.3,0,0.4h-2.4c0.1,0.7,0.5,1.1,1.1,1.1
			c0.3,0,0.6-0.1,0.9-0.3l0.3,0.5c-0.3,0.2-0.8,0.4-1.2,0.4C136.6,187.9,135.9,187.2,135.9,186z M138.3,185.6c0-0.6-0.3-1-0.8-1
			c-0.5,0-0.9,0.3-0.9,1H138.3z"/>
		<path class="st0" d="M139.8,184.2h0.6l0.1,0.5h0c0.3-0.3,0.7-0.6,1.2-0.6c0.8,0,1.1,0.5,1.1,1.4v2.3h-0.8v-2.2
			c0-0.6-0.2-0.9-0.6-0.9c-0.3,0-0.6,0.2-0.9,0.5v2.6h-0.8V184.2z"/>
		<path class="st0" d="M145.5,182.9h0.8l1.6,2.9l0.5,1h0c0-0.5-0.1-1.1-0.1-1.6v-2.3h0.7v4.9h-0.8l-1.6-2.9l-0.5-1h0
			c0,0.5,0.1,1.1,0.1,1.6v2.3h-0.7V182.9z"/>
		<path class="st0" d="M150.1,186.8c0-0.8,0.7-1.2,2.2-1.3c0-0.4-0.2-0.8-0.7-0.8c-0.4,0-0.7,0.2-1,0.4l-0.3-0.5
			c0.4-0.2,0.9-0.5,1.5-0.5c0.9,0,1.3,0.6,1.3,1.5v2.2h-0.6l-0.1-0.4h0c-0.3,0.3-0.7,0.5-1.2,0.5
			C150.5,187.9,150.1,187.5,150.1,186.8z M152.3,186.9V186c-1.1,0.1-1.4,0.4-1.4,0.8c0,0.4,0.2,0.5,0.6,0.5
			C151.7,187.3,152,187.1,152.3,186.9z"/>
		<path class="st0" d="M154.1,184.2h0.6l0.1,0.5h0c0.3-0.3,0.7-0.6,1.1-0.6c0.5,0,0.8,0.3,1,0.7c0.4-0.4,0.7-0.7,1.2-0.7
			c0.8,0,1.1,0.5,1.1,1.4v2.3h-0.8v-2.2c0-0.6-0.2-0.9-0.6-0.9c-0.3,0-0.5,0.2-0.8,0.5v2.6h-0.8v-2.2c0-0.6-0.2-0.9-0.6-0.9
			c-0.2,0-0.5,0.2-0.8,0.5v2.6h-0.8V184.2z"/>
		<path class="st0" d="M160,186c0-1.2,0.8-1.9,1.7-1.9c1,0,1.5,0.7,1.5,1.7c0,0.2,0,0.3,0,0.4h-2.4c0.1,0.7,0.5,1.1,1.1,1.1
			c0.3,0,0.6-0.1,0.9-0.3l0.3,0.5c-0.3,0.2-0.8,0.4-1.2,0.4C160.8,187.9,160,187.2,160,186z M162.5,185.6c0-0.6-0.3-1-0.8-1
			c-0.5,0-0.9,0.3-0.9,1H162.5z"/>
		<path class="st0" d="M165.4,184.8c0-0.3,0.2-0.5,0.5-0.5s0.5,0.2,0.5,0.5c0,0.3-0.2,0.5-0.5,0.5S165.4,185.1,165.4,184.8z
			 M165.4,187.4c0-0.3,0.2-0.5,0.5-0.5s0.5,0.2,0.5,0.5c0,0.3-0.2,0.5-0.5,0.5S165.4,187.7,165.4,187.4z"/>
		<path class="st0" d="M168.5,182.9h0.8l0.5,2.5c0.1,0.5,0.2,1,0.3,1.6h0c0.1-0.5,0.2-1,0.3-1.6l0.6-2.5h0.7l0.6,2.5
			c0.1,0.5,0.2,1,0.3,1.6h0c0.1-0.5,0.2-1,0.2-1.6l0.5-2.5h0.7l-1,4.9h-0.9l-0.7-2.7c-0.1-0.4-0.2-0.7-0.2-1.1h0
			c-0.1,0.4-0.2,0.7-0.2,1.1l-0.6,2.7h-0.9L168.5,182.9z"/>
		<path class="st0" d="M174.6,185.3c0-1.6,0.9-2.5,2.1-2.5c1.2,0,2.1,0.9,2.1,2.5c0,1.6-0.9,2.5-2.1,2.5
			C175.5,187.9,174.6,186.9,174.6,185.3z M178.1,185.3c0-1.1-0.5-1.8-1.3-1.8c-0.8,0-1.3,0.7-1.3,1.8c0,1.1,0.5,1.9,1.3,1.9
			C177.5,187.2,178.1,186.5,178.1,185.3z"/>
		<path class="st0" d="M179.3,182.9h0.8l0.5,2.5c0.1,0.5,0.2,1,0.3,1.6h0c0.1-0.5,0.2-1,0.3-1.6l0.6-2.5h0.7l0.6,2.5
			c0.1,0.5,0.2,1,0.3,1.6h0c0.1-0.5,0.2-1,0.2-1.6l0.5-2.5h0.7l-1,4.9H183l-0.7-2.7c-0.1-0.4-0.2-0.7-0.2-1.1h0
			c-0.1,0.4-0.2,0.7-0.2,1.1l-0.6,2.7h-0.9L179.3,182.9z"/>
		<path class="st0" d="M185.7,184.2h0.6l0.1,0.5h0c0.3-0.3,0.7-0.6,1.1-0.6c0.5,0,0.8,0.3,1,0.7c0.4-0.4,0.7-0.7,1.2-0.7
			c0.8,0,1.1,0.5,1.1,1.4v2.3H190v-2.2c0-0.6-0.2-0.9-0.6-0.9c-0.3,0-0.5,0.2-0.8,0.5v2.6h-0.8v-2.2c0-0.6-0.2-0.9-0.6-0.9
			c-0.2,0-0.5,0.2-0.8,0.5v2.6h-0.8V184.2z"/>
		<path class="st0" d="M121.2,197.4h1.7v0.6h-1.7V197.4z"/>
		<path class="st0" d="M126.4,195.4H125v-0.6h3.6v0.6h-1.4v4.2h-0.8V195.4z"/>
		<path class="st0" d="M128.6,197.8c0-1.2,0.8-1.9,1.7-1.9c0.9,0,1.7,0.7,1.7,1.9c0,1.2-0.8,1.9-1.7,1.9
			C129.4,199.7,128.6,199,128.6,197.8z M131.2,197.8c0-0.8-0.4-1.3-0.9-1.3c-0.6,0-0.9,0.5-0.9,1.3c0,0.8,0.4,1.3,0.9,1.3
			C130.9,199,131.2,198.5,131.2,197.8z"/>
		<path class="st0" d="M132.9,194.3h0.7v3.4h0l1.4-1.8h0.8l-1.2,1.5l1.4,2.2h-0.8l-1-1.6l-0.6,0.7v0.9h-0.7V194.3z"/>
		<path class="st0" d="M136.3,197.8c0-1.2,0.8-1.9,1.7-1.9c1,0,1.5,0.7,1.5,1.7c0,0.2,0,0.3,0,0.4H137c0.1,0.7,0.5,1.1,1.1,1.1
			c0.3,0,0.6-0.1,0.9-0.3l0.3,0.5c-0.3,0.2-0.8,0.4-1.2,0.4C137.1,199.7,136.3,199,136.3,197.8z M138.8,197.4c0-0.6-0.3-1-0.8-1
			c-0.5,0-0.9,0.3-0.9,1H138.8z"/>
		<path class="st0" d="M140.3,195.9h0.6l0.1,0.5h0c0.3-0.3,0.7-0.6,1.2-0.6c0.8,0,1.1,0.5,1.1,1.4v2.3h-0.8v-2.2
			c0-0.6-0.2-0.9-0.6-0.9c-0.3,0-0.6,0.2-0.9,0.5v2.6h-0.8V195.9z"/>
		<path class="st0" d="M145.6,198.9l0.4-0.5c0.3,0.3,0.8,0.6,1.3,0.6c0.6,0,0.9-0.3,0.9-0.7c0-0.4-0.3-0.6-0.8-0.8l-0.7-0.3
			c-0.5-0.2-1-0.6-1-1.3c0-0.8,0.7-1.3,1.6-1.3c0.6,0,1.1,0.2,1.5,0.6l-0.4,0.5c-0.3-0.3-0.6-0.4-1.1-0.4c-0.5,0-0.8,0.2-0.8,0.6
			c0,0.4,0.4,0.6,0.8,0.7l0.7,0.3c0.6,0.2,1,0.6,1,1.3c0,0.8-0.6,1.4-1.7,1.4C146.6,199.7,146,199.4,145.6,198.9z"/>
		<path class="st0" d="M149.6,201l0.1-0.6c0.1,0,0.2,0.1,0.3,0.1c0.4,0,0.6-0.3,0.8-0.7l0.1-0.3l-1.4-3.6h0.8l0.7,1.9
			c0.1,0.3,0.2,0.7,0.3,1h0c0.1-0.3,0.2-0.7,0.3-1l0.6-1.9h0.7l-1.3,3.8c-0.3,0.8-0.7,1.3-1.4,1.3
			C149.8,201.1,149.7,201.1,149.6,201z"/>
		<path class="st0" d="M153.5,195.9h0.6l0.1,0.5h0c0.3-0.3,0.7-0.6,1.1-0.6c0.5,0,0.8,0.3,1,0.7c0.4-0.4,0.7-0.7,1.2-0.7
			c0.8,0,1.1,0.5,1.1,1.4v2.3h-0.8v-2.2c0-0.6-0.2-0.9-0.6-0.9c-0.3,0-0.5,0.2-0.8,0.5v2.6h-0.8v-2.2c0-0.6-0.2-0.9-0.6-0.9
			c-0.2,0-0.5,0.2-0.8,0.5v2.6h-0.8V195.9z"/>
		<path class="st0" d="M160.4,199.2L160.4,199.2l-0.1,0.4h-0.6v-5.3h0.8v1.4l0,0.6c0.3-0.3,0.7-0.5,1.1-0.5c0.9,0,1.4,0.7,1.4,1.8
			c0,1.2-0.7,2-1.6,2C161,199.7,160.7,199.5,160.4,199.2z M162.1,197.7c0-0.8-0.2-1.2-0.9-1.2c-0.3,0-0.6,0.1-0.9,0.4v1.8
			c0.3,0.2,0.6,0.3,0.8,0.3C161.7,199,162.1,198.6,162.1,197.7z"/>
		<path class="st0" d="M163.6,197.8c0-1.2,0.8-1.9,1.7-1.9s1.7,0.7,1.7,1.9c0,1.2-0.8,1.9-1.7,1.9S163.6,199,163.6,197.8z
			 M166.2,197.8c0-0.8-0.4-1.3-0.9-1.3c-0.6,0-0.9,0.5-0.9,1.3c0,0.8,0.4,1.3,0.9,1.3C165.8,199,166.2,198.5,166.2,197.8z"/>
		<path class="st0" d="M167.9,198.7v-4.4h0.8v4.4c0,0.2,0.1,0.3,0.2,0.3c0,0,0.1,0,0.1,0l0.1,0.6c-0.1,0-0.2,0.1-0.4,0.1
			C168.1,199.7,167.9,199.3,167.9,198.7z"/>
		<path class="st0" d="M171.2,196.5c0-0.3,0.2-0.5,0.5-0.5c0.3,0,0.5,0.2,0.5,0.5c0,0.3-0.2,0.5-0.5,0.5
			C171.4,197.1,171.2,196.8,171.2,196.5z M171.2,199.1c0-0.3,0.2-0.5,0.5-0.5c0.3,0,0.5,0.2,0.5,0.5c0,0.3-0.2,0.5-0.5,0.5
			C171.4,199.7,171.2,199.4,171.2,199.1z"/>
		<path class="st0" d="M174.4,194.7h0.8l0.5,2.5c0.1,0.5,0.2,1,0.3,1.6h0c0.1-0.5,0.2-1,0.3-1.6l0.6-2.5h0.7l0.6,2.5
			c0.1,0.5,0.2,1,0.3,1.6h0c0.1-0.5,0.2-1,0.2-1.6l0.5-2.5h0.7l-1,4.9H178l-0.7-2.7c-0.1-0.4-0.2-0.7-0.2-1.1h0
			c-0.1,0.4-0.2,0.7-0.2,1.1l-0.6,2.7h-0.9L174.4,194.7z"/>
		<path class="st0" d="M180.4,197.1c0-1.6,0.9-2.5,2.1-2.5c1.2,0,2.1,0.9,2.1,2.5c0,1.6-0.9,2.5-2.1,2.5
			C181.3,199.7,180.4,198.7,180.4,197.1z M183.9,197.1c0-1.1-0.5-1.8-1.3-1.8c-0.8,0-1.3,0.7-1.3,1.8c0,1.1,0.5,1.9,1.3,1.9
			C183.4,199,183.9,198.3,183.9,197.1z"/>
		<path class="st0" d="M185.1,194.7h0.8l0.5,2.5c0.1,0.5,0.2,1,0.3,1.6h0c0.1-0.5,0.2-1,0.3-1.6l0.6-2.5h0.7l0.6,2.5
			c0.1,0.5,0.2,1,0.3,1.6h0c0.1-0.5,0.2-1,0.2-1.6l0.5-2.5h0.7l-1,4.9h-0.9l-0.7-2.7c-0.1-0.4-0.2-0.7-0.2-1.1h0
			c-0.1,0.4-0.2,0.7-0.2,1.1l-0.6,2.7h-0.9L185.1,194.7z"/>
		<path class="st0" d="M127.1,209.2h1.7v0.6h-1.7V209.2z"/>
		<path class="st0" d="M132.3,207.1h-1.4v-0.6h3.6v0.6H133v4.2h-0.8V207.1z"/>
		<path class="st0" d="M134.5,209.5c0-1.2,0.8-1.9,1.7-1.9c0.9,0,1.7,0.7,1.7,1.9c0,1.2-0.8,1.9-1.7,1.9
			C135.3,211.4,134.5,210.7,134.5,209.5z M137.1,209.5c0-0.8-0.4-1.3-0.9-1.3c-0.6,0-0.9,0.5-0.9,1.3c0,0.8,0.4,1.3,0.9,1.3
			C136.7,210.8,137.1,210.3,137.1,209.5z"/>
		<path class="st0" d="M138.8,206.1h0.7v3.4h0l1.4-1.8h0.8l-1.2,1.5l1.4,2.2h-0.8l-1-1.6l-0.6,0.7v0.9h-0.7V206.1z"/>
		<path class="st0" d="M142.1,209.5c0-1.2,0.8-1.9,1.7-1.9c1,0,1.5,0.7,1.5,1.7c0,0.2,0,0.3,0,0.4h-2.4c0.1,0.7,0.5,1.1,1.1,1.1
			c0.3,0,0.6-0.1,0.9-0.3l0.3,0.5c-0.3,0.2-0.8,0.4-1.2,0.4C142.9,211.4,142.1,210.7,142.1,209.5z M144.6,209.2c0-0.6-0.3-1-0.8-1
			c-0.5,0-0.9,0.3-0.9,1H144.6z"/>
		<path class="st0" d="M146.1,207.7h0.6l0.1,0.5h0c0.3-0.3,0.7-0.6,1.2-0.6c0.8,0,1.1,0.5,1.1,1.4v2.3h-0.8v-2.2
			c0-0.6-0.2-0.9-0.6-0.9c-0.3,0-0.6,0.2-0.9,0.5v2.6h-0.8V207.7z"/>
		<path class="st0" d="M152.8,207.1h-1.4v-0.6h3.6v0.6h-1.4v4.2h-0.8V207.1z"/>
		<path class="st0" d="M155.2,212.8l0.1-0.6c0.1,0,0.2,0.1,0.3,0.1c0.4,0,0.6-0.3,0.8-0.7l0.1-0.3l-1.4-3.6h0.8l0.7,1.9
			c0.1,0.3,0.2,0.7,0.3,1h0c0.1-0.3,0.2-0.7,0.3-1l0.6-1.9h0.7l-1.3,3.8c-0.3,0.8-0.7,1.3-1.4,1.3
			C155.5,212.9,155.4,212.8,155.2,212.8z"/>
		<path class="st0" d="M159.1,207.7h0.6l0.1,0.4h0c0.3-0.3,0.7-0.5,1.1-0.5c0.9,0,1.4,0.7,1.4,1.8c0,1.2-0.7,2-1.6,2
			c-0.3,0-0.6-0.1-1-0.4l0,0.6v1.2h-0.8V207.7z M161.6,209.5c0-0.8-0.2-1.2-0.9-1.2c-0.3,0-0.6,0.1-0.9,0.4v1.8
			c0.3,0.2,0.6,0.3,0.8,0.3C161.2,210.8,161.6,210.3,161.6,209.5z"/>
		<path class="st0" d="M163,209.5c0-1.2,0.8-1.9,1.7-1.9c1,0,1.5,0.7,1.5,1.7c0,0.2,0,0.3,0,0.4h-2.4c0.1,0.7,0.5,1.1,1.1,1.1
			c0.3,0,0.6-0.1,0.9-0.3l0.3,0.5c-0.3,0.2-0.8,0.4-1.2,0.4C163.8,211.4,163,210.7,163,209.5z M165.5,209.2c0-0.6-0.3-1-0.8-1
			c-0.5,0-0.9,0.3-0.9,1H165.5z"/>
		<path class="st0" d="M168.4,208.3c0-0.3,0.2-0.5,0.5-0.5c0.3,0,0.5,0.2,0.5,0.5c0,0.3-0.2,0.5-0.5,0.5
			C168.6,208.8,168.4,208.6,168.4,208.3z M168.4,210.9c0-0.3,0.2-0.5,0.5-0.5c0.3,0,0.5,0.2,0.5,0.5c0,0.3-0.2,0.5-0.5,0.5
			C168.6,211.4,168.4,211.2,168.4,210.9z"/>
		<path class="st0" d="M172,206.5h1.5c1,0,1.7,0.3,1.7,1.2c0,0.5-0.3,0.9-0.7,1v0c0.6,0.1,1,0.5,1,1.2c0,1-0.8,1.4-1.9,1.4H172
			V206.5z M173.4,208.5c0.7,0,1-0.3,1-0.7c0-0.5-0.3-0.7-1-0.7h-0.7v1.4H173.4z M173.5,210.8c0.8,0,1.2-0.3,1.2-0.9
			c0-0.5-0.4-0.8-1.2-0.8h-0.8v1.7H173.5z"/>
		<path class="st0" d="M176.4,206.5h0.8l1.6,2.9l0.5,1h0c0-0.5-0.1-1.1-0.1-1.6v-2.3h0.7v4.9h-0.8l-1.6-2.9l-0.5-1h0
			c0,0.5,0.1,1.1,0.1,1.6v2.3h-0.7V206.5z"/>
		<path class="st0" d="M181.3,206.5h1.5c1,0,1.7,0.3,1.7,1.2c0,0.5-0.3,0.9-0.7,1v0c0.6,0.1,1,0.5,1,1.2c0,1-0.8,1.4-1.9,1.4h-1.6
			V206.5z M182.7,208.5c0.7,0,1-0.3,1-0.7c0-0.5-0.3-0.7-1-0.7H182v1.4H182.7z M182.8,210.8c0.8,0,1.2-0.3,1.2-0.9
			c0-0.5-0.4-0.8-1.2-0.8H182v1.7H182.8z"/>
		<path class="st0" d="M92.8,221h1.7v0.6h-1.7V221z"/>
		<path class="st0" d="M97.9,218.9h-1.4v-0.6h3.6v0.6h-1.4v4.2h-0.8V218.9z"/>
		<path class="st0" d="M100.1,221.3c0-1.2,0.8-1.9,1.7-1.9c0.9,0,1.7,0.7,1.7,1.9c0,1.2-0.8,1.9-1.7,1.9
			C100.9,223.2,100.1,222.5,100.1,221.3z M102.8,221.3c0-0.8-0.4-1.3-0.9-1.3c-0.6,0-0.9,0.5-0.9,1.3c0,0.8,0.4,1.3,0.9,1.3
			C102.4,222.6,102.8,222.1,102.8,221.3z"/>
		<path class="st0" d="M104.4,222v-1.8h-0.5v-0.6l0.6,0l0.1-1h0.6v1h0.9v0.6h-0.9v1.8c0,0.4,0.2,0.7,0.5,0.7c0.1,0,0.3,0,0.4-0.1
			l0.1,0.6c-0.2,0.1-0.4,0.1-0.7,0.1C104.7,223.2,104.4,222.7,104.4,222z"/>
		<path class="st0" d="M106.5,222.2c0-0.8,0.7-1.2,2.2-1.3c0-0.4-0.2-0.8-0.7-0.8c-0.4,0-0.7,0.2-1,0.4l-0.3-0.5
			c0.4-0.2,0.9-0.5,1.5-0.5c0.9,0,1.3,0.6,1.3,1.5v2.2h-0.6l-0.1-0.4h0c-0.3,0.3-0.7,0.5-1.2,0.5C107,223.2,106.5,222.8,106.5,222.2
			z M108.7,222.2v-0.9c-1.1,0.1-1.4,0.4-1.4,0.8c0,0.4,0.2,0.5,0.6,0.5C108.1,222.6,108.4,222.5,108.7,222.2z"/>
		<path class="st0" d="M110.5,222.3v-4.4h0.8v4.4c0,0.2,0.1,0.3,0.2,0.3c0,0,0.1,0,0.1,0l0.1,0.6c-0.1,0-0.2,0.1-0.4,0.1
			C110.7,223.2,110.5,222.9,110.5,222.3z"/>
		<path class="st0" d="M114.1,222v-1.8h-0.5v-0.6l0.6,0l0.1-1h0.6v1h0.9v0.6h-0.9v1.8c0,0.4,0.2,0.7,0.5,0.7c0.1,0,0.3,0,0.4-0.1
			l0.1,0.6c-0.2,0.1-0.4,0.1-0.7,0.1C114.4,223.2,114.1,222.7,114.1,222z"/>
		<path class="st0" d="M116.2,221.3c0-1.2,0.8-1.9,1.7-1.9c0.9,0,1.7,0.7,1.7,1.9c0,1.2-0.8,1.9-1.7,1.9
			C117,223.2,116.2,222.5,116.2,221.3z M118.9,221.3c0-0.8-0.4-1.3-0.9-1.3c-0.6,0-0.9,0.5-0.9,1.3c0,0.8,0.4,1.3,0.9,1.3
			C118.5,222.6,118.9,222.1,118.9,221.3z"/>
		<path class="st0" d="M120.5,217.9h0.7v3.4h0l1.4-1.8h0.8l-1.2,1.5l1.4,2.2h-0.8l-1-1.6l-0.6,0.7v0.9h-0.7V217.9z"/>
		<path class="st0" d="M123.9,221.3c0-1.2,0.8-1.9,1.7-1.9c1,0,1.5,0.7,1.5,1.7c0,0.2,0,0.3,0,0.4h-2.4c0.1,0.7,0.5,1.1,1.1,1.1
			c0.3,0,0.6-0.1,0.9-0.3l0.3,0.5c-0.3,0.2-0.8,0.4-1.2,0.4C124.7,223.2,123.9,222.5,123.9,221.3z M126.4,221c0-0.6-0.3-1-0.8-1
			c-0.5,0-0.9,0.3-0.9,1H126.4z"/>
		<path class="st0" d="M127.9,219.5h0.6l0.1,0.5h0c0.3-0.3,0.7-0.6,1.2-0.6c0.8,0,1.1,0.5,1.1,1.4v2.3h-0.8v-2.2
			c0-0.6-0.2-0.9-0.6-0.9c-0.3,0-0.6,0.2-0.9,0.5v2.6h-0.8V219.5z"/>
		<path class="st0" d="M133.4,218.4c0-0.3,0.2-0.4,0.5-0.4c0.3,0,0.5,0.2,0.5,0.4c0,0.3-0.2,0.5-0.5,0.5
			C133.6,218.8,133.4,218.7,133.4,218.4z M133.5,219.5h0.8v3.6h-0.8V219.5z"/>
		<path class="st0" d="M135,222.7l0.4-0.5c0.3,0.3,0.6,0.4,1,0.4c0.4,0,0.6-0.2,0.6-0.5c0-0.3-0.4-0.5-0.8-0.6c-0.5-0.2-1-0.4-1-1.1
			c0-0.6,0.5-1.1,1.3-1.1c0.5,0,0.9,0.2,1.2,0.4l-0.4,0.5c-0.3-0.2-0.5-0.3-0.8-0.3c-0.4,0-0.6,0.2-0.6,0.4c0,0.3,0.4,0.4,0.8,0.6
			c0.5,0.2,1.1,0.4,1.1,1.1c0,0.6-0.5,1.1-1.4,1.1C135.9,223.2,135.4,223,135,222.7z"/>
		<path class="st0" d="M138.2,222.7l0.4-0.5c0.3,0.3,0.6,0.4,1,0.4c0.4,0,0.6-0.2,0.6-0.5c0-0.3-0.4-0.5-0.8-0.6
			c-0.5-0.2-1-0.4-1-1.1c0-0.6,0.5-1.1,1.3-1.1c0.5,0,0.9,0.2,1.2,0.4l-0.4,0.5c-0.3-0.2-0.5-0.3-0.8-0.3c-0.4,0-0.6,0.2-0.6,0.4
			c0,0.3,0.4,0.4,0.8,0.6c0.5,0.2,1.1,0.4,1.1,1.1c0,0.6-0.5,1.1-1.4,1.1C139,223.2,138.5,223,138.2,222.7z"/>
		<path class="st0" d="M141.7,221.8v-2.3h0.8v2.2c0,0.6,0.2,0.9,0.6,0.9c0.3,0,0.6-0.2,0.9-0.5v-2.5h0.8v3.6h-0.6l-0.1-0.5h0
			c-0.3,0.4-0.7,0.6-1.2,0.6C142,223.2,141.7,222.7,141.7,221.8z"/>
		<path class="st0" d="M145.6,221.3c0-1.2,0.8-1.9,1.7-1.9c1,0,1.5,0.7,1.5,1.7c0,0.2,0,0.3,0,0.4h-2.4c0.1,0.7,0.5,1.1,1.1,1.1
			c0.3,0,0.6-0.1,0.9-0.3l0.3,0.5c-0.3,0.2-0.8,0.4-1.2,0.4C146.3,223.2,145.6,222.5,145.6,221.3z M148,221c0-0.6-0.3-1-0.8-1
			c-0.5,0-0.9,0.3-0.9,1H148z"/>
		<path class="st0" d="M150.9,220.1c0-0.3,0.2-0.5,0.5-0.5s0.5,0.2,0.5,0.5c0,0.3-0.2,0.5-0.5,0.5S150.9,220.4,150.9,220.1z
			 M150.9,222.7c0-0.3,0.2-0.5,0.5-0.5s0.5,0.2,0.5,0.5c0,0.3-0.2,0.5-0.5,0.5S150.9,223,150.9,222.7z"/>
		<path class="st0" d="M154.5,222.5h1.1v-3.2h-0.9v-0.5c0.5-0.1,0.8-0.2,1.1-0.4h0.6v4.1h1v0.6h-2.8V222.5z"/>
		<path class="st0" d="M158,220.8c0-1.6,0.6-2.4,1.6-2.4c1,0,1.6,0.9,1.6,2.4c0,1.6-0.6,2.5-1.6,2.5
			C158.6,223.2,158,222.3,158,220.8z M160.4,220.8c0-1.4-0.4-1.8-0.8-1.8c-0.5,0-0.8,0.5-0.8,1.8c0,1.4,0.3,1.9,0.8,1.9
			C160,222.6,160.4,222.1,160.4,220.8z"/>
		<path class="st0" d="M161.8,224c0.5-0.2,0.7-0.5,0.7-0.9c0,0,0,0-0.1,0c-0.3,0-0.5-0.2-0.5-0.5c0-0.3,0.2-0.5,0.5-0.5
			c0.4,0,0.6,0.3,0.6,0.8c0,0.7-0.4,1.2-1.1,1.5L161.8,224z"/>
		<path class="st0" d="M163.7,220.8c0-1.6,0.6-2.4,1.6-2.4c1,0,1.6,0.9,1.6,2.4c0,1.6-0.6,2.5-1.6,2.5
			C164.3,223.2,163.7,222.3,163.7,220.8z M166.1,220.8c0-1.4-0.3-1.8-0.8-1.8c-0.5,0-0.8,0.5-0.8,1.8c0,1.4,0.3,1.9,0.8,1.9
			C165.8,222.6,166.1,222.1,166.1,220.8z"/>
		<path class="st0" d="M167.5,220.8c0-1.6,0.6-2.4,1.6-2.4c1,0,1.6,0.9,1.6,2.4c0,1.6-0.6,2.5-1.6,2.5
			C168.1,223.2,167.5,222.3,167.5,220.8z M169.9,220.8c0-1.4-0.3-1.8-0.8-1.8c-0.5,0-0.8,0.5-0.8,1.8c0,1.4,0.3,1.9,0.8,1.9
			C169.5,222.6,169.9,222.1,169.9,220.8z"/>
		<path class="st0" d="M171.2,220.8c0-1.6,0.6-2.4,1.6-2.4c1,0,1.6,0.9,1.6,2.4c0,1.6-0.6,2.5-1.6,2.5
			C171.8,223.2,171.2,222.3,171.2,220.8z M173.6,220.8c0-1.4-0.4-1.8-0.8-1.8c-0.5,0-0.8,0.5-0.8,1.8c0,1.4,0.3,1.9,0.8,1.9
			C173.3,222.6,173.6,222.1,173.6,220.8z"/>
		<path class="st0" d="M175,224c0.5-0.2,0.7-0.5,0.7-0.9c0,0,0,0-0.1,0c-0.3,0-0.5-0.2-0.5-0.5c0-0.3,0.2-0.5,0.5-0.5
			c0.4,0,0.6,0.3,0.6,0.8c0,0.7-0.4,1.2-1.1,1.5L175,224z"/>
		<path class="st0" d="M177,220.8c0-1.6,0.6-2.4,1.6-2.4c1,0,1.6,0.9,1.6,2.4c0,1.6-0.6,2.5-1.6,2.5
			C177.6,223.2,177,222.3,177,220.8z M179.4,220.8c0-1.4-0.3-1.8-0.8-1.8c-0.5,0-0.8,0.5-0.8,1.8c0,1.4,0.3,1.9,0.8,1.9
			C179,222.6,179.4,222.1,179.4,220.8z"/>
		<path class="st0" d="M180.7,220.8c0-1.6,0.6-2.4,1.6-2.4c1,0,1.6,0.9,1.6,2.4c0,1.6-0.6,2.5-1.6,2.5
			C181.3,223.2,180.7,222.3,180.7,220.8z M183.1,220.8c0-1.4-0.4-1.8-0.8-1.8c-0.5,0-0.8,0.5-0.8,1.8c0,1.4,0.3,1.9,0.8,1.9
			C182.8,222.6,183.1,222.1,183.1,220.8z"/>
		<path class="st0" d="M184.5,220.8c0-1.6,0.6-2.4,1.6-2.4c1,0,1.6,0.9,1.6,2.4c0,1.6-0.6,2.5-1.6,2.5
			C185.1,223.2,184.5,222.3,184.5,220.8z M186.9,220.8c0-1.4-0.3-1.8-0.8-1.8c-0.5,0-0.8,0.5-0.8,1.8c0,1.4,0.3,1.9,0.8,1.9
			C186.5,222.6,186.9,222.1,186.9,220.8z"/>
		<path class="st0" d="M188.3,224c0.5-0.2,0.7-0.5,0.7-0.9c0,0,0,0-0.1,0c-0.3,0-0.5-0.2-0.5-0.5c0-0.3,0.2-0.5,0.5-0.5
			c0.4,0,0.6,0.3,0.6,0.8c0,0.7-0.4,1.2-1.1,1.5L188.3,224z"/>
		<path class="st0" d="M190.2,220.8c0-1.6,0.6-2.4,1.6-2.4c1,0,1.6,0.9,1.6,2.4c0,1.6-0.6,2.5-1.6,2.5
			C190.8,223.2,190.2,222.3,190.2,220.8z M192.6,220.8c0-1.4-0.3-1.8-0.8-1.8c-0.5,0-0.8,0.5-0.8,1.8c0,1.4,0.3,1.9,0.8,1.9
			C192.3,222.6,192.6,222.1,192.6,220.8z"/>
		<path class="st0" d="M194,220.8c0-1.6,0.6-2.4,1.6-2.4c1,0,1.6,0.9,1.6,2.4c0,1.6-0.6,2.5-1.6,2.5
			C194.6,223.2,194,222.3,194,220.8z M196.4,220.8c0-1.4-0.4-1.8-0.8-1.8c-0.5,0-0.8,0.5-0.8,1.8c0,1.4,0.3,1.9,0.8,1.9
			C196,222.6,196.4,222.1,196.4,220.8z"/>
		<path class="st0" d="M197.7,220.8c0-1.6,0.6-2.4,1.6-2.4c1,0,1.6,0.9,1.6,2.4c0,1.6-0.6,2.5-1.6,2.5
			C198.3,223.2,197.7,222.3,197.7,220.8z M200.1,220.8c0-1.4-0.3-1.8-0.8-1.8c-0.5,0-0.8,0.5-0.8,1.8c0,1.4,0.3,1.9,0.8,1.9
			C199.8,222.6,200.1,222.1,200.1,220.8z"/>
		<path class="st0" d="M202.8,218.3h0.8l0.5,2.5c0.1,0.5,0.2,1,0.3,1.6h0c0.1-0.5,0.2-1,0.3-1.6l0.6-2.5h0.7l0.6,2.5
			c0.1,0.5,0.2,1,0.3,1.6h0c0.1-0.5,0.2-1,0.2-1.6l0.5-2.5h0.7l-1,4.9h-0.9l-0.7-2.7c-0.1-0.4-0.2-0.7-0.2-1.1h0
			c-0.1,0.4-0.2,0.7-0.2,1.1l-0.6,2.7h-0.9L202.8,218.3z"/>
		<path class="st0" d="M208.9,220.7c0-1.6,0.9-2.5,2.1-2.5c1.2,0,2.1,0.9,2.1,2.5c0,1.6-0.9,2.5-2.1,2.5
			C209.8,223.2,208.9,222.3,208.9,220.7z M212.3,220.7c0-1.1-0.5-1.8-1.3-1.8c-0.8,0-1.3,0.7-1.3,1.8c0,1.1,0.5,1.9,1.3,1.9
			C211.8,222.6,212.3,221.8,212.3,220.7z"/>
		<path class="st0" d="M213.6,218.3h0.8l0.5,2.5c0.1,0.5,0.2,1,0.3,1.6h0c0.1-0.5,0.2-1,0.3-1.6l0.6-2.5h0.7l0.6,2.5
			c0.1,0.5,0.2,1,0.3,1.6h0c0.1-0.5,0.2-1,0.2-1.6l0.5-2.5h0.7l-1,4.9h-0.9l-0.7-2.7c-0.1-0.4-0.2-0.7-0.2-1.1h0
			c-0.1,0.4-0.2,0.7-0.2,1.1l-0.6,2.7h-0.9L213.6,218.3z"/>
	</g>
</g>
</svg>
