<?xml version="1.0" encoding="utf-8"?>
<!-- Generator: Adobe Illustrator 27.2.0, SVG Export Plug-In . SVG Version: 6.00 Build 0)  -->
<svg version="1.1" id="Layer_1" xmlns="http://www.w3.org/2000/svg" xmlns:xlink="http://www.w3.org/1999/xlink" x="0px" y="0px"
	 viewBox="0 0 308.05 149.54" style="enable-background:new 0 0 308.05 149.54;" xml:space="preserve">
<style type="text/css">
	.st0{fill:url(#SVGID_1_);}
	.st1{fill:url(#SVGID_00000080894164180832424280000015472659972417273762_);}
	.st2{fill:url(#SVGID_00000037664198469129659940000003700926181548973208_);}
	.st3{fill:url(#SVGID_00000029024465177481171430000001969360400232864396_);}
	.st4{fill:url(#SVGID_00000119834517875124177560000010388331742450315426_);}
	.st5{fill:url(#SVGID_00000140736264460938124220000000456184050031429532_);}
	.st6{fill:url(#SVGID_00000060744875564414551250000009455687080370548361_);}
	.st7{fill:url(#SVGID_00000090977740811365359410000010234364691946608785_);}
	.st8{fill:url(#SVGID_00000048460998253107827450000001074156992357837208_);}
	.st9{fill:url(#SVGID_00000051367620605889533840000003333263521345150612_);}
	.st10{fill:url(#SVGID_00000112615261533820909050000010283572318958835383_);}
	.st11{fill:url(#SVGID_00000025440117629478472330000007098303270458008218_);}
	.st12{fill:url(#SVGID_00000037675790355942124560000014580143207473590657_);}
	.st13{fill:#FFFFFF;}
	.st14{fill:url(#SVGID_00000061463545520586917680000013757575810136143276_);}
	.st15{fill:url(#SVGID_00000152969374429263409770000015786146166865040529_);}
	.st16{fill:url(#SVGID_00000000221169679173589110000011611416223684047519_);}
	.st17{opacity:0.08;fill:#FFFFFF;}
	.st18{fill:url(#SVGID_00000177451715480491199640000003304361166319136423_);}
	.st19{fill:url(#SVGID_00000017510645425586086830000003988239670331887517_);}
	.st20{fill:url(#SVGID_00000047031887075062193280000010812691926460936322_);}
	.st21{fill:url(#SVGID_00000111884240387344549610000005561947603106734215_);}
	.st22{fill:url(#SVGID_00000116206844147152017000000014573706030729416095_);}
	.st23{fill:#0B0B0B;}
	.st24{fill:url(#SVGID_00000043453417475695931570000004967610278243732886_);}
	.st25{fill:url(#SVGID_00000182521825482493110610000007336976567416023978_);}
	.st26{fill:url(#SVGID_00000139978261504207562480000014325904339394701246_);}
	.st27{fill:url(#SVGID_00000103244568457281199870000003721165675488893336_);}
	.st28{fill:url(#SVGID_00000088111004493963190730000010969999790073752253_);}
	.st29{fill:#65308F;}
	.st30{fill:#E90E8B;}
</style>
<g>
	<g>
		<g>
			<linearGradient id="SVGID_1_" gradientUnits="userSpaceOnUse" x1="55.6659" y1="37.8948" x2="39.4617" y2="37.8948">
				<stop  offset="0" style="stop-color:#456CB4"/>
				<stop  offset="1" style="stop-color:#9654A1"/>
			</linearGradient>
			<rect x="43.61" y="37.32" class="st0" width="12.06" height="1.16"/>
			<g>
				
					<linearGradient id="SVGID_00000110450812213949763280000004739269783263024575_" gradientUnits="userSpaceOnUse" x1="55.666" y1="37.8948" x2="39.4616" y2="37.8948">
					<stop  offset="0" style="stop-color:#456CB4"/>
					<stop  offset="1" style="stop-color:#9654A1"/>
				</linearGradient>
				<polygon style="fill:url(#SVGID_00000110450812213949763280000004739269783263024575_);" points="44.45,35.01 39.46,37.89 
					44.45,40.78 				"/>
			</g>
		</g>
		
			<linearGradient id="SVGID_00000114063180471829362870000016577648280999048100_" gradientUnits="userSpaceOnUse" x1="1062.0101" y1="37.866" x2="1077.2875" y2="37.866" gradientTransform="matrix(-1 0 0 1 1131.7554 0)">
			<stop  offset="0" style="stop-color:#456CB4"/>
			<stop  offset="1" style="stop-color:#9654A1"/>
		</linearGradient>
		<polygon style="fill:url(#SVGID_00000114063180471829362870000016577648280999048100_);" points="69.75,49.65 54.47,49.65 
			54.47,26.08 68.89,26.08 68.89,27.24 55.62,27.24 55.62,48.49 69.75,48.49 		"/>
	</g>
	<g>
		<g>
			
				<linearGradient id="SVGID_00000122685871092083013650000008436966469395507601_" gradientUnits="userSpaceOnUse" x1="55.6659" y1="80.685" x2="39.4617" y2="80.685">
				<stop  offset="0" style="stop-color:#456CB4"/>
				<stop  offset="1" style="stop-color:#9654A1"/>
			</linearGradient>
			
				<rect x="43.61" y="80.11" style="fill:url(#SVGID_00000122685871092083013650000008436966469395507601_);" width="12.06" height="1.16"/>
			<g>
				
					<linearGradient id="SVGID_00000143604534548509367420000005897699372384243856_" gradientUnits="userSpaceOnUse" x1="55.666" y1="80.6852" x2="39.4616" y2="80.6852">
					<stop  offset="0" style="stop-color:#456CB4"/>
					<stop  offset="1" style="stop-color:#9654A1"/>
				</linearGradient>
				<polygon style="fill:url(#SVGID_00000143604534548509367420000005897699372384243856_);" points="44.45,77.8 39.46,80.68 
					44.45,83.57 				"/>
			</g>
		</g>
		
			<linearGradient id="SVGID_00000094616435123333424540000010080860101807994017_" gradientUnits="userSpaceOnUse" x1="1062.0101" y1="80.6562" x2="1077.2875" y2="80.6562" gradientTransform="matrix(-1 0 0 1 1131.7554 0)">
			<stop  offset="0" style="stop-color:#456CB4"/>
			<stop  offset="1" style="stop-color:#9654A1"/>
		</linearGradient>
		<polygon style="fill:url(#SVGID_00000094616435123333424540000010080860101807994017_);" points="69.75,92.44 54.47,92.44 
			54.47,68.88 68.89,68.88 68.89,70.03 55.62,70.03 55.62,91.28 69.75,91.28 		"/>
	</g>
	<g>
		
			<linearGradient id="SVGID_00000141448470678242670870000010592737206694800284_" gradientUnits="userSpaceOnUse" x1="130.9198" y1="59.264" x2="147.5507" y2="59.264">
			<stop  offset="0" style="stop-color:#456CB4"/>
			<stop  offset="1" style="stop-color:#9654A1"/>
		</linearGradient>
		
			<rect x="130.92" y="58.69" style="fill:url(#SVGID_00000141448470678242670870000010592737206694800284_);" width="12.48" height="1.16"/>
		<g>
			
				<linearGradient id="SVGID_00000156553674175820480980000000251939248900952251_" gradientUnits="userSpaceOnUse" x1="130.9198" y1="59.2641" x2="147.5507" y2="59.2641">
				<stop  offset="0" style="stop-color:#456CB4"/>
				<stop  offset="1" style="stop-color:#9654A1"/>
			</linearGradient>
			<polygon style="fill:url(#SVGID_00000156553674175820480980000000251939248900952251_);" points="142.56,62.15 147.55,59.26 
				142.56,56.38 			"/>
		</g>
	</g>
	<g>
		
			<linearGradient id="SVGID_00000137825552387667094400000006373099332949869752_" gradientUnits="userSpaceOnUse" x1="219.8342" y1="59.264" x2="268.67" y2="59.264">
			<stop  offset="0" style="stop-color:#456CB4"/>
			<stop  offset="1" style="stop-color:#9654A1"/>
		</linearGradient>
		
			<rect x="223.98" y="58.69" style="fill:url(#SVGID_00000137825552387667094400000006373099332949869752_);" width="40.54" height="1.16"/>
		<g>
			
				<linearGradient id="SVGID_00000150788107326915583490000000837220296695467663_" gradientUnits="userSpaceOnUse" x1="219.8343" y1="59.2641" x2="268.6698" y2="59.2641">
				<stop  offset="0" style="stop-color:#456CB4"/>
				<stop  offset="1" style="stop-color:#9654A1"/>
			</linearGradient>
			<polygon style="fill:url(#SVGID_00000150788107326915583490000000837220296695467663_);" points="224.83,62.15 219.83,59.26 
				224.83,56.38 			"/>
		</g>
		<g>
			
				<linearGradient id="SVGID_00000064326867554034789800000018126141754902842249_" gradientUnits="userSpaceOnUse" x1="219.8343" y1="59.2641" x2="268.6698" y2="59.2641">
				<stop  offset="0" style="stop-color:#456CB4"/>
				<stop  offset="1" style="stop-color:#9654A1"/>
			</linearGradient>
			<polygon style="fill:url(#SVGID_00000064326867554034789800000018126141754902842249_);" points="263.68,62.15 268.67,59.26 
				263.68,56.38 			"/>
		</g>
	</g>
	<g>
		
			<linearGradient id="SVGID_00000124162798750194432310000002337801597693975222_" gradientUnits="userSpaceOnUse" x1="232.0351" y1="72.8373" x2="232.0351" y2="118.5389">
			<stop  offset="0" style="stop-color:#456CB4"/>
			<stop  offset="1" style="stop-color:#9654A1"/>
		</linearGradient>
		<polygon style="fill:url(#SVGID_00000124162798750194432310000002337801597693975222_);" points="283.38,118.54 180.69,118.54 
			180.69,102.4 181.84,102.4 181.84,117.38 282.23,117.38 282.23,76.99 283.38,76.99 		"/>
		<g>
			
				<linearGradient id="SVGID_00000119105327133865481680000002147714504129414845_" gradientUnits="userSpaceOnUse" x1="282.8041" y1="72.8372" x2="282.8041" y2="118.539">
				<stop  offset="0" style="stop-color:#456CB4"/>
				<stop  offset="1" style="stop-color:#9654A1"/>
			</linearGradient>
			<polygon style="fill:url(#SVGID_00000119105327133865481680000002147714504129414845_);" points="285.69,77.83 282.8,72.84 
				279.92,77.83 			"/>
		</g>
	</g>
	<g>
		<path class="st13" d="M224.6,110.84h1.42c0.92,0,1.58,0.33,1.58,1.28c0,0.7-0.41,1.12-1.02,1.27l1.16,1.98h-0.65l-1.1-1.92h-0.81
			v1.92h-0.57V110.84z M225.93,112.99c0.71,0,1.1-0.28,1.1-0.87c0-0.6-0.39-0.81-1.1-0.81h-0.76v1.68H225.93z"/>
		<path class="st13" d="M228.15,113.69c0-1.09,0.73-1.76,1.51-1.76c0.85,0,1.33,0.62,1.33,1.57c0,0.12-0.01,0.24-0.02,0.32h-2.26
			c0.04,0.72,0.48,1.17,1.11,1.17c0.33,0,0.59-0.1,0.84-0.27l0.2,0.37c-0.3,0.19-0.65,0.35-1.11,0.35
			C228.87,115.45,228.15,114.8,228.15,113.69z M230.5,113.42c0-0.67-0.31-1.04-0.83-1.04c-0.48,0-0.89,0.38-0.96,1.04H230.5z"/>
		<path class="st13" d="M231.45,112.02h0.57l0.5,1.94c0.07,0.32,0.14,0.62,0.2,0.94h0.03c0.07-0.31,0.14-0.62,0.23-0.94l0.52-1.94
			h0.55l0.52,1.94c0.08,0.32,0.15,0.62,0.23,0.94h0.02c0.07-0.31,0.14-0.62,0.21-0.94l0.49-1.94h0.53l-0.9,3.35h-0.68l-0.49-1.81
			c-0.09-0.31-0.15-0.62-0.23-0.96h-0.03c-0.07,0.34-0.14,0.65-0.23,0.97l-0.47,1.8h-0.66L231.45,112.02z"/>
		<path class="st13" d="M236.52,114.5c0-0.73,0.64-1.09,2.06-1.25c0-0.43-0.14-0.85-0.69-0.85c-0.39,0-0.74,0.18-1.01,0.36
			l-0.22-0.39c0.31-0.2,0.78-0.44,1.32-0.44c0.81,0,1.16,0.55,1.16,1.38v2.06h-0.46l-0.05-0.4h-0.02c-0.32,0.26-0.7,0.48-1.11,0.48
			C236.94,115.45,236.52,115.1,236.52,114.5z M238.58,114.55v-0.94c-1.13,0.14-1.51,0.41-1.51,0.85c0,0.38,0.26,0.54,0.59,0.54
			C237.99,115,238.25,114.84,238.58,114.55z"/>
		<path class="st13" d="M240.21,112.02h0.46l0.05,0.61h0.02c0.23-0.43,0.57-0.7,0.95-0.7c0.15,0,0.25,0.02,0.36,0.07l-0.11,0.49
			c-0.11-0.04-0.19-0.06-0.33-0.06c-0.28,0-0.62,0.2-0.85,0.77v2.15h-0.56V112.02z"/>
		<path class="st13" d="M242.29,113.69c0-1.09,0.68-1.76,1.45-1.76c0.39,0,0.65,0.15,0.94,0.39l-0.02-0.58v-1.29h0.56v4.91h-0.46
			l-0.05-0.39h-0.02c-0.27,0.26-0.62,0.48-1.02,0.48C242.84,115.45,242.29,114.81,242.29,113.69z M244.66,114.52v-1.76
			c-0.29-0.25-0.54-0.35-0.82-0.35c-0.54,0-0.97,0.52-0.97,1.28c0,0.81,0.33,1.29,0.93,1.29
			C244.11,114.98,244.38,114.82,244.66,114.52z"/>
	</g>
	<g>
		<path class="st13" d="M228.92,44.1h0.52l0.64,2.15c0.14,0.46,0.23,0.84,0.38,1.31h0.02c0.15-0.46,0.24-0.84,0.38-1.31l0.64-2.15
			h0.51l-1.26,3.96h-0.58L228.92,44.1z"/>
		<path class="st13" d="M232.21,46.6c0-0.95,0.64-1.54,1.32-1.54c0.74,0,1.17,0.54,1.17,1.38c0,0.11-0.01,0.21-0.02,0.28h-1.98
			c0.03,0.63,0.42,1.03,0.97,1.03c0.29,0,0.52-0.09,0.73-0.23l0.18,0.32c-0.26,0.17-0.57,0.3-0.97,0.3
			C232.83,48.13,232.21,47.56,232.21,46.6z M234.26,46.35c0-0.59-0.27-0.91-0.73-0.91c-0.42,0-0.78,0.33-0.84,0.91H234.26z"/>
		<path class="st13" d="M235.42,45.13h0.41l0.04,0.53h0.02c0.21-0.37,0.5-0.61,0.83-0.61c0.13,0,0.22,0.02,0.31,0.06l-0.09,0.43
			c-0.1-0.04-0.17-0.05-0.29-0.05c-0.24,0-0.55,0.17-0.74,0.67v1.88h-0.49V45.13z"/>
		<path class="st13" d="M237.43,44.19c0-0.19,0.13-0.32,0.33-0.32c0.19,0,0.33,0.13,0.33,0.32c0,0.2-0.14,0.33-0.33,0.33
			C237.56,44.52,237.43,44.39,237.43,44.19z M237.51,45.13H238v2.93h-0.49V45.13z"/>
		<path class="st13" d="M239.07,45.53h-0.4v-0.37l0.4-0.03v-0.47c0-0.59,0.27-0.97,0.85-0.97c0.18,0,0.36,0.04,0.49,0.1l-0.11,0.37
			c-0.11-0.05-0.23-0.08-0.33-0.08c-0.28,0-0.42,0.2-0.42,0.58v0.46h0.62v0.4h-0.62v2.53h-0.49V45.53z M240.67,44.19
			c0-0.19,0.14-0.32,0.32-0.32c0.19,0,0.33,0.13,0.33,0.32c0,0.2-0.14,0.33-0.33,0.33C240.81,44.52,240.67,44.39,240.67,44.19z
			 M240.75,45.13h0.5v2.93h-0.5V45.13z"/>
		<path class="st13" d="M242.01,46.6c0-0.98,0.66-1.54,1.41-1.54c0.38,0,0.65,0.16,0.86,0.35l-0.25,0.32
			c-0.17-0.15-0.35-0.26-0.58-0.26c-0.53,0-0.92,0.46-0.92,1.13c0,0.67,0.37,1.12,0.91,1.12c0.27,0,0.51-0.12,0.69-0.29l0.22,0.33
			c-0.26,0.24-0.6,0.37-0.95,0.37C242.61,48.13,242.01,47.57,242.01,46.6z"/>
		<path class="st13" d="M244.74,47.3c0-0.64,0.56-0.96,1.8-1.1c0-0.38-0.12-0.74-0.6-0.74c-0.34,0-0.65,0.16-0.88,0.31l-0.19-0.34
			c0.27-0.17,0.69-0.38,1.16-0.38c0.71,0,1.01,0.48,1.01,1.2v1.8h-0.41l-0.04-0.35h-0.02c-0.28,0.23-0.61,0.42-0.97,0.42
			C245.1,48.13,244.74,47.83,244.74,47.3z M246.54,47.35v-0.82c-0.99,0.12-1.32,0.36-1.32,0.74c0,0.34,0.23,0.47,0.52,0.47
			C246.02,47.74,246.25,47.6,246.54,47.35z"/>
		<path class="st13" d="M247.97,47.15v-1.63h-0.44v-0.37l0.46-0.03l0.06-0.83h0.41v0.83h0.79v0.4h-0.79v1.64
			c0,0.36,0.11,0.57,0.45,0.57c0.1,0,0.24-0.04,0.33-0.08l0.1,0.37c-0.17,0.05-0.36,0.11-0.54,0.11
			C248.18,48.13,247.97,47.74,247.97,47.15z"/>
		<path class="st13" d="M249.83,44.19c0-0.19,0.13-0.32,0.33-0.32c0.19,0,0.33,0.13,0.33,0.32c0,0.2-0.14,0.33-0.33,0.33
			C249.97,44.52,249.83,44.39,249.83,44.19z M249.92,45.13h0.49v2.93h-0.49V45.13z"/>
		<path class="st13" d="M251.18,46.6c0-0.98,0.64-1.54,1.36-1.54s1.36,0.57,1.36,1.54c0,0.97-0.64,1.53-1.36,1.53
			S251.18,47.57,251.18,46.6z M253.39,46.6c0-0.67-0.35-1.13-0.85-1.13s-0.85,0.46-0.85,1.13c0,0.67,0.34,1.12,0.85,1.12
			S253.39,47.27,253.39,46.6z"/>
		<path class="st13" d="M254.67,45.13h0.41l0.04,0.42h0.02c0.28-0.28,0.58-0.5,0.98-0.5c0.62,0,0.9,0.4,0.9,1.15v1.86h-0.49v-1.79
			c0-0.55-0.17-0.78-0.56-0.78c-0.3,0-0.51,0.15-0.8,0.45v2.13h-0.49V45.13z"/>
		<path class="st13" d="M259.15,43.77h0.36l-1.61,5.25h-0.36L259.15,43.77z"/>
		<path class="st13" d="M228.62,50.57h1.13c0.89,0,1.48,0.3,1.48,1.17c0,0.84-0.59,1.23-1.46,1.23h-0.65v1.57h-0.5V50.57z
			 M229.71,52.56c0.7,0,1.03-0.25,1.03-0.82c0-0.57-0.35-0.76-1.05-0.76h-0.57v1.58H229.71z"/>
		<path class="st13" d="M231.54,53.77c0-0.64,0.56-0.96,1.8-1.1c0-0.38-0.12-0.74-0.6-0.74c-0.34,0-0.65,0.16-0.88,0.31l-0.19-0.34
			c0.27-0.17,0.69-0.38,1.16-0.38c0.71,0,1.01,0.48,1.01,1.2v1.8h-0.41l-0.04-0.35h-0.02c-0.28,0.23-0.61,0.42-0.97,0.42
			C231.91,54.61,231.54,54.3,231.54,53.77z M233.35,53.82V53c-0.99,0.12-1.32,0.36-1.32,0.74c0,0.34,0.23,0.47,0.52,0.47
			C232.83,54.21,233.06,54.08,233.35,53.82z"/>
		<path class="st13" d="M234.77,51.6h0.41l0.04,0.53h0.02c0.21-0.37,0.5-0.61,0.83-0.61c0.13,0,0.22,0.02,0.31,0.06l-0.09,0.43
			c-0.1-0.04-0.17-0.05-0.29-0.05c-0.24,0-0.55,0.17-0.74,0.67v1.88h-0.49V51.6z"/>
		<path class="st13" d="M236.95,53.63V52h-0.44v-0.37l0.46-0.03l0.06-0.83h0.41v0.83h0.79V52h-0.79v1.64c0,0.36,0.11,0.57,0.45,0.57
			c0.1,0,0.24-0.04,0.33-0.08l0.1,0.37c-0.17,0.05-0.36,0.11-0.54,0.11C237.16,54.61,236.95,54.21,236.95,53.63z"/>
		<path class="st13" d="M238.82,50.67c0-0.19,0.14-0.32,0.33-0.32c0.19,0,0.33,0.13,0.33,0.32c0,0.2-0.13,0.33-0.33,0.33
			C238.95,51,238.82,50.87,238.82,50.67z M238.9,51.6h0.49v2.93h-0.49V51.6z"/>
		<path class="st13" d="M240.16,53.07c0-0.98,0.66-1.54,1.41-1.54c0.38,0,0.65,0.16,0.86,0.35l-0.25,0.32
			c-0.17-0.15-0.35-0.26-0.58-0.26c-0.53,0-0.92,0.46-0.92,1.13c0,0.67,0.37,1.12,0.91,1.12c0.27,0,0.51-0.12,0.69-0.29l0.22,0.33
			c-0.26,0.24-0.6,0.37-0.95,0.37C240.76,54.61,240.16,54.04,240.16,53.07z"/>
		<path class="st13" d="M243.05,50.67c0-0.19,0.14-0.32,0.33-0.32c0.19,0,0.33,0.13,0.33,0.32c0,0.2-0.13,0.33-0.33,0.33
			C243.18,51,243.05,50.87,243.05,50.67z M243.13,51.6h0.49v2.93h-0.49V51.6z"/>
		<path class="st13" d="M244.61,51.6h0.41l0.04,0.34h0.02c0.26-0.22,0.59-0.41,0.93-0.41c0.76,0,1.17,0.59,1.17,1.5
			c0,1-0.6,1.58-1.27,1.58c-0.26,0-0.55-0.12-0.81-0.34l0.01,0.51v0.99h-0.49V51.6z M246.67,53.03c0-0.65-0.22-1.09-0.77-1.09
			c-0.25,0-0.5,0.14-0.79,0.41v1.54c0.26,0.23,0.52,0.31,0.72,0.31C246.31,54.2,246.67,53.76,246.67,53.03z"/>
		<path class="st13" d="M247.69,53.77c0-0.64,0.56-0.96,1.8-1.1c0-0.38-0.12-0.74-0.6-0.74c-0.34,0-0.65,0.16-0.88,0.31l-0.19-0.34
			c0.27-0.17,0.69-0.38,1.16-0.38c0.71,0,1.01,0.48,1.01,1.2v1.8h-0.41l-0.04-0.35h-0.02c-0.28,0.23-0.61,0.42-0.97,0.42
			C248.06,54.61,247.69,54.3,247.69,53.77z M249.49,53.82V53c-0.99,0.12-1.32,0.36-1.32,0.74c0,0.34,0.23,0.47,0.52,0.47
			C248.97,54.21,249.21,54.08,249.49,53.82z"/>
		<path class="st13" d="M250.92,53.63V52h-0.44v-0.37l0.46-0.03l0.06-0.83h0.41v0.83h0.79V52h-0.79v1.64c0,0.36,0.11,0.57,0.45,0.57
			c0.1,0,0.24-0.04,0.33-0.08l0.1,0.37c-0.17,0.05-0.36,0.11-0.54,0.11C251.13,54.61,250.92,54.21,250.92,53.63z"/>
		<path class="st13" d="M252.79,50.67c0-0.19,0.13-0.32,0.33-0.32c0.19,0,0.33,0.13,0.33,0.32c0,0.2-0.14,0.33-0.33,0.33
			C252.92,51,252.79,50.87,252.79,50.67z M252.87,51.6h0.49v2.93h-0.49V51.6z"/>
		<path class="st13" d="M254.13,53.07c0-0.98,0.64-1.54,1.36-1.54s1.36,0.57,1.36,1.54c0,0.97-0.64,1.53-1.36,1.53
			S254.13,54.04,254.13,53.07z M256.35,53.07c0-0.67-0.35-1.13-0.85-1.13c-0.51,0-0.85,0.46-0.85,1.13c0,0.67,0.34,1.12,0.85,1.12
			C256,54.2,256.35,53.75,256.35,53.07z"/>
		<path class="st13" d="M257.62,51.6h0.41l0.04,0.42h0.02c0.28-0.28,0.58-0.5,0.98-0.5c0.62,0,0.9,0.4,0.9,1.15v1.86h-0.49v-1.79
			c0-0.55-0.17-0.78-0.56-0.78c-0.3,0-0.51,0.15-0.8,0.45v2.13h-0.49V51.6z"/>
	</g>
	<g>
		<path class="st13" d="M233.71,64.12h1.18c0.8,0,1.36,0.28,1.36,0.97c0,0.39-0.21,0.74-0.58,0.86v0.03c0.47,0.09,0.8,0.41,0.8,0.94
			c0,0.78-0.62,1.16-1.5,1.16h-1.26V64.12z M234.8,65.81c0.68,0,0.96-0.25,0.96-0.65c0-0.46-0.32-0.64-0.93-0.64h-0.61v1.29H234.8z
			 M234.91,67.68c0.68,0,1.08-0.24,1.08-0.78c0-0.49-0.39-0.72-1.08-0.72h-0.69v1.5H234.91z"/>
		<path class="st13" d="M237.18,67.01v-1.86h0.49v1.8c0,0.55,0.16,0.78,0.55,0.78c0.3,0,0.51-0.15,0.79-0.5v-2.08h0.49v2.93h-0.41
			l-0.04-0.46h-0.02c-0.28,0.32-0.57,0.53-0.97,0.53C237.45,68.15,237.18,67.75,237.18,67.01z"/>
		<path class="st13" d="M240.19,69.29l0.1-0.39c0.06,0.02,0.15,0.05,0.22,0.05c0.33,0,0.55-0.27,0.66-0.63l0.06-0.22l-1.18-2.94
			h0.51l0.6,1.63c0.09,0.25,0.19,0.56,0.28,0.82h0.03c0.08-0.26,0.17-0.56,0.25-0.82l0.52-1.63h0.48l-1.11,3.17
			c-0.2,0.58-0.51,1.02-1.09,1.02C240.4,69.35,240.29,69.32,240.19,69.29z"/>
		<path class="st13" d="M244.4,63.8h0.36l-1.61,5.25h-0.36L244.4,63.8z"/>
		<path class="st13" d="M246.3,67.56l0.3-0.34c0.28,0.3,0.68,0.49,1.09,0.49c0.52,0,0.83-0.26,0.83-0.65c0-0.4-0.29-0.53-0.66-0.7
			l-0.57-0.25c-0.37-0.16-0.8-0.44-0.8-1.02c0-0.61,0.53-1.05,1.25-1.05c0.47,0,0.89,0.2,1.17,0.49l-0.26,0.32
			c-0.24-0.23-0.53-0.37-0.9-0.37c-0.45,0-0.74,0.23-0.74,0.58c0,0.38,0.35,0.53,0.65,0.66l0.57,0.24c0.46,0.2,0.82,0.47,0.82,1.06
			c0,0.63-0.52,1.12-1.34,1.12C247.12,68.15,246.64,67.93,246.3,67.56z"/>
		<path class="st13" d="M249.54,66.62c0-0.95,0.64-1.54,1.32-1.54c0.75,0,1.17,0.54,1.17,1.38c0,0.11-0.01,0.21-0.02,0.28h-1.98
			c0.03,0.63,0.42,1.03,0.97,1.03c0.29,0,0.52-0.09,0.73-0.23l0.18,0.32c-0.26,0.17-0.57,0.3-0.97,0.3
			C250.17,68.15,249.54,67.59,249.54,66.62z M251.6,66.38c0-0.59-0.27-0.91-0.73-0.91c-0.42,0-0.78,0.33-0.84,0.91H251.6z"/>
		<path class="st13" d="M252.75,67.5v-3.71h0.49v3.75c0,0.15,0.06,0.21,0.14,0.21c0.03,0,0.05,0,0.1-0.01l0.07,0.38
			c-0.07,0.03-0.15,0.04-0.29,0.04C252.9,68.15,252.75,67.92,252.75,67.5z"/>
		<path class="st13" d="M254.29,67.5v-3.71h0.49v3.75c0,0.15,0.06,0.21,0.14,0.21c0.03,0,0.05,0,0.1-0.01l0.07,0.38
			c-0.07,0.03-0.15,0.04-0.29,0.04C254.44,68.15,254.29,67.92,254.29,67.5z"/>
	</g>
	
		<linearGradient id="SVGID_00000113318916100749469730000010683806055500541586_" gradientUnits="userSpaceOnUse" x1="148.2949" y1="59.0635" x2="219.7785" y2="59.0635">
		<stop  offset="0" style="stop-color:#456CB4"/>
		<stop  offset="1" style="stop-color:#9654A1"/>
	</linearGradient>
	<path style="fill:url(#SVGID_00000113318916100749469730000010683806055500541586_);" d="M202.69,102.03h-37.31
		c-9.42,0-17.09-7.66-17.09-17.09V33.18c0-9.42,7.66-17.09,17.09-17.09h37.31c9.42,0,17.09,7.66,17.09,17.09v51.76
		C219.78,94.37,212.11,102.03,202.69,102.03z M165.38,17.25c-8.78,0-15.93,7.15-15.93,15.93v51.76c0,8.78,7.15,15.93,15.93,15.93
		h37.31c8.78,0,15.93-7.15,15.93-15.93V33.18c0-8.78-7.15-15.93-15.93-15.93H165.38z"/>
	
		<linearGradient id="SVGID_00000123439313608230151410000016333605162440598205_" gradientUnits="userSpaceOnUse" x1="65.6767" y1="37.427" x2="120.4691" y2="37.427">
		<stop  offset="0" style="stop-color:#456CB4"/>
		<stop  offset="1" style="stop-color:#9654A1"/>
	</linearGradient>
	<path style="fill:url(#SVGID_00000123439313608230151410000016333605162440598205_);" d="M109.36,59.54
		c-0.21,0-0.39-0.17-0.39-0.39s0.17-0.39,0.39-0.39h1.91c0.21,0,0.4,0.17,0.4,0.39c0,0.21-0.15,0.39-0.37,0.39v-0.39l-0.03,0.39
		H109.36z M107.44,59.54h-1.91c-0.21,0-0.39-0.17-0.39-0.39s0.17-0.39,0.39-0.39h1.91c0.21,0,0.39,0.17,0.39,0.39
		S107.66,59.54,107.44,59.54z M103.62,59.54h-1.91c-0.21,0-0.39-0.17-0.39-0.39s0.17-0.39,0.39-0.39h1.91
		c0.21,0,0.39,0.17,0.39,0.39S103.83,59.54,103.62,59.54z M99.79,59.54h-1.91c-0.21,0-0.39-0.17-0.39-0.39s0.17-0.39,0.39-0.39h1.91
		c0.21,0,0.39,0.17,0.39,0.39S100,59.54,99.79,59.54z M95.97,59.54h-1.91c-0.21,0-0.39-0.17-0.39-0.39s0.17-0.39,0.39-0.39h1.91
		c0.21,0,0.39,0.17,0.39,0.39S96.18,59.54,95.97,59.54z M92.14,59.54h-1.91c-0.21,0-0.39-0.17-0.39-0.39s0.17-0.39,0.39-0.39h1.91
		c0.21,0,0.39,0.17,0.39,0.39S92.35,59.54,92.14,59.54z M88.31,59.54H86.4c-0.21,0-0.39-0.17-0.39-0.39s0.17-0.39,0.39-0.39h1.91
		c0.21,0,0.39,0.17,0.39,0.39S88.53,59.54,88.31,59.54z M84.49,59.54h-1.91c-0.21,0-0.39-0.17-0.39-0.39s0.17-0.39,0.39-0.39h1.91
		c0.21,0,0.39,0.17,0.39,0.39S84.7,59.54,84.49,59.54z M80.66,59.54h-1.91c-0.21,0-0.39-0.17-0.39-0.39s0.17-0.39,0.39-0.39h1.91
		c0.21,0,0.39,0.17,0.39,0.39S80.88,59.54,80.66,59.54z M76.84,59.54h-1.91c-0.21,0-0.39-0.17-0.39-0.39s0.17-0.39,0.39-0.39h1.91
		c0.21,0,0.39,0.17,0.39,0.39S77.05,59.54,76.84,59.54z M73.03,59.34c-0.03,0-0.05,0-0.08-0.01c-0.65-0.14-1.29-0.35-1.89-0.63
		c-0.19-0.09-0.28-0.32-0.19-0.51c0.09-0.19,0.32-0.28,0.51-0.19c0.55,0.25,1.14,0.45,1.73,0.57c0.21,0.04,0.34,0.25,0.3,0.46
		C73.37,59.22,73.21,59.34,73.03,59.34z M113.2,59.33c-0.18,0-0.34-0.12-0.38-0.3c-0.05-0.21,0.08-0.41,0.29-0.46
		c0.59-0.13,1.18-0.33,1.73-0.59c0.19-0.09,0.42-0.01,0.51,0.19c0.09,0.19,0.01,0.42-0.19,0.51c-0.6,0.28-1.24,0.5-1.89,0.64
		C113.26,59.32,113.23,59.33,113.2,59.33z M69.57,57.77c-0.08,0-0.16-0.03-0.23-0.08c-0.53-0.4-1.02-0.86-1.45-1.36
		c-0.14-0.16-0.12-0.41,0.04-0.54c0.16-0.14,0.4-0.12,0.54,0.04c0.4,0.46,0.84,0.88,1.33,1.25c0.17,0.13,0.2,0.37,0.08,0.54
		C69.81,57.71,69.69,57.77,69.57,57.77z M116.64,57.72c-0.12,0-0.23-0.05-0.31-0.15c-0.13-0.17-0.1-0.41,0.07-0.54
		c0.48-0.37,0.93-0.8,1.32-1.26c0.14-0.16,0.38-0.18,0.54-0.05c0.16,0.14,0.18,0.38,0.05,0.54c-0.43,0.51-0.91,0.97-1.44,1.38
		C116.8,57.69,116.72,57.72,116.64,57.72z M67.11,54.89c-0.14,0-0.27-0.07-0.34-0.2c-0.31-0.59-0.57-1.21-0.75-1.85
		c-0.06-0.2,0.06-0.42,0.27-0.48c0.21-0.06,0.42,0.06,0.48,0.27c0.16,0.59,0.39,1.15,0.68,1.69c0.1,0.19,0.03,0.42-0.16,0.52
		C67.23,54.87,67.17,54.89,67.11,54.89z M119.08,54.81c-0.06,0-0.12-0.01-0.18-0.04c-0.19-0.1-0.26-0.33-0.16-0.52
		c0.28-0.54,0.51-1.11,0.67-1.7c0.06-0.21,0.27-0.33,0.47-0.27c0.21,0.06,0.33,0.27,0.27,0.47c-0.17,0.64-0.42,1.27-0.73,1.86
		C119.35,54.74,119.22,54.81,119.08,54.81z M66.08,51.23c-0.2,0-0.37-0.16-0.38-0.36c-0.01-0.18-0.02-0.35-0.02-0.53v-1.4
		c0-0.21,0.17-0.39,0.39-0.39s0.39,0.17,0.39,0.39v1.4c0,0.16,0,0.33,0.01,0.49c0.01,0.21-0.15,0.39-0.36,0.41
		C66.09,51.23,66.08,51.23,66.08,51.23z M120.07,51.15c-0.01,0-0.01,0-0.02,0c-0.21-0.01-0.38-0.19-0.37-0.4
		c0.01-0.14,0.01-0.27,0.01-0.41v-1.49c0-0.21,0.17-0.39,0.39-0.39s0.39,0.17,0.39,0.39v1.49c0,0.15,0,0.3-0.01,0.45
		C120.45,50.99,120.28,51.15,120.07,51.15z M66.06,47.41c-0.21,0-0.39-0.17-0.39-0.39v-1.91c0-0.21,0.17-0.39,0.39-0.39
		s0.39,0.17,0.39,0.39v1.91C66.45,47.24,66.28,47.41,66.06,47.41z M120.08,47.33c-0.21,0-0.39-0.17-0.39-0.39v-1.91
		c0-0.21,0.17-0.39,0.39-0.39s0.39,0.17,0.39,0.39v1.91C120.47,47.15,120.3,47.33,120.08,47.33z M66.06,43.58
		c-0.21,0-0.39-0.17-0.39-0.39v-1.91c0-0.21,0.17-0.39,0.39-0.39s0.39,0.17,0.39,0.39v1.91C66.45,43.41,66.28,43.58,66.06,43.58z
		 M120.08,43.5c-0.21,0-0.39-0.17-0.39-0.39V41.2c0-0.21,0.17-0.39,0.39-0.39s0.39,0.17,0.39,0.39v1.91
		C120.47,43.33,120.3,43.5,120.08,43.5z M66.06,39.76c-0.21,0-0.39-0.17-0.39-0.39v-1.91c0-0.21,0.17-0.39,0.39-0.39
		s0.39,0.17,0.39,0.39v1.91C66.45,39.59,66.28,39.76,66.06,39.76z M120.08,39.67c-0.21,0-0.39-0.17-0.39-0.39v-1.91
		c0-0.21,0.17-0.39,0.39-0.39s0.39,0.17,0.39,0.39v1.91C120.47,39.5,120.3,39.67,120.08,39.67z M66.06,35.93
		c-0.21,0-0.39-0.17-0.39-0.39v-1.91c0-0.21,0.17-0.39,0.39-0.39s0.39,0.17,0.39,0.39v1.91C66.45,35.76,66.28,35.93,66.06,35.93z
		 M120.08,35.85c-0.21,0-0.39-0.17-0.39-0.39v-1.91c0-0.21,0.17-0.39,0.39-0.39s0.39,0.17,0.39,0.39v1.91
		C120.47,35.68,120.3,35.85,120.08,35.85z M66.06,32.11c-0.21,0-0.39-0.17-0.39-0.39v-1.91c0-0.21,0.17-0.39,0.39-0.39
		s0.39,0.17,0.39,0.39v1.91C66.45,31.93,66.28,32.11,66.06,32.11z M120.08,32.02c-0.21,0-0.39-0.17-0.39-0.39v-1.91
		c0-0.21,0.17-0.39,0.39-0.39s0.39,0.17,0.39,0.39v1.91C120.47,31.85,120.3,32.02,120.08,32.02z M66.06,28.28
		c-0.21,0-0.39-0.17-0.39-0.39v-1.91c0-0.21,0.17-0.39,0.39-0.39s0.39,0.17,0.39,0.39v1.91C66.45,28.11,66.28,28.28,66.06,28.28z
		 M120.08,28.2c-0.21,0-0.39-0.17-0.39-0.39V25.9c0-0.21,0.17-0.39,0.39-0.39s0.39,0.17,0.39,0.39v1.91
		C120.47,28.03,120.3,28.2,120.08,28.2z M66.07,24.46c-0.01,0-0.01,0-0.02,0c-0.21-0.01-0.38-0.19-0.37-0.4
		c0.03-0.67,0.14-1.33,0.31-1.97c0.06-0.21,0.27-0.33,0.47-0.27c0.21,0.06,0.33,0.27,0.27,0.47c-0.16,0.59-0.26,1.19-0.29,1.8
		C66.45,24.3,66.28,24.46,66.07,24.46z M120.07,24.37c-0.2,0-0.37-0.16-0.38-0.36c-0.04-0.61-0.14-1.22-0.3-1.8
		c-0.06-0.2,0.06-0.42,0.27-0.48c0.21-0.06,0.42,0.06,0.48,0.27c0.18,0.64,0.29,1.3,0.33,1.96c0.01,0.21-0.15,0.4-0.36,0.41
		C120.08,24.37,120.08,24.37,120.07,24.37z M67.07,20.8c-0.06,0-0.12-0.01-0.18-0.04c-0.19-0.1-0.26-0.33-0.16-0.52
		c0.31-0.59,0.68-1.14,1.11-1.65c0.14-0.16,0.38-0.18,0.54-0.05c0.16,0.14,0.18,0.38,0.05,0.54c-0.39,0.47-0.74,0.98-1.02,1.51
		C67.35,20.72,67.21,20.8,67.07,20.8z M119.03,20.72c-0.14,0-0.27-0.07-0.34-0.2c-0.29-0.53-0.64-1.04-1.04-1.5
		c-0.14-0.16-0.12-0.4,0.04-0.54c0.16-0.14,0.4-0.12,0.54,0.04c0.43,0.5,0.81,1.06,1.13,1.64c0.1,0.19,0.03,0.42-0.16,0.52
		C119.16,20.71,119.09,20.72,119.03,20.72z M69.52,17.9c-0.12,0-0.23-0.05-0.31-0.15c-0.13-0.17-0.1-0.41,0.07-0.54
		c0.53-0.4,1.1-0.75,1.7-1.03c0.19-0.09,0.42-0.01,0.51,0.19c0.09,0.19,0.01,0.42-0.19,0.51c-0.55,0.26-1.08,0.58-1.56,0.95
		C69.69,17.87,69.61,17.9,69.52,17.9z M116.56,17.85c-0.08,0-0.16-0.03-0.23-0.08c-0.49-0.37-1.02-0.68-1.57-0.93
		c-0.19-0.09-0.28-0.32-0.19-0.51c0.09-0.19,0.32-0.28,0.51-0.19c0.6,0.28,1.18,0.62,1.71,1.02c0.17,0.13,0.2,0.37,0.08,0.54
		C116.79,17.79,116.67,17.85,116.56,17.85z M72.96,16.29c-0.18,0-0.34-0.12-0.38-0.3c-0.05-0.21,0.09-0.41,0.29-0.46
		c0.65-0.14,1.31-0.22,1.98-0.22c0,0,0,0,0,0c0.21,0,0.39,0.17,0.39,0.38c0,0.21-0.17,0.39-0.38,0.39c-0.61,0-1.22,0.07-1.81,0.2
		C73.02,16.29,72.99,16.29,72.96,16.29z M113.1,16.28c-0.03,0-0.05,0-0.08-0.01c-0.57-0.12-1.16-0.18-1.75-0.18h-0.07
		c-0.21,0-0.39-0.17-0.39-0.39s0.17-0.39,0.39-0.39h0.07c0.64,0,1.29,0.07,1.91,0.2c0.21,0.04,0.34,0.25,0.3,0.46
		C113.44,16.15,113.28,16.28,113.1,16.28z M109.29,16.09h-1.91c-0.21,0-0.39-0.17-0.39-0.39s0.17-0.39,0.39-0.39h1.91
		c0.21,0,0.39,0.17,0.39,0.39S109.5,16.09,109.29,16.09z M105.46,16.09h-1.91c-0.21,0-0.39-0.17-0.39-0.39s0.17-0.39,0.39-0.39h1.91
		c0.21,0,0.39,0.17,0.39,0.39S105.68,16.09,105.46,16.09z M101.64,16.09h-1.91c-0.21,0-0.39-0.17-0.39-0.39s0.17-0.39,0.39-0.39
		h1.91c0.21,0,0.39,0.17,0.39,0.39S101.85,16.09,101.64,16.09z M97.81,16.09H95.9c-0.21,0-0.39-0.17-0.39-0.39s0.17-0.39,0.39-0.39
		h1.91c0.21,0,0.39,0.17,0.39,0.39S98.03,16.09,97.81,16.09z M93.99,16.09h-1.91c-0.21,0-0.39-0.17-0.39-0.39s0.17-0.39,0.39-0.39
		h1.91c0.21,0,0.39,0.17,0.39,0.39S94.2,16.09,93.99,16.09z M90.16,16.09h-1.91c-0.21,0-0.39-0.17-0.39-0.39s0.17-0.39,0.39-0.39
		h1.91c0.21,0,0.39,0.17,0.39,0.39S90.37,16.09,90.16,16.09z M86.34,16.09h-1.91c-0.21,0-0.39-0.17-0.39-0.39s0.17-0.39,0.39-0.39
		h1.91c0.21,0,0.39,0.17,0.39,0.39S86.55,16.09,86.34,16.09z M82.51,16.09H80.6c-0.21,0-0.39-0.17-0.39-0.39s0.17-0.39,0.39-0.39
		h1.91c0.21,0,0.39,0.17,0.39,0.39S82.72,16.09,82.51,16.09z M78.69,16.09h-1.91c-0.21,0-0.39-0.17-0.39-0.39s0.17-0.39,0.39-0.39
		h1.91c0.21,0,0.39,0.17,0.39,0.39S78.9,16.09,78.69,16.09z"/>
	
		<linearGradient id="SVGID_00000036945488742214415820000013552079992103714698_" gradientUnits="userSpaceOnUse" x1="65.6767" y1="69.1665" x2="120.4691" y2="69.1665">
		<stop  offset="0" style="stop-color:#456CB4"/>
		<stop  offset="1" style="stop-color:#9654A1"/>
	</linearGradient>
	<path style="fill:url(#SVGID_00000036945488742214415820000013552079992103714698_);" d="M111.3,101.04h-1.96
		c-0.21,0-0.39-0.17-0.39-0.39s0.17-0.39,0.39-0.39h1.92c0.21,0,0.4,0.17,0.4,0.39S111.52,101.04,111.3,101.04z M107.43,101.04
		h-1.92c-0.21,0-0.39-0.17-0.39-0.39s0.17-0.39,0.39-0.39h1.92c0.21,0,0.39,0.17,0.39,0.39S107.64,101.04,107.43,101.04z
		 M103.59,101.04h-1.92c-0.21,0-0.39-0.17-0.39-0.39s0.17-0.39,0.39-0.39h1.92c0.21,0,0.39,0.17,0.39,0.39
		S103.8,101.04,103.59,101.04z M99.75,101.04h-1.92c-0.21,0-0.39-0.17-0.39-0.39s0.17-0.39,0.39-0.39h1.92
		c0.21,0,0.39,0.17,0.39,0.39S99.96,101.04,99.75,101.04z M95.91,101.04h-1.92c-0.21,0-0.39-0.17-0.39-0.39s0.17-0.39,0.39-0.39
		h1.92c0.21,0,0.39,0.17,0.39,0.39S96.12,101.04,95.91,101.04z M92.07,101.04h-1.92c-0.21,0-0.39-0.17-0.39-0.39
		s0.17-0.39,0.39-0.39h1.92c0.21,0,0.39,0.17,0.39,0.39S92.28,101.04,92.07,101.04z M88.23,101.04h-1.92
		c-0.21,0-0.39-0.17-0.39-0.39s0.17-0.39,0.39-0.39h1.92c0.21,0,0.39,0.17,0.39,0.39S88.44,101.04,88.23,101.04z M84.39,101.04
		h-1.92c-0.21,0-0.39-0.17-0.39-0.39s0.17-0.39,0.39-0.39h1.92c0.21,0,0.39,0.17,0.39,0.39S84.61,101.04,84.39,101.04z
		 M80.55,101.04h-1.92c-0.21,0-0.39-0.17-0.39-0.39s0.17-0.39,0.39-0.39h1.92c0.21,0,0.39,0.17,0.39,0.39S80.77,101.04,80.55,101.04
		z M76.71,101.04l-1.92,0c-0.21,0-0.38-0.18-0.38-0.39s0.19-0.4,0.39-0.38l1.91,0c0.21,0,0.39,0.17,0.39,0.39
		S76.93,101.04,76.71,101.04z M113.21,100.83c-0.18,0-0.34-0.12-0.38-0.3c-0.05-0.21,0.08-0.41,0.29-0.46
		c0.6-0.13,1.18-0.33,1.73-0.59c0.19-0.09,0.42-0.01,0.51,0.18c0.09,0.19,0.01,0.42-0.18,0.51c-0.6,0.28-1.24,0.5-1.89,0.65
		C113.26,100.82,113.24,100.83,113.21,100.83z M72.89,100.81c-0.03,0-0.06,0-0.09-0.01c-0.65-0.15-1.29-0.37-1.89-0.66
		c-0.19-0.09-0.27-0.32-0.18-0.51c0.09-0.19,0.32-0.27,0.51-0.18c0.55,0.26,1.13,0.47,1.73,0.6c0.21,0.05,0.34,0.25,0.29,0.46
		C73.23,100.69,73.07,100.81,72.89,100.81z M116.65,99.2c-0.12,0-0.23-0.05-0.31-0.15c-0.13-0.17-0.1-0.41,0.07-0.54
		c0.48-0.37,0.93-0.8,1.32-1.27c0.14-0.16,0.38-0.18,0.54-0.05c0.16,0.14,0.19,0.38,0.05,0.54c-0.43,0.51-0.91,0.98-1.44,1.39
		C116.82,99.18,116.74,99.2,116.65,99.2z M69.45,99.17c-0.08,0-0.17-0.03-0.24-0.08c-0.53-0.41-1.01-0.88-1.43-1.39
		c-0.14-0.16-0.11-0.41,0.05-0.54c0.16-0.14,0.41-0.11,0.54,0.05c0.39,0.47,0.83,0.9,1.31,1.28c0.17,0.13,0.2,0.37,0.07,0.54
		C69.68,99.12,69.57,99.17,69.45,99.17z M119.1,96.28c-0.06,0-0.12-0.01-0.18-0.04c-0.19-0.1-0.26-0.33-0.16-0.52
		c0.28-0.54,0.5-1.12,0.66-1.71c0.05-0.21,0.27-0.33,0.47-0.27c0.21,0.05,0.33,0.27,0.27,0.47c-0.17,0.65-0.41,1.27-0.72,1.86
		C119.37,96.21,119.23,96.28,119.1,96.28z M67.03,96.24c-0.14,0-0.28-0.08-0.34-0.21c-0.3-0.59-0.54-1.22-0.71-1.87
		c-0.05-0.21,0.07-0.42,0.28-0.47c0.21-0.05,0.42,0.07,0.47,0.28c0.15,0.59,0.37,1.17,0.65,1.71c0.1,0.19,0.02,0.42-0.17,0.52
		C67.15,96.23,67.09,96.24,67.03,96.24z M120.08,92.6c-0.01,0-0.01,0-0.02,0c-0.21-0.01-0.38-0.19-0.37-0.4
		c0.01-0.12,0.01-0.24,0.01-0.36V90.3c0-0.21,0.17-0.39,0.39-0.39s0.39,0.17,0.39,0.39v1.54c0,0.13,0,0.26-0.01,0.4
		C120.45,92.44,120.28,92.6,120.08,92.6z M66.07,92.56c-0.21,0-0.38-0.16-0.39-0.37c0-0.12-0.01-0.23-0.01-0.35v-1.59
		c0-0.21,0.17-0.39,0.39-0.39s0.39,0.17,0.39,0.39v1.59c0,0.11,0,0.21,0.01,0.32c0.01,0.21-0.16,0.39-0.37,0.4
		C66.08,92.56,66.07,92.56,66.07,92.56z M120.08,88.76c-0.21,0-0.39-0.17-0.39-0.39v-1.92c0-0.21,0.17-0.39,0.39-0.39
		s0.39,0.17,0.39,0.39v1.92C120.47,88.59,120.3,88.76,120.08,88.76z M66.06,88.72c-0.21,0-0.39-0.17-0.39-0.39v-1.92
		c0-0.21,0.17-0.39,0.39-0.39s0.39,0.17,0.39,0.39v1.92C66.45,88.54,66.28,88.72,66.06,88.72z M120.08,84.92
		c-0.21,0-0.39-0.17-0.39-0.39v-1.92c0-0.21,0.17-0.39,0.39-0.39s0.39,0.17,0.39,0.39v1.92C120.47,84.75,120.3,84.92,120.08,84.92z
		 M66.06,84.88c-0.21,0-0.39-0.17-0.39-0.39v-1.92c0-0.21,0.17-0.39,0.39-0.39s0.39,0.17,0.39,0.39v1.92
		C66.45,84.7,66.28,84.88,66.06,84.88z M120.08,81.08c-0.21,0-0.39-0.17-0.39-0.39v-1.92c0-0.21,0.17-0.39,0.39-0.39
		s0.39,0.17,0.39,0.39v1.92C120.47,80.91,120.3,81.08,120.08,81.08z M66.06,81.04c-0.21,0-0.39-0.17-0.39-0.39v-1.92
		c0-0.21,0.17-0.39,0.39-0.39s0.39,0.17,0.39,0.39v1.92C66.45,80.86,66.28,81.04,66.06,81.04z M120.08,77.25
		c-0.21,0-0.39-0.17-0.39-0.39v-1.92c0-0.21,0.17-0.39,0.39-0.39s0.39,0.17,0.39,0.39v1.92C120.47,77.07,120.3,77.25,120.08,77.25z
		 M66.06,77.2c-0.21,0-0.39-0.17-0.39-0.39v-1.92c0-0.21,0.17-0.39,0.39-0.39s0.39,0.17,0.39,0.39v1.92
		C66.45,77.03,66.28,77.2,66.06,77.2z M120.08,73.41c-0.21,0-0.39-0.17-0.39-0.39V71.1c0-0.21,0.17-0.39,0.39-0.39
		s0.39,0.17,0.39,0.39v1.92C120.47,73.23,120.3,73.41,120.08,73.41z M66.06,73.36c-0.21,0-0.39-0.17-0.39-0.39v-1.92
		c0-0.21,0.17-0.39,0.39-0.39s0.39,0.17,0.39,0.39v1.92C66.45,73.19,66.28,73.36,66.06,73.36z M120.08,69.57
		c-0.21,0-0.39-0.17-0.39-0.39v-1.92c0-0.21,0.17-0.39,0.39-0.39s0.39,0.17,0.39,0.39v1.92C120.47,69.39,120.3,69.57,120.08,69.57z
		 M66.06,69.52c-0.21,0-0.39-0.17-0.39-0.39v-1.92c0-0.21,0.17-0.39,0.39-0.39s0.39,0.17,0.39,0.39v1.92
		C66.45,69.35,66.28,69.52,66.06,69.52z M120.08,65.73c-0.21,0-0.39-0.17-0.39-0.39v-1.92c0-0.21,0.17-0.39,0.39-0.39
		s0.39,0.17,0.39,0.39v1.92C120.47,65.55,120.3,65.73,120.08,65.73z M66.06,65.68c-0.21,0-0.39-0.17-0.39-0.39v-1.92
		c0-0.21,0.17-0.39,0.39-0.39s0.39,0.17,0.39,0.39v1.92C66.45,65.51,66.28,65.68,66.06,65.68z M120.08,61.89
		c-0.21,0-0.39-0.17-0.39-0.39v-1.92c0-0.21,0.17-0.39,0.39-0.39s0.39,0.17,0.39,0.39v1.92C120.47,61.72,120.3,61.89,120.08,61.89z
		 M66.06,61.84c-0.21,0-0.39-0.17-0.39-0.39v-1.92c0-0.21,0.17-0.39,0.39-0.39s0.39,0.17,0.39,0.39v1.92
		C66.45,61.67,66.28,61.84,66.06,61.84z M120.08,58.05c-0.21,0-0.39-0.17-0.39-0.39v-1.92c0-0.21,0.17-0.39,0.39-0.39
		s0.39,0.17,0.39,0.39v1.92C120.47,57.88,120.3,58.05,120.08,58.05z M66.06,58c-0.21,0-0.39-0.17-0.39-0.39V55.7
		c0-0.21,0.17-0.39,0.39-0.39s0.39,0.17,0.39,0.39v1.92C66.45,57.83,66.28,58,66.06,58z M120.08,54.21c-0.21,0-0.39-0.17-0.39-0.39
		V51.9c0-0.21,0.17-0.39,0.39-0.39s0.39,0.17,0.39,0.39v1.92C120.47,54.04,120.3,54.21,120.08,54.21z M66.06,54.16
		c-0.21,0-0.39-0.17-0.39-0.39v-1.92c0-0.21,0.17-0.39,0.39-0.39s0.39,0.17,0.39,0.39v1.92C66.45,53.99,66.28,54.16,66.06,54.16z
		 M120.08,50.37c-0.21,0-0.39-0.17-0.39-0.39v-1.92c0-0.21,0.17-0.39,0.39-0.39s0.39,0.17,0.39,0.39v1.92
		C120.47,50.2,120.3,50.37,120.08,50.37z M66.06,50.32c-0.21,0-0.39-0.17-0.39-0.39v-1.92c0-0.21,0.17-0.39,0.39-0.39
		s0.39,0.17,0.39,0.39v1.92C66.45,50.15,66.28,50.32,66.06,50.32z M120.08,46.53c-0.21,0-0.38-0.16-0.38-0.37
		c-0.02-0.61-0.11-1.22-0.27-1.81c-0.05-0.21,0.07-0.42,0.27-0.47c0.21-0.05,0.42,0.07,0.47,0.27c0.17,0.64,0.27,1.31,0.29,1.98
		c0.01,0.21-0.16,0.39-0.37,0.4C120.09,46.53,120.08,46.53,120.08,46.53z M66.07,46.48c-0.01,0-0.01,0-0.02,0
		c-0.21-0.01-0.38-0.19-0.37-0.4c0.03-0.67,0.13-1.33,0.3-1.98c0.05-0.21,0.27-0.33,0.47-0.27c0.21,0.06,0.33,0.27,0.27,0.47
		c-0.16,0.59-0.25,1.2-0.28,1.81C66.45,46.32,66.28,46.48,66.07,46.48z M119.11,42.85c-0.14,0-0.27-0.08-0.34-0.21
		c-0.28-0.54-0.62-1.06-1.01-1.53c-0.14-0.16-0.11-0.41,0.05-0.54c0.16-0.14,0.41-0.11,0.54,0.05c0.43,0.51,0.8,1.07,1.1,1.67
		c0.1,0.19,0.02,0.42-0.17,0.52C119.23,42.83,119.17,42.85,119.11,42.85z M67.06,42.81c-0.06,0-0.12-0.01-0.18-0.04
		c-0.19-0.1-0.26-0.33-0.16-0.52c0.31-0.59,0.68-1.15,1.11-1.66c0.14-0.16,0.38-0.18,0.54-0.05c0.16,0.14,0.18,0.38,0.05,0.54
		c-0.39,0.47-0.74,0.98-1.02,1.52C67.33,42.73,67.2,42.81,67.06,42.81z M116.68,39.92c-0.08,0-0.17-0.03-0.24-0.08
		c-0.48-0.38-1.01-0.7-1.56-0.96c-0.19-0.09-0.27-0.32-0.18-0.51c0.09-0.19,0.32-0.27,0.51-0.18c0.6,0.29,1.17,0.64,1.7,1.05
		c0.17,0.13,0.2,0.37,0.07,0.54C116.91,39.87,116.79,39.92,116.68,39.92z M69.51,39.89c-0.12,0-0.23-0.05-0.31-0.15
		c-0.13-0.17-0.1-0.41,0.07-0.54c0.53-0.41,1.1-0.76,1.71-1.04c0.19-0.09,0.42-0.01,0.51,0.19c0.09,0.19,0.01,0.42-0.19,0.51
		c-0.55,0.26-1.08,0.58-1.56,0.95C69.67,39.86,69.59,39.89,69.51,39.89z M113.24,38.29c-0.03,0-0.06,0-0.09-0.01
		c-0.59-0.14-1.21-0.21-1.82-0.21c-0.21,0-0.38-0.18-0.38-0.39c0-0.21,0.18-0.37,0.39-0.38c0.67,0,1.34,0.08,1.99,0.23
		c0.21,0.05,0.34,0.25,0.29,0.46C113.57,38.16,113.41,38.29,113.24,38.29z M72.96,38.27c-0.18,0-0.34-0.12-0.38-0.3
		c-0.05-0.21,0.08-0.41,0.29-0.46c0.65-0.14,1.32-0.22,1.99-0.22c0,0,0,0,0,0c0.21,0,0.39,0.17,0.39,0.38
		c0,0.21-0.17,0.39-0.38,0.39c-0.61,0-1.23,0.07-1.82,0.2C73.01,38.27,72.98,38.27,72.96,38.27z M109.41,38.06h-1.92
		c-0.21,0-0.39-0.17-0.39-0.39s0.17-0.39,0.39-0.39h1.92c0.21,0,0.39,0.17,0.39,0.39S109.63,38.06,109.41,38.06z M105.57,38.06
		h-1.92c-0.21,0-0.39-0.17-0.39-0.39s0.17-0.39,0.39-0.39h1.92c0.21,0,0.39,0.17,0.39,0.39S105.79,38.06,105.57,38.06z
		 M101.74,38.06h-1.92c-0.21,0-0.39-0.17-0.39-0.39s0.17-0.39,0.39-0.39h1.92c0.21,0,0.39,0.17,0.39,0.39S101.95,38.06,101.74,38.06
		z M97.9,38.06h-1.92c-0.21,0-0.39-0.17-0.39-0.39s0.17-0.39,0.39-0.39h1.92c0.21,0,0.39,0.17,0.39,0.39S98.11,38.06,97.9,38.06z
		 M94.06,38.06h-1.92c-0.21,0-0.39-0.17-0.39-0.39s0.17-0.39,0.39-0.39h1.92c0.21,0,0.39,0.17,0.39,0.39S94.27,38.06,94.06,38.06z
		 M90.22,38.06H88.3c-0.21,0-0.39-0.17-0.39-0.39s0.17-0.39,0.39-0.39h1.92c0.21,0,0.39,0.17,0.39,0.39S90.43,38.06,90.22,38.06z
		 M86.38,38.06h-1.92c-0.21,0-0.39-0.17-0.39-0.39s0.17-0.39,0.39-0.39h1.92c0.21,0,0.39,0.17,0.39,0.39S86.59,38.06,86.38,38.06z
		 M82.54,38.06h-1.92c-0.21,0-0.39-0.17-0.39-0.39s0.17-0.39,0.39-0.39h1.92c0.21,0,0.39,0.17,0.39,0.39S82.75,38.06,82.54,38.06z
		 M78.7,38.06h-1.92c-0.21,0-0.39-0.17-0.39-0.39s0.17-0.39,0.39-0.39h1.92c0.21,0,0.39,0.17,0.39,0.39S78.91,38.06,78.7,38.06z"/>
	<path class="st17" d="M202.93,99.82h-37.79c-8.24,0-14.91-6.68-14.91-14.91V33.22c0-8.24,6.68-14.91,14.91-14.91h37.79
		c8.24,0,14.91,6.68,14.91,14.91v51.69C217.85,93.14,211.17,99.82,202.93,99.82z"/>
	
		<linearGradient id="SVGID_00000092450455159565284950000005785279406495641217_" gradientUnits="userSpaceOnUse" x1="116.47" y1="58.6808" x2="132.1341" y2="58.6808">
		<stop  offset="0" style="stop-color:#456CB4"/>
		<stop  offset="1" style="stop-color:#9654A1"/>
	</linearGradient>
	<polygon style="fill:url(#SVGID_00000092450455159565284950000005785279406495641217_);" points="132.13,91.06 116.47,91.06 
		116.47,89.9 130.98,89.9 130.98,27.46 117.35,27.46 117.35,26.3 132.13,26.3 	"/>
	
		<linearGradient id="SVGID_00000157284346125229261380000010627639378772916868_" gradientUnits="userSpaceOnUse" x1="116.47" y1="58.566" x2="132.1341" y2="58.566">
		<stop  offset="0" style="stop-color:#456CB4"/>
		<stop  offset="1" style="stop-color:#9654A1"/>
	</linearGradient>
	<polygon style="fill:url(#SVGID_00000157284346125229261380000010627639378772916868_);" points="132.13,69.57 116.47,69.57 
		116.47,68.42 130.98,68.42 130.98,48.71 117.35,48.71 117.35,47.56 132.13,47.56 	"/>
	
		<linearGradient id="SVGID_00000098189150923123572380000005624648429138201236_" gradientUnits="userSpaceOnUse" x1="68.5278" y1="26.8786" x2="117.1121" y2="26.8786">
		<stop  offset="0" style="stop-color:#456CB4"/>
		<stop  offset="1" style="stop-color:#9654A1"/>
	</linearGradient>
	<path style="fill:url(#SVGID_00000098189150923123572380000005624648429138201236_);" d="M110.94,33.05H74.7
		c-3.41,0-6.17-2.76-6.17-6.17v0c0-3.41,2.76-6.17,6.17-6.17h36.24c3.41,0,6.17,2.76,6.17,6.17v0
		C117.11,30.29,114.35,33.05,110.94,33.05z"/>
	<g>
		<path class="st13" d="M87.31,24.91h1.38c1.01,0,1.73,0.35,1.73,1.38c0,0.99-0.72,1.45-1.71,1.45h-0.68v1.72h-0.72V24.91z
			 M88.64,27.16c0.73,0,1.07-0.28,1.07-0.88c0-0.6-0.38-0.8-1.1-0.8h-0.59v1.67H88.64z"/>
		<path class="st13" d="M90.76,28.56c0-0.73,0.62-1.1,2.03-1.26c-0.01-0.39-0.15-0.74-0.65-0.74c-0.36,0-0.69,0.16-0.98,0.35
			l-0.27-0.48c0.35-0.22,0.83-0.44,1.37-0.44c0.85,0,1.23,0.54,1.23,1.44v2.04h-0.58l-0.06-0.39h-0.02
			c-0.31,0.27-0.67,0.47-1.08,0.47C91.17,29.54,90.76,29.16,90.76,28.56z M92.79,28.58v-0.83c-1.01,0.12-1.34,0.38-1.34,0.76
			c0,0.33,0.23,0.47,0.53,0.47C92.27,28.98,92.51,28.84,92.79,28.58z"/>
		<path class="st13" d="M94.5,26.07h0.58l0.06,0.61h0.02c0.24-0.44,0.6-0.7,0.96-0.7c0.17,0,0.28,0.02,0.38,0.07l-0.13,0.62
			c-0.12-0.04-0.2-0.06-0.34-0.06c-0.28,0-0.61,0.19-0.82,0.73v2.12H94.5V26.07z"/>
		<path class="st13" d="M97.14,28.35v-1.72h-0.49V26.1l0.53-0.04l0.08-0.94h0.59v0.94h0.88v0.57h-0.88v1.72
			c0,0.41,0.14,0.62,0.49,0.62c0.12,0,0.27-0.04,0.36-0.08l0.13,0.52c-0.19,0.06-0.42,0.12-0.67,0.12
			C97.4,29.54,97.14,29.06,97.14,28.35z"/>
	</g>
	
		<linearGradient id="SVGID_00000018932376714100835050000017236613678828424845_" gradientUnits="userSpaceOnUse" x1="68.5278" y1="89.8972" x2="117.1121" y2="89.8972">
		<stop  offset="0" style="stop-color:#456CB4"/>
		<stop  offset="1" style="stop-color:#9654A1"/>
	</linearGradient>
	<path style="fill:url(#SVGID_00000018932376714100835050000017236613678828424845_);" d="M110.94,96.07H74.7
		c-3.41,0-6.17-2.76-6.17-6.17v0c0-3.41,2.76-6.17,6.17-6.17h36.24c3.41,0,6.17,2.76,6.17,6.17v0
		C117.11,93.31,114.35,96.07,110.94,96.07z"/>
	<g>
		<path class="st13" d="M87.31,87.93h1.38c1.01,0,1.73,0.35,1.73,1.38c0,0.99-0.72,1.45-1.71,1.45h-0.68v1.72h-0.72V87.93z
			 M88.64,90.18c0.73,0,1.07-0.28,1.07-0.88c0-0.6-0.38-0.8-1.1-0.8h-0.59v1.67H88.64z"/>
		<path class="st13" d="M90.76,91.58c0-0.73,0.62-1.1,2.03-1.26c-0.01-0.39-0.15-0.74-0.65-0.74c-0.36,0-0.69,0.16-0.98,0.35
			l-0.27-0.48c0.35-0.22,0.83-0.44,1.37-0.44c0.85,0,1.23,0.54,1.23,1.44v2.04h-0.58l-0.06-0.39h-0.02
			c-0.31,0.27-0.67,0.47-1.08,0.47C91.17,92.56,90.76,92.18,90.76,91.58z M92.79,91.6v-0.83c-1.01,0.12-1.34,0.38-1.34,0.76
			c0,0.33,0.23,0.47,0.53,0.47C92.27,92,92.51,91.86,92.79,91.6z"/>
		<path class="st13" d="M94.5,89.08h0.58l0.06,0.61h0.02c0.24-0.44,0.6-0.7,0.96-0.7c0.17,0,0.28,0.02,0.38,0.07l-0.13,0.62
			c-0.12-0.04-0.2-0.06-0.34-0.06c-0.28,0-0.61,0.19-0.82,0.73v2.12H94.5V89.08z"/>
		<path class="st13" d="M97.14,91.37v-1.72h-0.49v-0.53l0.53-0.04l0.08-0.94h0.59v0.94h0.88v0.57h-0.88v1.72
			c0,0.41,0.14,0.62,0.49,0.62c0.12,0,0.27-0.04,0.36-0.08l0.13,0.52c-0.19,0.06-0.42,0.12-0.67,0.12
			C97.4,92.56,97.14,92.08,97.14,91.37z"/>
	</g>
	<g>
		<path class="st13" d="M158.83,38.81h1.63v0.52h-1.63V38.81z"/>
		<path class="st13" d="M166.07,36.27h0.73l1.51,2.67l0.48,0.96h0.03c-0.04-0.47-0.09-1.02-0.09-1.51v-2.12h0.68v4.55h-0.73
			l-1.51-2.68l-0.48-0.95h-0.03c0.04,0.47,0.09,0.99,0.09,1.49v2.14h-0.68V36.27z"/>
		<path class="st13" d="M170.23,36.27h2.69v0.6h-1.97v1.39h1.68v0.6h-1.68v1.96h-0.72V36.27z"/>
		<path class="st13" d="M174.28,36.87h-1.33v-0.6h3.39v0.6h-1.34v3.94h-0.72V36.87z"/>
		<path class="st13" d="M177.76,36.27h0.72v4.55h-0.72V36.27z"/>
		<path class="st13" d="M178.88,40.43l0.33-0.46c0.3,0.23,0.6,0.39,0.96,0.39c0.41,0,0.6-0.2,0.6-0.46c0-0.31-0.38-0.44-0.75-0.59
			c-0.46-0.17-0.96-0.41-0.96-0.99c0-0.57,0.46-0.99,1.21-0.99c0.45,0,0.83,0.18,1.1,0.4l-0.33,0.44c-0.23-0.17-0.48-0.3-0.75-0.3
			c-0.38,0-0.55,0.19-0.55,0.42c0,0.29,0.33,0.4,0.7,0.54c0.48,0.18,1,0.39,1,1.03c0,0.57-0.45,1.03-1.29,1.03
			C179.68,40.89,179.21,40.7,178.88,40.43z"/>
		<path class="st13" d="M181.47,40.43l0.33-0.46c0.3,0.23,0.6,0.39,0.96,0.39c0.41,0,0.6-0.2,0.6-0.46c0-0.31-0.38-0.44-0.75-0.59
			c-0.46-0.17-0.96-0.41-0.96-0.99c0-0.57,0.46-0.99,1.21-0.99c0.45,0,0.83,0.18,1.1,0.4l-0.33,0.44c-0.23-0.17-0.48-0.3-0.75-0.3
			c-0.38,0-0.55,0.19-0.55,0.42c0,0.29,0.33,0.4,0.7,0.54c0.48,0.18,1,0.39,1,1.03c0,0.57-0.45,1.03-1.29,1.03
			C182.27,40.89,181.8,40.7,181.47,40.43z"/>
		<path class="st13" d="M184.37,39.56v-2.13h0.71v2.05c0,0.58,0.17,0.81,0.57,0.81c0.31,0,0.53-0.15,0.81-0.51v-2.36h0.71v3.39
			h-0.58l-0.06-0.51h-0.02c-0.31,0.36-0.64,0.59-1.1,0.59C184.69,40.89,184.37,40.42,184.37,39.56z"/>
		<path class="st13" d="M187.67,39.91c0-0.73,0.62-1.1,2.03-1.26c-0.01-0.39-0.15-0.74-0.65-0.74c-0.36,0-0.69,0.16-0.98,0.35
			l-0.27-0.48c0.35-0.22,0.83-0.44,1.37-0.44c0.85,0,1.23,0.54,1.23,1.44v2.04h-0.58l-0.06-0.39h-0.02
			c-0.31,0.27-0.67,0.47-1.08,0.47C188.08,40.89,187.67,40.51,187.67,39.91z M189.7,39.94v-0.83c-1.01,0.12-1.34,0.38-1.34,0.76
			c0,0.33,0.23,0.47,0.53,0.47C189.18,40.33,189.42,40.19,189.7,39.94z"/>
		<path class="st13" d="M191.04,37.42h0.58l0.06,0.47h0.02c0.31-0.3,0.66-0.56,1.12-0.56c0.72,0,1.04,0.48,1.04,1.34v2.13h-0.71
			v-2.05c0-0.59-0.17-0.82-0.57-0.82c-0.31,0-0.53,0.16-0.83,0.46v2.41h-0.71V37.42z"/>
		<path class="st13" d="M194.28,39.12c0-1.13,0.78-1.78,1.68-1.78c0.43,0,0.75,0.17,0.99,0.39l-0.35,0.46
			c-0.18-0.17-0.38-0.27-0.6-0.27c-0.57,0-0.98,0.48-0.98,1.2c0,0.72,0.39,1.2,0.96,1.2c0.28,0,0.54-0.14,0.74-0.31l0.3,0.47
			c-0.31,0.28-0.72,0.42-1.1,0.42C194.99,40.89,194.28,40.25,194.28,39.12z"/>
		<path class="st13" d="M196.94,39.12c0-1.1,0.76-1.78,1.55-1.78c0.9,0,1.39,0.65,1.39,1.6c0,0.14-0.02,0.28-0.04,0.36h-2.2
			c0.06,0.65,0.46,1.04,1.05,1.04c0.3,0,0.56-0.09,0.81-0.25l0.25,0.45c-0.31,0.21-0.7,0.36-1.15,0.36
			C197.67,40.89,196.94,40.24,196.94,39.12z M199.26,38.81c0-0.58-0.26-0.92-0.76-0.92c-0.43,0-0.8,0.33-0.87,0.92H199.26z"/>
		<path class="st13" d="M158.83,48.83h1.63v0.52h-1.63V48.83z"/>
		<path class="st13" d="M165.83,48.55c0-1.46,0.81-2.34,1.97-2.34c1.17,0,1.98,0.88,1.98,2.34c0,1.46-0.81,2.37-1.98,2.37
			C166.63,50.92,165.83,50.01,165.83,48.55z M169.05,48.55c0-1.07-0.49-1.72-1.25-1.72s-1.24,0.65-1.24,1.72
			c0,1.06,0.49,1.75,1.24,1.75S169.05,49.61,169.05,48.55z"/>
		<path class="st13" d="M169.92,47.44h0.72l0.45,1.83c0.07,0.33,0.12,0.64,0.18,0.97h0.02c0.07-0.33,0.14-0.64,0.22-0.97l0.48-1.83
			h0.65l0.49,1.83c0.08,0.33,0.15,0.64,0.23,0.97h0.02c0.07-0.33,0.12-0.64,0.2-0.97l0.44-1.83h0.67l-0.88,3.39h-0.85l-0.43-1.68
			c-0.08-0.32-0.14-0.63-0.22-0.98h-0.03c-0.07,0.35-0.13,0.67-0.22,0.99l-0.41,1.67h-0.82L169.92,47.44z"/>
		<path class="st13" d="M174.75,49.14c0-1.1,0.76-1.78,1.55-1.78c0.9,0,1.39,0.65,1.39,1.6c0,0.14-0.02,0.28-0.04,0.36h-2.2
			c0.06,0.65,0.46,1.04,1.05,1.04c0.3,0,0.56-0.09,0.81-0.25l0.25,0.45c-0.31,0.21-0.7,0.36-1.15,0.36
			C175.48,50.92,174.75,50.26,174.75,49.14z M177.07,48.83c0-0.58-0.27-0.92-0.76-0.92c-0.43,0-0.8,0.33-0.87,0.92H177.07z"/>
		<path class="st13" d="M178.11,47.44h0.58l0.06,0.61h0.02c0.24-0.44,0.6-0.7,0.96-0.7c0.17,0,0.28,0.02,0.38,0.07l-0.13,0.62
			c-0.12-0.04-0.2-0.06-0.34-0.06c-0.28,0-0.61,0.19-0.82,0.73v2.12h-0.71V47.44z"/>
		<path class="st13" d="M179.86,50.45l0.33-0.46c0.3,0.23,0.6,0.39,0.96,0.39c0.41,0,0.6-0.2,0.6-0.46c0-0.31-0.38-0.44-0.75-0.59
			c-0.46-0.17-0.96-0.41-0.96-0.99c0-0.57,0.46-0.99,1.21-0.99c0.45,0,0.83,0.18,1.1,0.4l-0.33,0.44c-0.23-0.17-0.48-0.3-0.75-0.3
			c-0.38,0-0.55,0.19-0.55,0.42c0,0.29,0.33,0.4,0.7,0.54c0.48,0.18,1,0.39,1,1.03c0,0.57-0.45,1.03-1.29,1.03
			C180.67,50.92,180.2,50.72,179.86,50.45z"/>
		<path class="st13" d="M182.81,45.92h0.71v1.3l-0.03,0.67c0.3-0.28,0.64-0.54,1.1-0.54c0.72,0,1.04,0.48,1.04,1.34v2.13h-0.71
			v-2.05c0-0.59-0.17-0.82-0.57-0.82c-0.31,0-0.53,0.16-0.83,0.46v2.41h-0.71V45.92z"/>
		<path class="st13" d="M186.18,46.38c0-0.25,0.18-0.42,0.44-0.42c0.26,0,0.44,0.17,0.44,0.42c0,0.26-0.19,0.43-0.44,0.43
			C186.36,46.81,186.18,46.64,186.18,46.38z M186.27,47.44h0.71v3.39h-0.71V47.44z"/>
		<path class="st13" d="M187.67,47.44h0.58l0.06,0.37h0.02c0.3-0.25,0.67-0.46,1.05-0.46c0.86,0,1.34,0.68,1.34,1.73
			c0,1.17-0.7,1.83-1.46,1.83c-0.3,0-0.6-0.14-0.89-0.38l0.02,0.58v1.1h-0.71V47.44z M189.98,49.1c0-0.71-0.23-1.15-0.8-1.15
			c-0.27,0-0.52,0.14-0.8,0.41v1.66c0.27,0.23,0.52,0.31,0.73,0.31C189.61,50.33,189.98,49.89,189.98,49.1z"/>
		<path class="st13" d="M158.83,58.85h1.63v0.52h-1.63V58.85z"/>
		<path class="st13" d="M165.83,58.6c0-1.48,0.9-2.37,2.05-2.37c0.57,0,1.01,0.27,1.29,0.57l-0.39,0.46
			c-0.23-0.24-0.52-0.41-0.89-0.41c-0.78,0-1.33,0.65-1.33,1.72c0,1.08,0.51,1.74,1.31,1.74c0.42,0,0.73-0.19,1.01-0.48l0.38,0.45
			c-0.36,0.42-0.83,0.65-1.41,0.65C166.7,60.94,165.83,60.09,165.83,58.6z"/>
		<path class="st13" d="M169.38,59.16c0-1.13,0.76-1.78,1.6-1.78s1.6,0.65,1.6,1.78c0,1.13-0.76,1.78-1.6,1.78
			S169.38,60.29,169.38,59.16z M171.85,59.16c0-0.72-0.33-1.2-0.87-1.2c-0.53,0-0.86,0.48-0.86,1.2c0,0.72,0.33,1.2,0.86,1.2
			C171.52,60.36,171.85,59.88,171.85,59.16z"/>
		<path class="st13" d="M173.04,57.46h0.58l0.06,0.48h0.02c0.29-0.31,0.63-0.56,1.05-0.56c0.51,0,0.79,0.23,0.94,0.62
			c0.33-0.36,0.68-0.62,1.1-0.62c0.71,0,1.04,0.48,1.04,1.34v2.13h-0.71v-2.05c0-0.59-0.18-0.82-0.57-0.82
			c-0.23,0-0.48,0.15-0.76,0.46v2.41h-0.71v-2.05c0-0.59-0.18-0.82-0.57-0.82c-0.23,0-0.48,0.15-0.76,0.46v2.41h-0.71V57.46z"/>
		<path class="st13" d="M179.12,60.51h-0.02l-0.07,0.35h-0.56v-4.92h0.71v1.3l-0.02,0.58c0.29-0.25,0.65-0.44,1.01-0.44
			c0.86,0,1.34,0.68,1.34,1.73c0,1.17-0.7,1.83-1.46,1.83C179.75,60.94,179.41,60.78,179.12,60.51z M180.79,59.12
			c0-0.71-0.23-1.15-0.8-1.15c-0.27,0-0.52,0.14-0.8,0.41v1.66c0.26,0.23,0.52,0.31,0.73,0.31
			C180.42,60.35,180.79,59.91,180.79,59.12z"/>
		<path class="st13" d="M181.9,56.4c0-0.25,0.18-0.42,0.44-0.42c0.26,0,0.44,0.17,0.44,0.42c0,0.26-0.19,0.43-0.44,0.43
			C182.08,56.83,181.9,56.66,181.9,56.4z M181.99,57.46h0.71v3.39h-0.71V57.46z"/>
		<path class="st13" d="M183.39,57.46h0.58l0.06,0.47h0.02c0.31-0.3,0.66-0.56,1.12-0.56c0.72,0,1.04,0.48,1.04,1.34v2.13h-0.71
			v-2.05c0-0.59-0.17-0.82-0.57-0.82c-0.31,0-0.53,0.16-0.83,0.46v2.41h-0.71V57.46z"/>
		<path class="st13" d="M186.67,59.96c0-0.73,0.62-1.1,2.03-1.26c-0.01-0.39-0.15-0.74-0.65-0.74c-0.36,0-0.69,0.16-0.98,0.35
			l-0.27-0.48c0.35-0.22,0.83-0.44,1.37-0.44c0.85,0,1.23,0.54,1.23,1.44v2.04h-0.58l-0.06-0.39h-0.02
			c-0.31,0.27-0.67,0.47-1.08,0.47C187.08,60.94,186.67,60.56,186.67,59.96z M188.7,59.98v-0.83c-1.01,0.12-1.34,0.38-1.34,0.76
			c0,0.33,0.23,0.47,0.53,0.47C188.18,60.38,188.42,60.24,188.7,59.98z"/>
		<path class="st13" d="M190.05,59.75v-1.72h-0.49V57.5l0.53-0.04l0.08-0.94h0.59v0.94h0.88v0.57h-0.88v1.72
			c0,0.41,0.14,0.62,0.49,0.62c0.12,0,0.27-0.04,0.36-0.08l0.13,0.52c-0.19,0.06-0.42,0.12-0.67,0.12
			C190.32,60.94,190.05,60.46,190.05,59.75z"/>
		<path class="st13" d="M191.93,56.4c0-0.25,0.18-0.42,0.44-0.42c0.26,0,0.44,0.17,0.44,0.42c0,0.26-0.19,0.43-0.44,0.43
			C192.1,56.83,191.93,56.66,191.93,56.4z M192.01,57.46h0.71v3.39h-0.71V57.46z"/>
		<path class="st13" d="M193.17,59.16c0-1.13,0.76-1.78,1.6-1.78s1.6,0.65,1.6,1.78c0,1.13-0.76,1.78-1.6,1.78
			S193.17,60.29,193.17,59.16z M195.64,59.16c0-0.72-0.33-1.2-0.87-1.2c-0.53,0-0.86,0.48-0.86,1.2c0,0.72,0.33,1.2,0.86,1.2
			C195.31,60.36,195.64,59.88,195.64,59.16z"/>
		<path class="st13" d="M196.83,57.46h0.58l0.06,0.47h0.02c0.31-0.3,0.66-0.56,1.12-0.56c0.72,0,1.04,0.48,1.04,1.34v2.13h-0.71
			v-2.05c0-0.59-0.17-0.82-0.57-0.82c-0.31,0-0.53,0.16-0.83,0.46v2.41h-0.71V57.46z"/>
		<path class="st13" d="M201.13,59.96c0-0.73,0.62-1.1,2.03-1.26c-0.01-0.39-0.15-0.74-0.65-0.74c-0.36,0-0.69,0.16-0.98,0.35
			l-0.27-0.48c0.35-0.22,0.83-0.44,1.37-0.44c0.85,0,1.23,0.54,1.23,1.44v2.04h-0.58l-0.06-0.39h-0.02
			c-0.31,0.27-0.67,0.47-1.08,0.47C201.54,60.94,201.13,60.56,201.13,59.96z M203.16,59.98v-0.83c-1.01,0.12-1.34,0.38-1.34,0.76
			c0,0.33,0.23,0.47,0.53,0.47C202.64,60.38,202.88,60.24,203.16,59.98z"/>
		<path class="st13" d="M204.5,57.46h0.58l0.06,0.47h0.02c0.31-0.3,0.66-0.56,1.12-0.56c0.72,0,1.04,0.48,1.04,1.34v2.13h-0.71
			v-2.05c0-0.59-0.17-0.82-0.57-0.82c-0.31,0-0.53,0.16-0.83,0.46v2.41h-0.71V57.46z"/>
		<path class="st13" d="M207.75,59.16c0-1.1,0.7-1.78,1.46-1.78c0.39,0,0.64,0.15,0.91,0.38l-0.03-0.56v-1.26h0.71v4.92h-0.58
			l-0.06-0.38h-0.02c-0.25,0.26-0.6,0.46-0.99,0.46C208.3,60.94,207.75,60.29,207.75,59.16z M210.09,59.94v-1.66
			c-0.25-0.23-0.49-0.31-0.75-0.31c-0.48,0-0.86,0.45-0.86,1.18c0,0.77,0.3,1.2,0.83,1.2C209.6,60.35,209.84,60.22,210.09,59.94z"/>
		<path class="st13" d="M166.26,66.33h1.49c0.94,0,1.64,0.34,1.64,1.32c0,0.7-0.38,1.12-0.95,1.3l1.11,1.93h-0.81l-1.03-1.83h-0.73
			v1.83h-0.72V66.33z M167.66,68.47c0.66,0,1.02-0.27,1.02-0.82c0-0.55-0.36-0.74-1.02-0.74h-0.69v1.56H167.66z"/>
		<path class="st13" d="M169.56,69.18c0-1.1,0.76-1.78,1.55-1.78c0.9,0,1.39,0.65,1.39,1.6c0,0.14-0.02,0.28-0.04,0.36h-2.2
			c0.06,0.65,0.46,1.04,1.05,1.04c0.3,0,0.56-0.09,0.81-0.25l0.25,0.45c-0.31,0.21-0.7,0.36-1.15,0.36
			C170.3,70.96,169.56,70.31,169.56,69.18z M171.88,68.88c0-0.58-0.27-0.92-0.76-0.92c-0.43,0-0.8,0.33-0.87,0.92H171.88z"/>
		<path class="st13" d="M172.83,66.43c0-0.25,0.18-0.42,0.44-0.42c0.26,0,0.44,0.17,0.44,0.42c0,0.26-0.19,0.43-0.44,0.43
			C173.01,66.85,172.83,66.68,172.83,66.43z M172.92,67.49h0.71v3.39h-0.71V67.49z"/>
		<path class="st13" d="M174.32,67.49h0.58l0.06,0.47h0.02c0.31-0.3,0.66-0.56,1.12-0.56c0.72,0,1.04,0.48,1.04,1.34v2.13h-0.71
			v-2.05c0-0.59-0.17-0.82-0.57-0.82c-0.31,0-0.53,0.16-0.83,0.46v2.41h-0.71V67.49z"/>
		<path class="st13" d="M177.91,68.05h-0.46v-0.53l0.46-0.04v-0.43c0-0.7,0.31-1.18,1.07-1.18c0.23,0,0.44,0.05,0.6,0.11l-0.14,0.54
			c-0.12-0.06-0.25-0.09-0.37-0.09c-0.3,0-0.45,0.2-0.45,0.61v0.43h0.68v0.57h-0.68v2.83h-0.71V68.05z"/>
		<path class="st13" d="M179.25,69.18c0-1.13,0.76-1.78,1.6-1.78s1.6,0.65,1.6,1.78c0,1.13-0.76,1.78-1.6,1.78
			S179.25,70.31,179.25,69.18z M181.71,69.18c0-0.72-0.33-1.2-0.87-1.2c-0.53,0-0.86,0.48-0.86,1.2c0,0.72,0.33,1.2,0.86,1.2
			C181.38,70.38,181.71,69.91,181.71,69.18z"/>
		<path class="st13" d="M182.9,67.49h0.58l0.06,0.61h0.02c0.24-0.44,0.6-0.7,0.96-0.7c0.17,0,0.28,0.02,0.38,0.07l-0.13,0.62
			c-0.12-0.04-0.2-0.06-0.34-0.06c-0.28,0-0.61,0.19-0.82,0.73v2.12h-0.71V67.49z"/>
		<path class="st13" d="M184.75,69.18c0-1.13,0.78-1.78,1.68-1.78c0.43,0,0.75,0.17,0.99,0.39l-0.35,0.46
			c-0.18-0.17-0.38-0.27-0.6-0.27c-0.57,0-0.98,0.48-0.98,1.2c0,0.72,0.39,1.2,0.96,1.2c0.28,0,0.54-0.14,0.74-0.31l0.3,0.47
			c-0.31,0.28-0.72,0.42-1.1,0.42C185.45,70.96,184.75,70.31,184.75,69.18z"/>
		<path class="st13" d="M187.4,69.18c0-1.1,0.76-1.78,1.55-1.78c0.9,0,1.39,0.65,1.39,1.6c0,0.14-0.02,0.28-0.04,0.36h-2.2
			c0.06,0.65,0.46,1.04,1.05,1.04c0.3,0,0.56-0.09,0.81-0.25l0.25,0.45c-0.31,0.21-0.7,0.36-1.15,0.36
			C188.14,70.96,187.4,70.31,187.4,69.18z M189.72,68.88c0-0.58-0.26-0.92-0.76-0.92c-0.43,0-0.8,0.33-0.87,0.92H189.72z"/>
		<path class="st13" d="M190.76,67.49h0.58l0.06,0.48h0.02c0.29-0.31,0.63-0.56,1.05-0.56c0.51,0,0.79,0.23,0.94,0.62
			c0.33-0.36,0.68-0.62,1.1-0.62c0.71,0,1.04,0.48,1.04,1.34v2.13h-0.71v-2.05c0-0.59-0.18-0.82-0.57-0.82
			c-0.23,0-0.48,0.15-0.76,0.46v2.41h-0.71v-2.05c0-0.59-0.18-0.82-0.57-0.82c-0.23,0-0.48,0.15-0.76,0.46v2.41h-0.71V67.49z"/>
		<path class="st13" d="M195.96,69.18c0-1.1,0.76-1.78,1.55-1.78c0.9,0,1.39,0.65,1.39,1.6c0,0.14-0.02,0.28-0.04,0.36h-2.2
			c0.06,0.65,0.46,1.04,1.05,1.04c0.3,0,0.56-0.09,0.81-0.25l0.25,0.45c-0.31,0.21-0.7,0.36-1.15,0.36
			C196.69,70.96,195.96,70.31,195.96,69.18z M198.28,68.88c0-0.58-0.26-0.92-0.76-0.92c-0.43,0-0.8,0.33-0.87,0.92H198.28z"/>
		<path class="st13" d="M199.31,67.49h0.58l0.06,0.47h0.02c0.31-0.3,0.66-0.56,1.12-0.56c0.72,0,1.04,0.48,1.04,1.34v2.13h-0.71
			v-2.05c0-0.59-0.17-0.82-0.57-0.82c-0.31,0-0.53,0.16-0.83,0.46v2.41h-0.71V67.49z"/>
		<path class="st13" d="M202.9,69.77v-1.72h-0.49v-0.53l0.53-0.04l0.08-0.94h0.59v0.94h0.88v0.57h-0.88v1.72
			c0,0.41,0.14,0.62,0.49,0.62c0.12,0,0.27-0.04,0.36-0.08l0.13,0.52c-0.19,0.06-0.42,0.12-0.67,0.12
			C203.17,70.96,202.9,70.49,202.9,69.77z"/>
		<path class="st13" d="M158.83,78.9h1.63v0.52h-1.63V78.9z"/>
		<path class="st13" d="M166.07,76.35h0.82l0.83,2.3c0.11,0.3,0.2,0.61,0.3,0.91h0.03c0.11-0.3,0.19-0.61,0.3-0.91l0.82-2.3H170
			v4.55h-0.67v-2.25c0-0.41,0.06-0.99,0.09-1.41h-0.02l-0.36,1.05l-0.79,2.17h-0.44l-0.8-2.17l-0.36-1.05h-0.02
			c0.03,0.41,0.09,1,0.09,1.41v2.25h-0.64V76.35z"/>
		<path class="st13" d="M170.56,80c0-0.73,0.62-1.1,2.03-1.26c-0.01-0.39-0.15-0.74-0.65-0.74c-0.36,0-0.69,0.16-0.98,0.35
			l-0.27-0.48c0.35-0.22,0.83-0.44,1.37-0.44c0.85,0,1.23,0.54,1.23,1.44v2.04h-0.58l-0.06-0.39h-0.02
			c-0.31,0.27-0.67,0.47-1.08,0.47C170.98,80.98,170.56,80.6,170.56,80z M172.59,80.03v-0.83c-1.01,0.12-1.34,0.38-1.34,0.76
			c0,0.33,0.23,0.47,0.53,0.47C172.07,80.42,172.31,80.28,172.59,80.03z"/>
		<path class="st13" d="M173.94,77.51h0.58l0.06,0.61h0.02c0.24-0.44,0.6-0.7,0.96-0.7c0.17,0,0.28,0.02,0.38,0.07l-0.13,0.62
			c-0.12-0.04-0.2-0.06-0.34-0.06c-0.28,0-0.61,0.19-0.82,0.73v2.12h-0.71V77.51z"/>
		<path class="st13" d="M176.09,75.98h0.7v3.16h0.02l1.31-1.64h0.79l-1.15,1.38l1.28,2.01h-0.77l-0.92-1.54l-0.57,0.65v0.88h-0.7
			V75.98z"/>
		<path class="st13" d="M178.88,79.21c0-1.1,0.76-1.78,1.55-1.78c0.9,0,1.39,0.65,1.39,1.6c0,0.14-0.02,0.28-0.04,0.36h-2.2
			c0.06,0.65,0.46,1.04,1.05,1.04c0.3,0,0.56-0.09,0.81-0.25l0.25,0.45c-0.31,0.21-0.7,0.36-1.15,0.36
			C179.61,80.98,178.88,80.33,178.88,79.21z M181.2,78.9c0-0.58-0.26-0.92-0.76-0.92c-0.43,0-0.8,0.33-0.87,0.92H181.2z"/>
		<path class="st13" d="M182.27,79.79v-1.72h-0.49v-0.53l0.53-0.04l0.08-0.94h0.59v0.94h0.88v0.57h-0.88v1.72
			c0,0.41,0.14,0.62,0.49,0.62c0.12,0,0.27-0.04,0.36-0.08l0.13,0.52c-0.19,0.06-0.42,0.12-0.67,0.12
			C182.54,80.98,182.27,80.51,182.27,79.79z"/>
		<path class="st13" d="M184.24,77.51h0.58l0.06,0.37h0.02c0.3-0.25,0.67-0.46,1.05-0.46c0.86,0,1.34,0.68,1.34,1.73
			c0,1.17-0.7,1.83-1.46,1.83c-0.3,0-0.6-0.14-0.89-0.38l0.02,0.58v1.1h-0.71V77.51z M186.54,79.16c0-0.71-0.23-1.15-0.8-1.15
			c-0.27,0-0.52,0.14-0.8,0.41v1.66c0.27,0.23,0.52,0.31,0.73,0.31C186.17,80.4,186.54,79.96,186.54,79.16z"/>
		<path class="st13" d="M187.75,80.11v-4.12h0.71v4.16c0,0.19,0.08,0.26,0.17,0.26c0.03,0,0.06,0,0.12-0.01l0.09,0.54
			c-0.09,0.03-0.2,0.06-0.38,0.06C187.94,80.98,187.75,80.66,187.75,80.11z"/>
		<path class="st13" d="M189.02,80c0-0.73,0.62-1.1,2.03-1.26c-0.01-0.39-0.15-0.74-0.65-0.74c-0.36,0-0.69,0.16-0.98,0.35
			l-0.27-0.48c0.35-0.22,0.83-0.44,1.37-0.44c0.85,0,1.23,0.54,1.23,1.44v2.04h-0.58l-0.06-0.39h-0.02
			c-0.31,0.27-0.67,0.47-1.08,0.47C189.43,80.98,189.02,80.6,189.02,80z M191.05,80.03v-0.83c-1.01,0.12-1.34,0.38-1.34,0.76
			c0,0.33,0.23,0.47,0.53,0.47C190.53,80.42,190.77,80.28,191.05,80.03z"/>
		<path class="st13" d="M192.15,79.21c0-1.13,0.78-1.78,1.68-1.78c0.43,0,0.75,0.17,0.99,0.39l-0.35,0.46
			c-0.18-0.17-0.38-0.27-0.6-0.27c-0.57,0-0.98,0.48-0.98,1.2c0,0.72,0.39,1.2,0.96,1.2c0.28,0,0.54-0.14,0.74-0.31l0.3,0.47
			c-0.31,0.28-0.72,0.42-1.1,0.42C192.86,80.98,192.15,80.33,192.15,79.21z"/>
		<path class="st13" d="M194.81,79.21c0-1.1,0.76-1.78,1.55-1.78c0.9,0,1.39,0.65,1.39,1.6c0,0.14-0.02,0.28-0.04,0.36h-2.2
			c0.06,0.65,0.46,1.04,1.05,1.04c0.3,0,0.56-0.09,0.81-0.25l0.25,0.45c-0.31,0.21-0.7,0.36-1.15,0.36
			C195.55,80.98,194.81,80.33,194.81,79.21z M197.13,78.9c0-0.58-0.26-0.92-0.76-0.92c-0.43,0-0.8,0.33-0.87,0.92H197.13z"/>
	</g>
	
		<linearGradient id="SVGID_00000177481265624396186190000013201866943705470601_" gradientUnits="userSpaceOnUse" x1="68.5278" y1="48.1368" x2="117.1121" y2="48.1368">
		<stop  offset="0" style="stop-color:#7AC3ED"/>
		<stop  offset="1" style="stop-color:#D1ADD2"/>
	</linearGradient>
	<path style="fill:url(#SVGID_00000177481265624396186190000013201866943705470601_);" d="M110.94,54.31H74.7
		c-3.41,0-6.17-2.76-6.17-6.17v0c0-3.41,2.76-6.17,6.17-6.17h36.24c3.41,0,6.17,2.76,6.17,6.17v0
		C117.11,51.55,114.35,54.31,110.94,54.31z"/>
	<g>
		<path class="st23" d="M74.06,46.15h2.8v0.76h-1.89v1.06h1.6v0.76h-1.6v1.22h1.96v0.76h-2.87V46.15z"/>
		<path class="st23" d="M78.18,48.92l-1.01-1.65h0.97l0.35,0.61c0.1,0.2,0.2,0.39,0.31,0.59h0.02c0.08-0.19,0.17-0.39,0.25-0.59
			l0.29-0.61h0.94l-1.01,1.76l1.08,1.7H79.4l-0.38-0.64c-0.11-0.2-0.22-0.41-0.33-0.6h-0.03c-0.1,0.2-0.19,0.4-0.29,0.6l-0.32,0.64
			H77.1L78.18,48.92z"/>
		<path class="st23" d="M80.96,47.26h0.74l0.07,0.36h0.02c0.29-0.25,0.65-0.44,1.02-0.44c0.85,0,1.36,0.7,1.36,1.76
			c0,1.18-0.71,1.87-1.47,1.87c-0.3,0-0.59-0.14-0.86-0.38L81.86,51v1.05h-0.91V47.26z M83.23,48.95c0-0.66-0.21-1.02-0.68-1.02
			c-0.23,0-0.44,0.12-0.68,0.36v1.52c0.22,0.19,0.44,0.26,0.62,0.26C82.91,50.06,83.23,49.7,83.23,48.95z"/>
		<path class="st23" d="M84.71,48.99c0-1.12,0.79-1.81,1.61-1.81c0.95,0,1.44,0.7,1.44,1.65c0,0.17-0.02,0.34-0.04,0.42H85.6
			c0.07,0.57,0.44,0.86,0.96,0.86c0.28,0,0.53-0.09,0.78-0.24l0.31,0.56c-0.34,0.23-0.78,0.38-1.2,0.38
			C85.47,50.8,84.71,50.13,84.71,48.99z M86.99,48.64c0-0.46-0.21-0.76-0.65-0.76c-0.36,0-0.68,0.26-0.75,0.76H86.99z"/>
		<path class="st23" d="M88.51,47.26h0.74l0.07,0.46h0.02c0.3-0.3,0.65-0.54,1.12-0.54c0.75,0,1.07,0.52,1.07,1.39v2.15h-0.91v-2.04
			c0-0.54-0.15-0.72-0.49-0.72c-0.28,0-0.46,0.14-0.72,0.39v2.38h-0.91V47.26z"/>
		<path class="st23" d="M92.27,48.99c0-1.12,0.7-1.81,1.45-1.81c0.39,0,0.63,0.15,0.88,0.38l-0.03-0.54v-1.22h0.9v4.92h-0.73
			l-0.07-0.36h-0.02c-0.25,0.25-0.6,0.44-0.96,0.44C92.82,50.8,92.27,50.13,92.27,48.99z M94.56,49.7v-1.52
			c-0.21-0.19-0.43-0.26-0.65-0.26c-0.39,0-0.72,0.37-0.72,1.06c0,0.72,0.26,1.07,0.72,1.07C94.16,50.06,94.36,49.96,94.56,49.7z"/>
		<path class="st23" d="M96.26,49.78c0-0.74,0.6-1.13,1.99-1.28c-0.02-0.34-0.17-0.6-0.59-0.6c-0.32,0-0.63,0.14-0.95,0.33
			l-0.33-0.6c0.41-0.25,0.9-0.46,1.44-0.46c0.88,0,1.33,0.52,1.33,1.52v2.02h-0.74l-0.06-0.37h-0.02c-0.3,0.26-0.65,0.46-1.04,0.46
			C96.67,50.8,96.26,50.37,96.26,49.78z M98.26,49.76v-0.7c-0.85,0.11-1.13,0.34-1.13,0.65c0,0.27,0.19,0.39,0.46,0.39
			C97.84,50.09,98.04,49.97,98.26,49.76z"/>
		<path class="st23" d="M100.9,50.35h-0.02l-0.08,0.36h-0.71v-4.92h0.91v1.24l-0.02,0.56c0.27-0.25,0.62-0.41,0.96-0.41
			c0.85,0,1.36,0.7,1.36,1.75c0,1.19-0.71,1.88-1.47,1.88C101.51,50.8,101.17,50.64,100.9,50.35z M102.35,48.95
			c0-0.66-0.21-1.02-0.68-1.02c-0.23,0-0.44,0.12-0.68,0.36v1.52c0.22,0.19,0.44,0.26,0.62,0.26
			C102.03,50.06,102.35,49.7,102.35,48.95z"/>
		<path class="st23" d="M104.05,49.75v-3.96h0.91v3.99c0,0.21,0.09,0.28,0.18,0.28c0.04,0,0.06,0,0.12-0.01l0.11,0.67
			c-0.1,0.04-0.25,0.08-0.47,0.08C104.28,50.8,104.05,50.39,104.05,49.75z"/>
		<path class="st23" d="M105.78,48.99c0-1.12,0.79-1.81,1.61-1.81c0.95,0,1.44,0.7,1.44,1.65c0,0.17-0.02,0.34-0.04,0.42h-2.13
			c0.07,0.57,0.44,0.86,0.96,0.86c0.28,0,0.53-0.09,0.78-0.24l0.31,0.56c-0.34,0.23-0.78,0.38-1.2,0.38
			C106.53,50.8,105.78,50.13,105.78,48.99z M108.06,48.64c0-0.46-0.21-0.76-0.65-0.76c-0.36,0-0.68,0.26-0.75,0.76H108.06z"/>
		<path class="st23" d="M109.25,50.32l0.41-0.57c0.31,0.24,0.6,0.38,0.93,0.38c0.35,0,0.5-0.15,0.5-0.36c0-0.26-0.36-0.38-0.72-0.52
			c-0.44-0.17-0.93-0.43-0.93-1.01c0-0.62,0.5-1.06,1.29-1.06c0.5,0,0.89,0.21,1.17,0.43l-0.41,0.55c-0.25-0.18-0.49-0.3-0.74-0.3
			c-0.31,0-0.46,0.14-0.46,0.33c0,0.25,0.32,0.35,0.68,0.48c0.46,0.17,0.96,0.4,0.96,1.04c0,0.6-0.48,1.09-1.38,1.09
			C110.1,50.8,109.6,50.6,109.25,50.32z"/>
	</g>
	
		<linearGradient id="SVGID_00000159434552780625403800000004134397271297485199_" gradientUnits="userSpaceOnUse" x1="68.5278" y1="69.0371" x2="117.1121" y2="69.0371">
		<stop  offset="0" style="stop-color:#456CB4"/>
		<stop  offset="1" style="stop-color:#9654A1"/>
	</linearGradient>
	<path style="fill:url(#SVGID_00000159434552780625403800000004134397271297485199_);" d="M110.94,75.21H74.7
		c-3.41,0-6.17-2.76-6.17-6.17v0c0-3.41,2.76-6.17,6.17-6.17h36.24c3.41,0,6.17,2.76,6.17,6.17v0
		C117.11,72.45,114.35,75.21,110.94,75.21z"/>
	<g>
		<path class="st13" d="M84.36,67.07h0.82l0.83,2.3c0.1,0.3,0.2,0.61,0.3,0.91h0.03c0.11-0.3,0.19-0.61,0.3-0.91l0.82-2.3h0.83v4.55
			h-0.67v-2.25c0-0.41,0.06-0.99,0.09-1.41h-0.02l-0.36,1.05l-0.79,2.17H86.1l-0.8-2.17l-0.36-1.05h-0.02
			c0.03,0.41,0.09,1,0.09,1.41v2.25h-0.64V67.07z"/>
		<path class="st13" d="M89.18,69.92c0-1.13,0.76-1.78,1.6-1.78c0.84,0,1.6,0.65,1.6,1.78c0,1.13-0.76,1.78-1.6,1.78
			C89.94,71.7,89.18,71.05,89.18,69.92z M91.65,69.92c0-0.72-0.33-1.2-0.87-1.2c-0.53,0-0.86,0.48-0.86,1.2
			c0,0.72,0.33,1.2,0.86,1.2C91.31,71.12,91.65,70.64,91.65,69.92z"/>
		<path class="st13" d="M92.98,69.92c0-1.1,0.7-1.78,1.46-1.78c0.39,0,0.64,0.15,0.91,0.38l-0.03-0.56V66.7h0.71v4.92h-0.58
			l-0.06-0.38h-0.02c-0.25,0.26-0.6,0.46-0.99,0.46C93.53,71.7,92.98,71.05,92.98,69.92z M95.32,70.7v-1.66
			c-0.25-0.23-0.49-0.31-0.75-0.31c-0.48,0-0.86,0.45-0.86,1.18c0,0.77,0.3,1.2,0.83,1.2C94.83,71.11,95.07,70.98,95.32,70.7z"/>
		<path class="st13" d="M96.85,69.92c0-1.1,0.76-1.78,1.55-1.78c0.9,0,1.39,0.65,1.39,1.6c0,0.14-0.02,0.28-0.04,0.36h-2.2
			c0.06,0.65,0.46,1.04,1.05,1.04c0.3,0,0.56-0.09,0.81-0.25l0.25,0.45c-0.31,0.21-0.7,0.36-1.15,0.36
			C97.58,71.7,96.85,71.04,96.85,69.92z M99.17,69.61c0-0.58-0.27-0.92-0.76-0.92c-0.43,0-0.8,0.33-0.87,0.92H99.17z"/>
		<path class="st13" d="M100.58,70.82V66.7h0.71v4.16c0,0.19,0.08,0.26,0.17,0.26c0.03,0,0.06,0,0.12-0.01l0.09,0.54
			c-0.09,0.03-0.2,0.06-0.38,0.06C100.77,71.7,100.58,71.37,100.58,70.82z"/>
	</g>
	
		<linearGradient id="SVGID_00000031916817486157929960000010301122848433966486_" gradientUnits="userSpaceOnUse" x1="269.4601" y1="59.0635" x2="296.1481" y2="59.0635">
		<stop  offset="0" style="stop-color:#456CB4"/>
		<stop  offset="1" style="stop-color:#9654A1"/>
	</linearGradient>
	<circle style="fill:url(#SVGID_00000031916817486157929960000010301122848433966486_);" cx="282.8" cy="59.06" r="13.34"/>
	<g>
		<path class="st13" d="M276.98,59.6v-2.6h0.72v2.65c0,1.02,0.41,1.36,0.97,1.36c0.57,0,0.99-0.33,0.99-1.36v-2.65h0.69v2.6
			c0,1.48-0.68,2.03-1.68,2.03C277.66,61.63,276.98,61.08,276.98,59.6z"/>
		<path class="st13" d="M281.07,61.17l0.33-0.46c0.3,0.23,0.6,0.39,0.96,0.39c0.41,0,0.6-0.2,0.6-0.46c0-0.31-0.38-0.44-0.75-0.59
			c-0.46-0.17-0.96-0.41-0.96-0.99c0-0.57,0.46-0.99,1.21-0.99c0.45,0,0.83,0.18,1.1,0.4l-0.33,0.44c-0.23-0.17-0.48-0.3-0.75-0.3
			c-0.38,0-0.55,0.19-0.55,0.42c0,0.29,0.33,0.4,0.7,0.54c0.48,0.18,1,0.39,1,1.03c0,0.57-0.45,1.03-1.29,1.03
			C281.87,61.63,281.4,61.44,281.07,61.17z"/>
		<path class="st13" d="M284.14,59.86c0-1.1,0.76-1.78,1.55-1.78c0.9,0,1.39,0.65,1.39,1.6c0,0.14-0.02,0.28-0.04,0.36h-2.2
			c0.06,0.65,0.46,1.04,1.05,1.04c0.3,0,0.56-0.09,0.81-0.25l0.25,0.45c-0.31,0.21-0.7,0.36-1.15,0.36
			C284.88,61.63,284.14,60.98,284.14,59.86z M286.46,59.55c0-0.58-0.27-0.92-0.76-0.92c-0.43,0-0.8,0.33-0.87,0.92H286.46z"/>
		<path class="st13" d="M287.87,58.16h0.58l0.06,0.61h0.02c0.24-0.44,0.6-0.7,0.96-0.7c0.17,0,0.28,0.02,0.38,0.07l-0.13,0.62
			c-0.12-0.04-0.2-0.06-0.34-0.06c-0.28,0-0.61,0.19-0.82,0.73v2.12h-0.71V58.16z"/>
	</g>
	
		<linearGradient id="SVGID_00000061461109101833895740000006347341646217377927_" gradientUnits="userSpaceOnUse" x1="11.9057" y1="37.8948" x2="38.5938" y2="37.8948">
		<stop  offset="0" style="stop-color:#456CB4"/>
		<stop  offset="1" style="stop-color:#9654A1"/>
	</linearGradient>
	<circle style="fill:url(#SVGID_00000061461109101833895740000006347341646217377927_);" cx="25.25" cy="37.89" r="13.34"/>
	<g>
		<path class="st13" d="M17.8,33.02h0.87l0.34,2.09c0.06,0.45,0.13,0.9,0.2,1.36h0.02c0.09-0.46,0.18-0.92,0.27-1.36l0.5-2.09h0.73
			l0.49,2.09c0.09,0.44,0.18,0.9,0.27,1.36h0.03c0.06-0.46,0.13-0.92,0.19-1.36l0.34-2.09h0.81l-0.79,4.28h-1.06l-0.48-2.12
			c-0.07-0.34-0.13-0.66-0.19-0.99h-0.02c-0.06,0.33-0.12,0.66-0.19,0.99l-0.47,2.12h-1.05L17.8,33.02z"/>
		<path class="st13" d="M23.28,35.15c0-1.39,0.78-2.2,1.91-2.2c1.13,0,1.91,0.82,1.91,2.2s-0.78,2.24-1.91,2.24
			C24.06,37.38,23.28,36.53,23.28,35.15z M26.23,35.15c0-0.92-0.4-1.47-1.04-1.47c-0.64,0-1.04,0.55-1.04,1.47
			c0,0.91,0.4,1.5,1.04,1.5C25.83,36.64,26.23,36.06,26.23,35.15z"/>
		<path class="st13" d="M27.51,33.02h0.87l0.34,2.09c0.06,0.45,0.13,0.9,0.2,1.36h0.02c0.09-0.46,0.18-0.92,0.27-1.36l0.5-2.09h0.73
			l0.49,2.09c0.09,0.44,0.18,0.9,0.27,1.36h0.03c0.06-0.46,0.13-0.92,0.19-1.36l0.34-2.09h0.81l-0.79,4.28h-1.06l-0.48-2.12
			c-0.07-0.34-0.13-0.66-0.19-0.99h-0.02c-0.06,0.33-0.12,0.66-0.19,0.99l-0.47,2.12h-1.05L27.51,33.02z"/>
		<path class="st13" d="M19.14,39.96h0.86v4.28h-0.86V39.96z"/>
		<path class="st13" d="M21.1,43.11v-1.43h-0.46v-0.63l0.5-0.04l0.1-0.87h0.71V41h0.8v0.67h-0.8v1.43c0,0.37,0.15,0.54,0.44,0.54
			c0.1,0,0.23-0.03,0.32-0.07l0.14,0.62c-0.17,0.06-0.4,0.12-0.68,0.12C21.39,44.32,21.1,43.83,21.1,43.11z"/>
		<path class="st13" d="M23.09,42.62c0-1.05,0.74-1.7,1.51-1.7c0.89,0,1.35,0.65,1.35,1.54c0,0.16-0.02,0.32-0.04,0.39h-1.99
			c0.07,0.53,0.42,0.81,0.9,0.81c0.27,0,0.5-0.08,0.73-0.23l0.29,0.52c-0.32,0.22-0.73,0.36-1.13,0.36
			C23.8,44.32,23.09,43.69,23.09,42.62z M25.22,42.29c0-0.43-0.2-0.71-0.61-0.71c-0.34,0-0.64,0.24-0.71,0.71H25.22z"/>
		<path class="st13" d="M26.65,41h0.69l0.06,0.43h0.02c0.27-0.28,0.57-0.51,0.99-0.51c0.46,0,0.73,0.21,0.89,0.57
			c0.29-0.31,0.61-0.57,1.03-0.57c0.69,0,1.01,0.49,1.01,1.3v2.02H30.5v-1.91c0-0.5-0.14-0.68-0.45-0.68
			c-0.19,0-0.39,0.12-0.62,0.36v2.23h-0.84v-1.91c0-0.5-0.15-0.68-0.46-0.68c-0.19,0-0.39,0.12-0.62,0.36v2.23h-0.85V41z"/>
	</g>
	
		<linearGradient id="SVGID_00000085222038266202218460000009643970664118543015_" gradientUnits="userSpaceOnUse" x1="11.9057" y1="80.6563" x2="38.5938" y2="80.6563">
		<stop  offset="0" style="stop-color:#456CB4"/>
		<stop  offset="1" style="stop-color:#9654A1"/>
	</linearGradient>
	<circle style="fill:url(#SVGID_00000085222038266202218460000009643970664118543015_);" cx="25.25" cy="80.66" r="13.34"/>
	<g>
		<path class="st13" d="M14.93,76.16h1.41c0.95,0,1.68,0.34,1.68,1.35c0,0.98-0.73,1.42-1.65,1.42h-0.57v1.52h-0.86V76.16z
			 M16.3,78.25c0.59,0,0.87-0.25,0.87-0.74c0-0.5-0.31-0.66-0.9-0.66h-0.49v1.4H16.3z"/>
		<path class="st13" d="M18.32,79.57c0-0.69,0.56-1.06,1.87-1.2c-0.02-0.32-0.16-0.56-0.56-0.56c-0.3,0-0.59,0.13-0.89,0.31
			l-0.31-0.56c0.38-0.24,0.84-0.43,1.35-0.43c0.82,0,1.24,0.49,1.24,1.43v1.89h-0.69l-0.06-0.35h-0.02
			c-0.28,0.24-0.61,0.43-0.98,0.43C18.7,80.53,18.32,80.12,18.32,79.57z M20.19,79.55v-0.65c-0.79,0.1-1.06,0.32-1.06,0.61
			c0,0.25,0.18,0.36,0.43,0.36C19.8,79.86,19.98,79.75,20.19,79.55z"/>
		<path class="st13" d="M21.9,77.21h0.69l0.06,0.57h0.02c0.24-0.42,0.58-0.65,0.92-0.65c0.18,0,0.28,0.03,0.38,0.07l-0.14,0.73
			c-0.12-0.03-0.21-0.05-0.34-0.05c-0.25,0-0.56,0.17-0.74,0.64v1.93H21.9V77.21z"/>
		<path class="st13" d="M24.54,79.32v-1.43h-0.46v-0.63l0.5-0.04l0.1-0.87h0.71v0.87h0.8v0.67h-0.8v1.43c0,0.37,0.15,0.54,0.44,0.54
			c0.1,0,0.23-0.03,0.32-0.07l0.14,0.62c-0.17,0.06-0.4,0.12-0.68,0.12C24.83,80.53,24.54,80.04,24.54,79.32z"/>
		<path class="st13" d="M26.85,77.21h0.69l0.06,0.43h0.02c0.28-0.28,0.61-0.51,1.05-0.51c0.7,0,1,0.49,1,1.3v2.02h-0.85v-1.91
			c0-0.5-0.14-0.68-0.46-0.68c-0.27,0-0.43,0.13-0.67,0.36v2.23h-0.85V77.21z"/>
		<path class="st13" d="M30.35,78.83c0-1.05,0.74-1.7,1.51-1.7c0.89,0,1.35,0.65,1.35,1.54c0,0.16-0.02,0.32-0.04,0.39h-1.99
			c0.07,0.53,0.42,0.81,0.9,0.81c0.27,0,0.5-0.08,0.73-0.23l0.29,0.52c-0.32,0.22-0.73,0.36-1.13,0.36
			C31.06,80.53,30.35,79.9,30.35,78.83z M32.48,78.5c0-0.43-0.2-0.71-0.61-0.71c-0.34,0-0.64,0.24-0.71,0.71H32.48z"/>
		<path class="st13" d="M33.91,77.21h0.69l0.06,0.57h0.02c0.24-0.42,0.58-0.65,0.92-0.65c0.18,0,0.28,0.03,0.38,0.07l-0.14,0.73
			c-0.12-0.03-0.21-0.05-0.34-0.05c-0.25,0-0.56,0.17-0.74,0.64v1.93h-0.85V77.21z"/>
		<path class="st13" d="M19.14,83.1h0.86v4.28h-0.86V83.1z"/>
		<path class="st13" d="M21.1,86.25v-1.43h-0.46v-0.63l0.5-0.04l0.1-0.87h0.71v0.87h0.8v0.67h-0.8v1.43c0,0.37,0.15,0.54,0.44,0.54
			c0.1,0,0.23-0.03,0.32-0.07l0.14,0.62c-0.17,0.06-0.4,0.12-0.68,0.12C21.39,87.47,21.1,86.98,21.1,86.25z"/>
		<path class="st13" d="M23.09,85.77c0-1.05,0.74-1.7,1.51-1.7c0.89,0,1.35,0.65,1.35,1.54c0,0.16-0.02,0.32-0.04,0.39h-1.99
			c0.07,0.53,0.42,0.81,0.9,0.81c0.27,0,0.5-0.08,0.73-0.23l0.29,0.52c-0.32,0.22-0.73,0.36-1.13,0.36
			C23.8,87.47,23.09,86.84,23.09,85.77z M25.22,85.44c0-0.43-0.2-0.71-0.61-0.71c-0.34,0-0.64,0.24-0.71,0.71H25.22z"/>
		<path class="st13" d="M26.65,84.15h0.69l0.06,0.43h0.02c0.27-0.28,0.57-0.51,0.99-0.51c0.46,0,0.73,0.21,0.89,0.57
			c0.29-0.31,0.61-0.57,1.03-0.57c0.69,0,1.01,0.49,1.01,1.3v2.02H30.5v-1.91c0-0.5-0.14-0.68-0.45-0.68
			c-0.19,0-0.39,0.12-0.62,0.36v2.23h-0.84v-1.91c0-0.5-0.15-0.68-0.46-0.68c-0.19,0-0.39,0.12-0.62,0.36v2.23h-0.85V84.15z"/>
	</g>
	
		<linearGradient id="SVGID_00000049190738125512792810000008728670285131801517_" gradientUnits="userSpaceOnUse" x1="159.184" y1="16.6639" x2="207.7684" y2="16.6639">
		<stop  offset="0" style="stop-color:#456CB4"/>
		<stop  offset="1" style="stop-color:#9654A1"/>
	</linearGradient>
	<path style="fill:url(#SVGID_00000049190738125512792810000008728670285131801517_);" d="M201.6,22.84h-36.24
		c-3.41,0-6.17-2.76-6.17-6.17v0c0-3.41,2.76-6.17,6.17-6.17h36.24c3.41,0,6.17,2.76,6.17,6.17v0
		C207.77,20.07,205.01,22.84,201.6,22.84z"/>
	<g>
		<g>
			<g>
				<polygon class="st29" points="176.38,13.5 175.82,16.68 175.03,13.5 173.73,13.5 172.94,16.69 172.38,13.5 170.88,13.5 
					172.14,19.81 173.56,19.81 174.38,16.5 175.2,19.81 176.62,19.81 177.88,13.5 				"/>
				<path class="st29" d="M182.07,13.9c-0.22-0.16-0.48-0.28-0.76-0.36c-0.27-0.07-0.57-0.1-0.87-0.1c-0.31,0-0.6,0.03-0.88,0.1
					c-0.29,0.07-0.55,0.19-0.77,0.36c-0.23,0.17-0.41,0.39-0.53,0.66c-0.13,0.26-0.19,0.59-0.19,0.96v2.3
					c0,0.37,0.07,0.69,0.19,0.96c0.13,0.27,0.31,0.49,0.54,0.66c0.22,0.17,0.48,0.28,0.77,0.36c0.28,0.07,0.57,0.1,0.88,0.1
					c0.31,0,0.6-0.03,0.87-0.1c0.29-0.07,0.54-0.19,0.76-0.36c0.23-0.17,0.41-0.39,0.53-0.66c0.13-0.26,0.19-0.59,0.19-0.96v-2.28
					c0-0.37-0.06-0.69-0.19-0.96C182.48,14.29,182.3,14.07,182.07,13.9z M180.44,18.52c-0.14,0-0.27-0.01-0.39-0.04
					c-0.1-0.03-0.18-0.06-0.25-0.12c-0.06-0.05-0.11-0.12-0.15-0.21c-0.04-0.1-0.06-0.23-0.06-0.38v-2.22
					c0-0.16,0.02-0.28,0.06-0.38c0.04-0.09,0.08-0.16,0.14-0.21c0.07-0.06,0.15-0.09,0.25-0.12c0.11-0.03,0.24-0.04,0.39-0.04
					c0.14,0,0.27,0.01,0.39,0.04c0.1,0.02,0.18,0.06,0.24,0.12c0.06,0.05,0.11,0.12,0.14,0.21c0.04,0.1,0.06,0.23,0.06,0.38v2.22
					c0,0.16-0.02,0.28-0.06,0.38c-0.04,0.09-0.08,0.16-0.14,0.21c-0.06,0.05-0.14,0.09-0.24,0.12
					C180.71,18.5,180.58,18.52,180.44,18.52z"/>
				<polygon class="st29" points="188.49,13.5 187.93,16.68 187.14,13.5 185.84,13.5 185.06,16.69 184.5,13.5 182.99,13.5 
					184.25,19.81 185.67,19.81 186.49,16.5 187.31,19.81 188.73,19.81 189.99,13.5 				"/>
			</g>
			<g>
				<path class="st30" d="M195.19,18.4c0.04-0.63,0.35-1.19,0.82-1.56c-0.06-0.24-0.17-0.47-0.31-0.66
					c-0.14,0.08-0.3,0.13-0.46,0.17c0,0,0,0.01,0,0.01c0,0.07-0.05,0.13-0.12,0.14c-0.03,0.42-0.21,0.8-0.49,1.09v0.59
					c0.14,0.12,0.3,0.22,0.47,0.29C195.12,18.43,195.15,18.4,195.19,18.4z"/>
				<path class="st30" d="M196.07,18.7c-0.04,0-0.07,0.01-0.11,0.01c-0.22,0-0.43-0.03-0.63-0.09c-0.02,0.03-0.05,0.06-0.09,0.07
					c0.03,0.42,0.18,0.81,0.42,1.13h0.41V18.7z"/>
				<path class="st30" d="M191.66,16.21c0.05,0.01,0.09,0.05,0.1,0.1c0.42-0.09,0.78-0.33,1.02-0.66c-0.25-0.14-0.54-0.23-0.85-0.24
					C191.78,15.64,191.68,15.92,191.66,16.21z"/>
				<path class="st30" d="M194.94,15.56c0.1,0.2,0.16,0.41,0.18,0.64c0.05,0.01,0.09,0.04,0.11,0.08c0.16-0.03,0.3-0.09,0.44-0.16
					C195.48,15.88,195.23,15.69,194.94,15.56z"/>
				<path class="st30" d="M194.96,16.37c-0.02,0-0.05,0-0.07,0c-0.32,0-0.61-0.09-0.87-0.23c-0.03,0.03-0.06,0.05-0.11,0.05
					c-0.01,0-0.01,0-0.02,0c-0.02,0.11-0.03,0.23-0.03,0.35c0,0.15,0.01,0.29,0.04,0.42c0.08-0.06,0.17-0.11,0.28-0.11
					c0.24,0,0.44,0.2,0.44,0.44v0.2c0.25-0.27,0.41-0.62,0.44-1.01C195.01,16.47,194.97,16.43,194.96,16.37z"/>
				<path class="st30" d="M194.13,15.41c-0.24,0.01-0.46,0.06-0.67,0.14c0.1,0.15,0.22,0.28,0.35,0.39
					c0.02-0.02,0.05-0.03,0.09-0.04C193.95,15.73,194.03,15.56,194.13,15.41z"/>
				<path class="st30" d="M191.6,16.21c0.02-0.29,0.12-0.57,0.27-0.8c-0.01,0-0.01,0-0.02,0c-0.56,0-1.06,0.25-1.41,0.64
					c0.28,0.19,0.61,0.3,0.97,0.3c0.02,0,0.05,0,0.07,0C191.49,16.27,191.54,16.22,191.6,16.21z"/>
				<path class="st30" d="M195.06,16.21c-0.02-0.24-0.09-0.47-0.2-0.68c-0.21-0.08-0.44-0.13-0.67-0.13
					c-0.1,0.16-0.18,0.33-0.24,0.51c0.06,0.02,0.1,0.07,0.1,0.13c0,0.02,0,0.03-0.01,0.05c0.25,0.14,0.54,0.23,0.84,0.23
					c0.03,0,0.05,0,0.08,0C194.97,16.26,195.01,16.22,195.06,16.21z"/>
				<path class="st30" d="M193.86,17c-0.03-0.15-0.05-0.31-0.05-0.47c0-0.13,0.01-0.25,0.03-0.37c-0.04-0.02-0.08-0.07-0.08-0.12
					c0-0.02,0.01-0.04,0.02-0.06c-0.14-0.12-0.27-0.25-0.37-0.41c-0.14,0.06-0.27,0.14-0.39,0.24c-0.06-0.05-0.13-0.09-0.19-0.13
					c-0.25,0.34-0.63,0.59-1.06,0.68c-0.01,0.06-0.05,0.11-0.11,0.12c0.01,0.13,0.04,0.27,0.08,0.39c0.04-0.01,0.08-0.02,0.12-0.02
					c0.24,0,0.44,0.2,0.44,0.44v0.39c0.29,0.23,0.66,0.37,1.07,0.37c0.13,0,0.26-0.02,0.38-0.05V17.3
					C193.74,17.18,193.79,17.08,193.86,17z"/>
				<path class="st30" d="M196.03,16.89c-0.45,0.36-0.74,0.9-0.78,1.51c0.06,0.02,0.11,0.07,0.11,0.14c0,0.01,0,0.01,0,0.02
					c0.19,0.06,0.4,0.09,0.62,0.09c0.04,0,0.07,0,0.11-0.01V17.3C196.07,17.16,196.06,17.02,196.03,16.89z"/>
				<path class="st30" d="M192.29,17.75v2.06h1.45v-1.74c-0.12,0.03-0.25,0.04-0.38,0.04C192.96,18.11,192.59,17.98,192.29,17.75z"
					/>
				<path class="st30" d="M195.07,18.54c0-0.01,0-0.02,0.01-0.03c-0.16-0.07-0.31-0.17-0.45-0.28v1.58h0.98
					c-0.23-0.32-0.38-0.71-0.41-1.13C195.12,18.67,195.07,18.61,195.07,18.54z"/>
				<path class="st30" d="M191.49,16.39c-0.03,0-0.05,0-0.08,0c-0.37,0-0.72-0.12-1-0.31c-0.28,0.33-0.44,0.75-0.44,1.21v2.51h1.45
					V17.3c0-0.18,0.11-0.34,0.27-0.41c-0.04-0.13-0.07-0.26-0.08-0.4C191.55,16.48,191.51,16.44,191.49,16.39z"/>
			</g>
		</g>
	</g>
</g>
<g>
	<path class="st13" d="M119.47,134.61v-0.52l3.35-1.32v0.56l-1.65,0.61l-1.05,0.39v0.03l1.05,0.39l1.65,0.61v0.56L119.47,134.61z"/>
	<path class="st13" d="M124.84,131.8h0.67l0.54,2.8c0.1,0.55,0.2,1.11,0.3,1.66h0.03c0.12-0.55,0.25-1.11,0.37-1.66l0.71-2.8h0.6
		l0.71,2.8c0.13,0.55,0.25,1.1,0.36,1.66h0.04c0.1-0.56,0.2-1.11,0.29-1.66l0.54-2.8h0.62l-1.06,5.14h-0.78l-0.78-3.1
		c-0.09-0.41-0.17-0.78-0.25-1.17h-0.03c-0.08,0.39-0.17,0.76-0.26,1.17l-0.76,3.1h-0.77L124.84,131.8z"/>
	<path class="st13" d="M131.16,134.36c0-1.65,0.9-2.65,2.19-2.65c1.29,0,2.19,1,2.19,2.65c0,1.65-0.9,2.67-2.19,2.67
		C132.07,137.04,131.16,136.01,131.16,134.36z M134.88,134.36c0-1.29-0.61-2.08-1.53-2.08c-0.92,0-1.53,0.79-1.53,2.08
		c0,1.28,0.6,2.11,1.53,2.11C134.27,136.47,134.88,135.64,134.88,134.36z"/>
	<path class="st13" d="M136.08,131.8h0.67l0.54,2.8c0.1,0.55,0.2,1.11,0.3,1.66h0.03c0.12-0.55,0.25-1.11,0.37-1.66l0.71-2.8h0.6
		l0.71,2.8c0.13,0.55,0.25,1.1,0.36,1.66h0.04c0.1-0.56,0.2-1.11,0.29-1.66l0.54-2.8h0.62l-1.06,5.14h-0.78l-0.78-3.1
		c-0.09-0.41-0.17-0.78-0.25-1.17h-0.03c-0.08,0.39-0.17,0.76-0.26,1.17l-0.76,3.1h-0.77L136.08,131.8z"/>
	<path class="st13" d="M142.69,133.14h0.52l0.06,0.55h0.02c0.33-0.36,0.73-0.65,1.18-0.65c0.58,0,0.9,0.28,1.05,0.73
		c0.39-0.43,0.79-0.73,1.25-0.73c0.78,0,1.16,0.52,1.16,1.49v2.41h-0.64v-2.33c0-0.71-0.22-1.02-0.71-1.02
		c-0.29,0-0.6,0.19-0.96,0.58v2.76H145v-2.33c0-0.71-0.22-1.02-0.71-1.02c-0.29,0-0.61,0.19-0.96,0.58v2.76h-0.64V133.14z"/>
	<path class="st13" d="M150.8,131.8h0.67l1.87,3.24l0.55,1.06h0.04c-0.04-0.52-0.08-1.09-0.08-1.62v-2.67h0.62v5.14h-0.67
		l-1.87-3.24l-0.55-1.06h-0.03c0.03,0.52,0.08,1.07,0.08,1.6v2.7h-0.62V131.8z"/>
	<path class="st13" d="M155.85,131.8h2.96v0.55h-2.31v1.74h1.96v0.55h-1.96v2.3h-0.65V131.8z"/>
	<path class="st13" d="M160.79,132.36h-1.55v-0.55h3.76v0.55h-1.55v4.59h-0.65V132.36z"/>
	<path class="st13" d="M165.11,136.27l0.39-0.44c0.36,0.38,0.88,0.64,1.42,0.64c0.67,0,1.08-0.34,1.08-0.84
		c0-0.53-0.37-0.69-0.85-0.91l-0.74-0.32c-0.48-0.2-1.04-0.57-1.04-1.32c0-0.79,0.69-1.37,1.62-1.37c0.61,0,1.15,0.26,1.51,0.64
		l-0.34,0.41c-0.31-0.29-0.69-0.48-1.17-0.48c-0.58,0-0.96,0.29-0.96,0.76c0,0.5,0.45,0.69,0.85,0.85l0.74,0.32
		c0.6,0.26,1.06,0.61,1.06,1.37c0,0.81-0.67,1.46-1.74,1.46C166.18,137.04,165.55,136.74,165.11,136.27z"/>
	<path class="st13" d="M169.31,135.05c0-1.23,0.83-2,1.72-2c0.97,0,1.51,0.7,1.51,1.79c0,0.14-0.01,0.27-0.03,0.36h-2.56
		c0.04,0.81,0.54,1.33,1.26,1.33c0.37,0,0.67-0.11,0.95-0.3l0.23,0.42c-0.34,0.22-0.74,0.39-1.26,0.39
		C170.13,137.04,169.31,136.3,169.31,135.05z M171.98,134.73c0-0.76-0.35-1.18-0.95-1.18c-0.54,0-1.02,0.43-1.09,1.18H171.98z"/>
	<path class="st13" d="M173.48,133.14H174l0.06,0.69h0.02c0.27-0.48,0.65-0.79,1.08-0.79c0.17,0,0.29,0.02,0.41,0.08l-0.12,0.56
		c-0.13-0.05-0.22-0.06-0.37-0.06c-0.31,0-0.71,0.22-0.96,0.88v2.44h-0.64V133.14z"/>
	<path class="st13" d="M175.84,133.14h0.67l0.71,2.16c0.12,0.37,0.24,0.76,0.36,1.12h0.03c0.12-0.36,0.24-0.75,0.35-1.12l0.72-2.16
		h0.63l-1.35,3.8h-0.74L175.84,133.14z"/>
	<path class="st13" d="M179.94,131.93c0-0.25,0.18-0.41,0.43-0.41c0.25,0,0.43,0.17,0.43,0.41c0,0.26-0.17,0.43-0.43,0.43
		C180.11,132.36,179.94,132.19,179.94,131.93z M180.04,133.14h0.64v3.8h-0.64V133.14z"/>
	<path class="st13" d="M181.68,135.05c0-1.27,0.86-2,1.83-2c0.5,0,0.84,0.21,1.11,0.45l-0.33,0.42c-0.22-0.2-0.46-0.34-0.76-0.34
		c-0.69,0-1.2,0.6-1.2,1.47c0,0.88,0.48,1.46,1.18,1.46c0.35,0,0.66-0.16,0.9-0.38l0.28,0.43c-0.34,0.31-0.78,0.48-1.23,0.48
		C182.46,137.04,181.68,136.31,181.68,135.05z"/>
	<path class="st13" d="M185.08,135.05c0-1.23,0.83-2,1.72-2c0.97,0,1.51,0.7,1.51,1.79c0,0.14-0.01,0.27-0.03,0.36h-2.56
		c0.04,0.81,0.54,1.33,1.26,1.33c0.37,0,0.67-0.11,0.95-0.3l0.23,0.42c-0.34,0.22-0.74,0.39-1.26,0.39
		C185.89,137.04,185.08,136.3,185.08,135.05z M187.75,134.73c0-0.76-0.35-1.18-0.95-1.18c-0.54,0-1.02,0.43-1.09,1.18H187.75z"/>
	<path class="st13" d="M190.43,135.36l1.65-0.61l1.05-0.39v-0.03l-1.05-0.39l-1.65-0.61v-0.56l3.35,1.32v0.52l-3.35,1.32V135.36z"/>
</g>
</svg>
