<?xml version="1.0" encoding="utf-8"?>
<!-- Generator: Adobe Illustrator 27.2.0, SVG Export Plug-In . SVG Version: 6.00 Build 0)  -->
<svg version="1.1" id="Layer_1" xmlns="http://www.w3.org/2000/svg" xmlns:xlink="http://www.w3.org/1999/xlink" x="0px" y="0px"
	 viewBox="0 0 308.05 259.98" style="enable-background:new 0 0 308.05 259.98;" xml:space="preserve">
<style type="text/css">
	.st0{fill:url(#SVGID_1_);}
	.st1{fill:url(#SVGID_00000086651376074485226500000010301481490465517494_);}
	.st2{fill:url(#SVGID_00000054955296807227881740000001235380314554669715_);}
	.st3{fill:url(#SVGID_00000149362485381401723580000000409633467877114017_);}
	.st4{fill:url(#SVGID_00000125597917650198057290000014272653418553856957_);}
	.st5{fill:url(#SVGID_00000052073613468687635960000007490568554940105601_);}
	.st6{fill:url(#SVGID_00000107585746818764382340000007994905583753391754_);}
	.st7{fill:url(#SVGID_00000068675518060308725920000004371609833485434266_);}
	.st8{fill:url(#SVGID_00000103235791331344611830000013105600011322455439_);}
	.st9{fill:url(#SVGID_00000032633747502243242460000018124122957165724828_);}
	.st10{fill:#65308F;}
	.st11{fill:#E90E8B;}
	.st12{fill:url(#SVGID_00000088848388610637577840000013898668860312658332_);}
	.st13{fill:#FFFFFF;}
	.st14{fill:url(#SVGID_00000080164358627731712910000016047377915674195334_);}
	.st15{fill:url(#SVGID_00000118378363583026996310000010149054747845115041_);}
	.st16{fill:url(#SVGID_00000132062519158712546740000002510807793262580656_);}
	.st17{fill:url(#SVGID_00000077295396291522786470000006265801780345284524_);}
	.st18{fill:url(#SVGID_00000139276040379136152550000017022730244603977114_);}
	.st19{opacity:0.08;fill:#FFFFFF;enable-background:new    ;}
	.st20{fill:url(#SVGID_00000159442174072073831180000005546612218940349623_);}
	.st21{fill:url(#SVGID_00000183940317984841595410000002196933395899243437_);}
	.st22{fill:url(#SVGID_00000160157852708541170740000001014036009189888416_);}
	.st23{fill:url(#SVGID_00000113342276575088980730000007702546758716856231_);}
	.st24{fill:url(#SVGID_00000037651643249746374110000008708901338339296385_);}
	.st25{fill:url(#SVGID_00000152232590733338530800000005308731298119229624_);}
	.st26{fill:url(#SVGID_00000010290600126013580490000013323706106498574730_);}
	.st27{fill:url(#SVGID_00000000186637158274401000000004675964615073926019_);}
	.st28{fill:url(#SVGID_00000101812474782139212640000000124146646852667788_);}
	.st29{fill:url(#SVGID_00000126299560329113687890000001784675925718031516_);}
	.st30{fill:url(#SVGID_00000106112529740286880270000001638174969579783081_);}
	.st31{fill:url(#SVGID_00000011710744754043264480000003555247964941264042_);}
</style>
<g>
	<g>
		
			<linearGradient id="SVGID_1_" gradientUnits="userSpaceOnUse" x1="153.9771" y1="73.4038" x2="153.9771" y2="84.2201" gradientTransform="matrix(1 0 0 -1 0 253.5139)">
			<stop  offset="0" style="stop-color:#456CB4"/>
			<stop  offset="1" style="stop-color:#9654A1"/>
		</linearGradient>
		<rect x="153.4" y="173.47" class="st0" width="1.16" height="6.64"/>
		<g>
			
				<linearGradient id="SVGID_00000134967095760257474860000011389933794706849214_" gradientUnits="userSpaceOnUse" x1="153.9771" y1="73.4079" x2="153.9771" y2="84.2242" gradientTransform="matrix(1 0 0 -1 0 253.5139)">
				<stop  offset="0" style="stop-color:#456CB4"/>
				<stop  offset="1" style="stop-color:#9654A1"/>
			</linearGradient>
			<polygon style="fill:url(#SVGID_00000134967095760257474860000011389933794706849214_);" points="156.88,174.31 153.98,169.29 
				151.08,174.31 			"/>
		</g>
	</g>
	<g>
		
			<linearGradient id="SVGID_00000023258553520718608960000014278551321807310736_" gradientUnits="userSpaceOnUse" x1="153.9771" y1="171.7084" x2="153.9771" y2="189.3997" gradientTransform="matrix(1 0 0 -1 0 253.5139)">
			<stop  offset="0" style="stop-color:#456CB4"/>
			<stop  offset="1" style="stop-color:#9654A1"/>
		</linearGradient>
		
			<rect x="153.4" y="68.29" style="fill:url(#SVGID_00000023258553520718608960000014278551321807310736_);" width="1.16" height="9.34"/>
		<g>
			
				<linearGradient id="SVGID_00000182504296356133681980000011925085187786679432_" gradientUnits="userSpaceOnUse" x1="153.9771" y1="171.7054" x2="153.9771" y2="189.3967" gradientTransform="matrix(1 0 0 -1 0 253.5139)">
				<stop  offset="0" style="stop-color:#456CB4"/>
				<stop  offset="1" style="stop-color:#9654A1"/>
			</linearGradient>
			<polygon style="fill:url(#SVGID_00000182504296356133681980000011925085187786679432_);" points="156.88,76.78 153.98,81.81 
				151.08,76.78 			"/>
		</g>
		<g>
			
				<linearGradient id="SVGID_00000051350372934704185060000015716688988487271351_" gradientUnits="userSpaceOnUse" x1="153.9771" y1="171.7083" x2="153.9771" y2="189.3996" gradientTransform="matrix(1 0 0 -1 0 253.5139)">
				<stop  offset="0" style="stop-color:#456CB4"/>
				<stop  offset="1" style="stop-color:#9654A1"/>
			</linearGradient>
			<polygon style="fill:url(#SVGID_00000051350372934704185060000015716688988487271351_);" points="156.88,69.14 153.98,64.11 
				151.08,69.14 			"/>
		</g>
	</g>
	<g>
		
			<linearGradient id="SVGID_00000032641336021417509130000008038163190902394508_" gradientUnits="userSpaceOnUse" x1="153.9771" y1="203.6251" x2="153.9771" y2="221.3164" gradientTransform="matrix(1 0 0 -1 0 253.5139)">
			<stop  offset="0" style="stop-color:#456CB4"/>
			<stop  offset="1" style="stop-color:#9654A1"/>
		</linearGradient>
		
			<rect x="153.4" y="36.37" style="fill:url(#SVGID_00000032641336021417509130000008038163190902394508_);" width="1.16" height="9.34"/>
		<g>
			
				<linearGradient id="SVGID_00000029757712353580548680000001757251075173536920_" gradientUnits="userSpaceOnUse" x1="153.9771" y1="203.6258" x2="153.9771" y2="221.317" gradientTransform="matrix(1 0 0 -1 0 253.5139)">
				<stop  offset="0" style="stop-color:#456CB4"/>
				<stop  offset="1" style="stop-color:#9654A1"/>
			</linearGradient>
			<polygon style="fill:url(#SVGID_00000029757712353580548680000001757251075173536920_);" points="156.88,44.87 153.98,49.89 
				151.08,44.87 			"/>
		</g>
		<g>
			
				<linearGradient id="SVGID_00000105394366338466980180000006086428369802091399_" gradientUnits="userSpaceOnUse" x1="153.9771" y1="203.6251" x2="153.9771" y2="221.3163" gradientTransform="matrix(1 0 0 -1 0 253.5139)">
				<stop  offset="0" style="stop-color:#456CB4"/>
				<stop  offset="1" style="stop-color:#9654A1"/>
			</linearGradient>
			<polygon style="fill:url(#SVGID_00000105394366338466980180000006086428369802091399_);" points="156.88,37.23 153.98,32.19 
				151.08,37.23 			"/>
		</g>
	</g>
	
		<linearGradient id="SVGID_00000028319150287563527990000003864447709635370934_" gradientUnits="userSpaceOnUse" x1="748.3903" y1="-118.2703" x2="790.3182" y2="-118.2703" gradientTransform="matrix(3.464551e-07 -1 1 3.464551e-07 272.3286 969.6518)">
		<stop  offset="0" style="stop-color:#456CB4"/>
		<stop  offset="1" style="stop-color:#9654A1"/>
	</linearGradient>
	<polygon style="fill:url(#SVGID_00000028319150287563527990000003864447709635370934_);" points="185.04,221.26 183.88,221.26 
		183.88,180.49 124.24,180.49 124.24,220.97 123.08,220.97 123.08,179.33 185.04,179.33 	"/>
	
		<linearGradient id="SVGID_00000060031302898708886980000005649603187989676957_" gradientUnits="userSpaceOnUse" x1="58.1073" y1="103.3867" x2="128.4857" y2="103.3867" gradientTransform="matrix(-3.464551e-07 1 -1 -3.464551e-07 256.8318 93.3031)">
		<stop  offset="0" style="stop-color:#456CB4"/>
		<stop  offset="1" style="stop-color:#9654A1"/>
	</linearGradient>
	<polygon style="fill:url(#SVGID_00000060031302898708886980000005649603187989676957_);" points="248.59,221.79 58.3,221.79 
		58.3,152.36 59.46,152.36 59.46,220.62 247.42,220.62 247.42,151.41 248.59,151.41 	"/>
	<g>
		<g>
			<g>
				<polygon class="st10" points="146.83,53.82 146.27,57.02 145.48,53.82 144.17,53.82 143.38,57.03 142.81,53.82 141.3,53.82 
					142.57,60.16 144,60.16 144.82,56.84 145.64,60.16 147.08,60.16 148.35,53.82 				"/>
				<path class="st10" d="M152.56,54.22c-0.22-0.16-0.48-0.29-0.77-0.35c-0.28-0.07-0.58-0.11-0.88-0.11s-0.6,0.04-0.88,0.11
					c-0.29,0.08-0.55,0.19-0.77,0.35c-0.23,0.17-0.41,0.39-0.54,0.66c-0.13,0.27-0.19,0.59-0.19,0.97v2.31
					c0,0.37,0.07,0.7,0.19,0.96c0.13,0.27,0.32,0.49,0.54,0.66c0.22,0.16,0.48,0.29,0.77,0.35c0.28,0.07,0.58,0.11,0.88,0.11
					c0.31,0,0.6-0.04,0.88-0.11c0.29-0.08,0.55-0.19,0.77-0.35c0.23-0.17,0.41-0.39,0.54-0.66c0.12-0.27,0.19-0.59,0.19-0.97v-2.3
					c0-0.37-0.07-0.7-0.19-0.97C152.98,54.61,152.79,54.39,152.56,54.22z M150.91,58.87c-0.14,0-0.28-0.02-0.39-0.05
					c-0.1-0.03-0.18-0.07-0.25-0.12c-0.07-0.05-0.12-0.12-0.14-0.21c-0.04-0.1-0.06-0.23-0.06-0.38v-2.22
					c0-0.15,0.02-0.29,0.06-0.38c0.04-0.09,0.09-0.15,0.14-0.21c0.07-0.06,0.15-0.1,0.25-0.12c0.12-0.03,0.25-0.05,0.39-0.05
					s0.28,0.02,0.39,0.05c0.1,0.03,0.18,0.07,0.24,0.12c0.06,0.05,0.11,0.12,0.14,0.21c0.04,0.1,0.06,0.23,0.06,0.38v2.23
					c0,0.15-0.02,0.29-0.06,0.38c-0.04,0.09-0.09,0.16-0.14,0.21c-0.07,0.06-0.14,0.1-0.24,0.12
					C151.19,58.85,151.06,58.87,150.91,58.87z"/>
				<polygon class="st10" points="159.02,53.82 158.46,57.02 157.66,53.82 156.36,53.82 155.56,57.03 155.01,53.82 153.48,53.82 
					154.76,60.16 156.19,60.16 157.01,56.84 157.84,60.16 159.26,60.16 160.54,53.82 				"/>
			</g>
			<g>
				<path class="st11" d="M165.77,58.75c0.04-0.63,0.35-1.2,0.82-1.57c-0.06-0.25-0.17-0.47-0.32-0.67
					c-0.14,0.08-0.3,0.13-0.47,0.16v0.01c0,0.08-0.06,0.13-0.12,0.14c-0.03,0.42-0.22,0.81-0.5,1.09v0.58
					c0.14,0.12,0.31,0.22,0.48,0.3C165.7,58.77,165.73,58.75,165.77,58.75z"/>
				<path class="st11" d="M166.65,59.04c-0.04,0-0.07,0.01-0.11,0.01c-0.22,0-0.43-0.04-0.63-0.1c-0.02,0.04-0.05,0.06-0.09,0.07
					c0.03,0.42,0.18,0.81,0.42,1.14h0.41L166.65,59.04L166.65,59.04z"/>
				<path class="st11" d="M162.22,56.55c0.05,0.01,0.09,0.05,0.11,0.1c0.42-0.09,0.79-0.33,1.03-0.66
					c-0.25-0.14-0.55-0.23-0.85-0.24C162.33,55.98,162.24,56.25,162.22,56.55z"/>
				<path class="st11" d="M165.51,55.9c0.1,0.2,0.16,0.42,0.18,0.65c0.05,0.01,0.09,0.04,0.11,0.08c0.15-0.03,0.31-0.09,0.44-0.16
					C166.06,56.21,165.8,56.02,165.51,55.9z"/>
				<path class="st11" d="M165.53,56.7c-0.03,0-0.05,0-0.08,0c-0.32,0-0.62-0.09-0.88-0.23c-0.03,0.03-0.07,0.05-0.11,0.05
					c-0.01,0-0.01,0-0.02,0c-0.02,0.12-0.03,0.23-0.03,0.35c0,0.14,0.02,0.29,0.04,0.42c0.08-0.07,0.17-0.11,0.29-0.11
					c0.24,0,0.44,0.2,0.44,0.44v0.2c0.25-0.28,0.41-0.62,0.44-1.02C165.59,56.81,165.54,56.76,165.53,56.7z"/>
				<path class="st11" d="M164.7,55.74c-0.24,0.01-0.46,0.06-0.67,0.14c0.1,0.14,0.22,0.28,0.35,0.39c0.02-0.02,0.06-0.04,0.09-0.04
					C164.53,56.06,164.6,55.89,164.7,55.74z"/>
				<path class="st11" d="M162.16,56.54c0.02-0.3,0.12-0.57,0.27-0.81c-0.01,0-0.01,0-0.02,0c-0.57,0-1.07,0.25-1.42,0.64
					c0.28,0.19,0.61,0.31,0.97,0.31c0.03,0,0.05,0,0.08,0C162.04,56.61,162.09,56.55,162.16,56.54z"/>
				<path class="st11" d="M165.64,56.55c-0.02-0.25-0.09-0.48-0.2-0.68c-0.21-0.08-0.44-0.12-0.68-0.12
					c-0.1,0.15-0.18,0.33-0.24,0.51c0.06,0.02,0.1,0.08,0.1,0.13c0,0.02,0,0.04-0.01,0.05c0.25,0.14,0.54,0.23,0.85,0.23
					c0.03,0,0.05,0,0.08,0C165.55,56.6,165.59,56.56,165.64,56.55z"/>
				<path class="st11" d="M164.43,57.35c-0.03-0.15-0.05-0.31-0.05-0.47c0-0.12,0.01-0.25,0.04-0.36c-0.05-0.03-0.08-0.07-0.08-0.12
					c0-0.02,0.01-0.05,0.02-0.07c-0.14-0.12-0.27-0.26-0.37-0.41c-0.14,0.07-0.27,0.14-0.39,0.24c-0.06-0.05-0.12-0.1-0.19-0.13
					c-0.26,0.35-0.63,0.59-1.07,0.69c-0.01,0.06-0.05,0.11-0.11,0.12c0.01,0.13,0.04,0.27,0.08,0.39c0.04-0.01,0.08-0.02,0.12-0.02
					c0.24,0,0.44,0.2,0.44,0.44v0.39c0.3,0.24,0.67,0.37,1.07,0.37c0.13,0,0.26-0.02,0.38-0.05v-0.72
					C164.32,57.53,164.35,57.42,164.43,57.35z"/>
				<path class="st11" d="M166.62,57.23c-0.45,0.36-0.75,0.9-0.79,1.51c0.07,0.02,0.11,0.07,0.11,0.13c0,0.01,0,0.01,0,0.02
					c0.19,0.06,0.4,0.1,0.62,0.1c0.04,0,0.07,0,0.11-0.01v-1.35C166.65,57.5,166.64,57.36,166.62,57.23z"/>
				<path class="st11" d="M162.86,58.09v2.07h1.46v-1.74c-0.12,0.03-0.25,0.05-0.38,0.05C163.52,58.46,163.16,58.32,162.86,58.09z"
					/>
				<path class="st11" d="M165.65,58.89c0-0.01,0-0.02,0.01-0.03c-0.16-0.08-0.32-0.16-0.45-0.28v1.59h0.98
					c-0.24-0.33-0.38-0.71-0.41-1.14C165.71,59.01,165.65,58.96,165.65,58.89z"/>
				<path class="st11" d="M162.04,56.73c-0.03,0-0.05,0-0.08,0c-0.37,0-0.72-0.12-1.01-0.32c-0.28,0.33-0.44,0.76-0.44,1.22v2.53
					h1.46v-2.53c0-0.18,0.12-0.34,0.27-0.41c-0.04-0.12-0.07-0.27-0.08-0.4C162.1,56.82,162.06,56.78,162.04,56.73z"/>
			</g>
		</g>
	</g>
	
		<linearGradient id="SVGID_00000105413331462786617410000005403999076390009748_" gradientUnits="userSpaceOnUse" x1="223.162" y1="148.8242" x2="272.0683" y2="148.8242" gradientTransform="matrix(1 0 0 -1 0 253.5139)">
		<stop  offset="0" style="stop-color:#456CB4"/>
		<stop  offset="1" style="stop-color:#9654A1"/>
	</linearGradient>
	<path style="fill:url(#SVGID_00000105413331462786617410000005403999076390009748_);" d="M265.86,110.9h-36.48
		c-3.43,0-6.21-2.78-6.21-6.21l0,0c0-3.43,2.78-6.21,6.21-6.21h36.48c3.43,0,6.21,2.78,6.21,6.21l0,0
		C272.07,108.12,269.29,110.9,265.86,110.9z"/>
	<g>
		<path class="st13" d="M240.06,102.71h0.83l1.51,4.57h-0.77l-0.38-1.3h-1.59l-0.39,1.3h-0.73L240.06,102.71z M239.84,105.42h1.25
			l-0.18-0.61c-0.15-0.5-0.29-1.01-0.43-1.52h-0.03c-0.13,0.52-0.27,1.03-0.42,1.52L239.84,105.42z"/>
		<path class="st13" d="M242.42,103.87h0.73l0.58,1.84c0.1,0.34,0.2,0.68,0.3,1.02h0.03c0.1-0.34,0.2-0.68,0.3-1.02l0.58-1.84h0.7
			l-1.18,3.41h-0.82L242.42,103.87z"/>
		<path class="st13" d="M245.93,106.39c0-0.73,0.62-1.11,2.04-1.27c-0.01-0.39-0.15-0.75-0.65-0.75c-0.36,0-0.7,0.16-0.99,0.35
			l-0.27-0.49c0.35-0.22,0.83-0.45,1.38-0.45c0.85,0,1.25,0.54,1.25,1.45v2.05h-0.58l-0.06-0.39h-0.03
			c-0.31,0.27-0.68,0.47-1.08,0.47C246.34,107.37,245.93,106.99,245.93,106.39z M247.97,106.41v-0.83
			c-1.02,0.12-1.35,0.38-1.35,0.77c0,0.34,0.23,0.47,0.54,0.47C247.45,106.81,247.69,106.66,247.97,106.41z"/>
		<path class="st13" d="M249.7,106.18v-1.73h-0.5v-0.54l0.54-0.04l0.08-0.94h0.59v0.94h0.89v0.58h-0.89v1.74
			c0,0.41,0.14,0.62,0.5,0.62c0.12,0,0.27-0.04,0.36-0.08l0.13,0.53c-0.19,0.06-0.42,0.12-0.67,0.12
			C249.97,107.37,249.7,106.89,249.7,106.18z"/>
		<path class="st13" d="M251.7,106.39c0-0.73,0.62-1.11,2.04-1.27c-0.01-0.39-0.15-0.75-0.65-0.75c-0.36,0-0.7,0.16-0.99,0.35
			l-0.27-0.49c0.35-0.22,0.83-0.45,1.38-0.45c0.85,0,1.25,0.54,1.25,1.45v2.05h-0.58l-0.06-0.39h-0.03
			c-0.31,0.27-0.68,0.47-1.08,0.47C252.12,107.37,251.7,106.99,251.7,106.39z M253.74,106.41v-0.83c-1.02,0.12-1.35,0.38-1.35,0.77
			c0,0.34,0.23,0.47,0.54,0.47C253.22,106.81,253.46,106.66,253.74,106.41z"/>
		<path class="st13" d="M255.47,103.87h0.58l0.06,0.61h0.02c0.24-0.44,0.6-0.7,0.97-0.7c0.16,0,0.28,0.03,0.38,0.08l-0.13,0.62
			c-0.12-0.04-0.2-0.06-0.35-0.06c-0.28,0-0.61,0.19-0.82,0.73v2.13h-0.72L255.47,103.87L255.47,103.87z"/>
	</g>
	
		<linearGradient id="SVGID_00000144302106296435973230000013674721472392368570_" gradientUnits="userSpaceOnUse" x1="129.5191" y1="228.1652" x2="178.4254" y2="228.1652" gradientTransform="matrix(1 0 0 -1 0 253.5139)">
		<stop  offset="0" style="stop-color:#456CB4"/>
		<stop  offset="1" style="stop-color:#9654A1"/>
	</linearGradient>
	<path style="fill:url(#SVGID_00000144302106296435973230000013674721472392368570_);" d="M172.21,31.56h-36.48
		c-3.43,0-6.21-2.78-6.21-6.21l0,0c0-3.43,2.78-6.21,6.21-6.21h36.48c3.43,0,6.21,2.78,6.21,6.21l0,0
		C178.43,28.78,175.65,31.56,172.21,31.56z"/>
	
		<linearGradient id="SVGID_00000181060263126307617570000002168602360149974416_" gradientUnits="userSpaceOnUse" x1="128.9344" y1="196.5132" x2="179.0102" y2="196.5132" gradientTransform="matrix(1 0 0 -1 0 253.5139)">
		<stop  offset="0" style="stop-color:#456CB4"/>
		<stop  offset="1" style="stop-color:#9654A1"/>
	</linearGradient>
	<path style="fill:url(#SVGID_00000181060263126307617570000002168602360149974416_);" d="M172.21,63.8h-36.48
		c-3.75,0-6.8-3.05-6.8-6.8c0-3.75,3.05-6.8,6.8-6.8h36.48c3.75,0,6.8,3.05,6.8,6.8C179.01,60.75,175.96,63.8,172.21,63.8z
		 M135.74,51.37c-3.11,0-5.63,2.52-5.63,5.63s2.52,5.63,5.63,5.63h36.47c3.11,0,5.63-2.52,5.63-5.63s-2.52-5.63-5.63-5.63H135.74z"
		/>
	<g>
		<path class="st13" d="M140.92,23.36h2.7v0.6h-1.98v1.27h1.68v0.61h-1.68v1.48h2.05v0.6h-2.77V23.36z"/>
		<path class="st13" d="M145,26.16l-1.03-1.63h0.77l0.41,0.68c0.1,0.19,0.21,0.38,0.33,0.58h0.03c0.1-0.19,0.19-0.38,0.29-0.58
			l0.36-0.68h0.75l-1.03,1.72l1.1,1.71h-0.78l-0.45-0.73c-0.12-0.2-0.23-0.41-0.35-0.6h-0.03c-0.11,0.19-0.21,0.39-0.32,0.6
			l-0.39,0.73h-0.75L145,26.16z"/>
		<path class="st13" d="M147.21,26.24c0-1.14,0.79-1.79,1.69-1.79c0.43,0,0.75,0.17,1,0.39l-0.35,0.47
			c-0.18-0.17-0.38-0.27-0.6-0.27c-0.58,0-0.99,0.49-0.99,1.21c0,0.73,0.39,1.21,0.96,1.21c0.29,0,0.54-0.13,0.75-0.31l0.3,0.47
			c-0.32,0.28-0.72,0.42-1.11,0.42C147.92,28.02,147.21,27.37,147.21,26.24z"/>
		<path class="st13" d="M150.67,22.99h0.72v1.31l-0.03,0.68c0.3-0.29,0.64-0.54,1.1-0.54c0.73,0,1.04,0.49,1.04,1.35v2.15h-0.72
			v-2.06c0-0.59-0.17-0.82-0.58-0.82c-0.32,0-0.54,0.16-0.83,0.47v2.43h-0.72L150.67,22.99L150.67,22.99z"/>
		<path class="st13" d="M154.33,27.04c0-0.73,0.62-1.11,2.04-1.27c-0.01-0.39-0.15-0.75-0.65-0.75c-0.36,0-0.7,0.16-0.99,0.35
			l-0.27-0.49c0.35-0.22,0.83-0.45,1.38-0.45c0.85,0,1.25,0.54,1.25,1.45v2.05h-0.58l-0.06-0.39h-0.03
			c-0.31,0.27-0.68,0.47-1.08,0.47C154.74,28.02,154.33,27.64,154.33,27.04z M156.37,27.06v-0.83c-1.02,0.12-1.35,0.38-1.35,0.77
			c0,0.34,0.23,0.47,0.54,0.47C155.85,27.46,156.09,27.31,156.37,27.06z"/>
		<path class="st13" d="M158.09,24.52h0.58l0.06,0.47h0.02c0.32-0.31,0.66-0.56,1.13-0.56c0.73,0,1.04,0.49,1.04,1.35v2.15h-0.72
			v-2.06c0-0.59-0.17-0.82-0.58-0.82c-0.32,0-0.54,0.16-0.83,0.47v2.43h-0.72L158.09,24.52L158.09,24.52z"/>
		<path class="st13" d="M161.72,28.58c0-0.29,0.18-0.56,0.5-0.75V27.8c-0.17-0.11-0.31-0.29-0.31-0.57c0-0.27,0.19-0.5,0.38-0.63
			v-0.03c-0.24-0.18-0.45-0.5-0.45-0.91c0-0.77,0.61-1.23,1.32-1.23c0.19,0,0.36,0.04,0.5,0.09h1.21v0.54h-0.65
			c0.13,0.13,0.22,0.36,0.22,0.62c0,0.75-0.57,1.17-1.27,1.17c-0.15,0-0.33-0.04-0.48-0.11c-0.12,0.1-0.18,0.19-0.18,0.36
			c0,0.2,0.13,0.34,0.58,0.34h0.62c0.81,0,1.23,0.25,1.23,0.83c0,0.66-0.7,1.19-1.79,1.19C162.31,29.48,161.72,29.17,161.72,28.58z
			 M164.24,28.4c0-0.29-0.22-0.37-0.64-0.37h-0.52c-0.16,0-0.32-0.02-0.46-0.05c-0.2,0.15-0.29,0.33-0.29,0.5
			c0,0.34,0.35,0.54,0.91,0.54C163.84,29.01,164.24,28.71,164.24,28.4z M163.81,25.66c0-0.45-0.29-0.72-0.64-0.72
			c-0.36,0-0.64,0.26-0.64,0.72s0.29,0.74,0.64,0.74C163.51,26.4,163.81,26.13,163.81,25.66z"/>
		<path class="st13" d="M165.21,26.24c0-1.1,0.77-1.79,1.56-1.79c0.91,0,1.4,0.65,1.4,1.61c0,0.14-0.02,0.28-0.04,0.36h-2.21
			c0.06,0.65,0.47,1.04,1.05,1.04c0.31,0,0.57-0.1,0.81-0.26l0.25,0.45c-0.32,0.21-0.71,0.36-1.16,0.36
			C165.94,28.02,165.21,27.37,165.21,26.24z M167.55,25.92c0-0.58-0.27-0.93-0.77-0.93c-0.43,0-0.81,0.33-0.87,0.93H167.55z"/>
	</g>
	<g>
		<path class="st13" d="M233.66,89.47h3.3v1.04h-2.05v0.97h1.74v1.04h-1.74v1.1h2.13v1.04h-3.37V89.47z"/>
		<path class="st13" d="M238.06,89.47h1.27l1.29,2.49l0.51,1.15h0.04c-0.07-0.56-0.17-1.3-0.17-1.92v-1.73h1.19v5.21h-1.27
			l-1.28-2.51l-0.51-1.14h-0.04c0.06,0.58,0.16,1.29,0.16,1.92v1.73h-1.19V89.47z"/>
		<path class="st13" d="M243.16,92.1c0-1.74,1.17-2.72,2.56-2.72c0.76,0,1.3,0.33,1.66,0.68l-0.65,0.8c-0.26-0.23-0.53-0.4-0.97-0.4
			c-0.77,0-1.32,0.6-1.32,1.61c0,1.04,0.46,1.64,1.43,1.64c0.18,0,0.37-0.05,0.49-0.13v-0.83h-0.82v-1.02h1.94v2.43
			c-0.36,0.35-1.01,0.63-1.74,0.63C244.3,94.77,243.16,93.87,243.16,92.1z"/>
		<path class="st13" d="M248.52,89.47h1.25v5.21h-1.25V89.47z"/>
		<path class="st13" d="M250.96,89.47h1.27l1.29,2.49l0.51,1.15h0.04c-0.07-0.56-0.16-1.3-0.16-1.92v-1.73h1.19v5.21h-1.27
			l-1.28-2.51l-0.51-1.14H252c0.06,0.58,0.16,1.29,0.16,1.92v1.73h-1.19L250.96,89.47L250.96,89.47z"/>
		<path class="st13" d="M256.3,89.47h3.3v1.04h-2.05v0.97h1.74v1.04h-1.74v1.1h2.13v1.04h-3.37V89.47z"/>
	</g>
	<g>
		<path class="st13" d="M54.5,89.47h1.27l1.29,2.49l0.51,1.15h0.04c-0.07-0.56-0.16-1.3-0.16-1.92v-1.73h1.19v5.21h-1.27l-1.28-2.51
			l-0.51-1.14h-0.04c0.06,0.58,0.16,1.29,0.16,1.92v1.73h-1.2V89.47z"/>
		<path class="st13" d="M59.84,89.47h3.32v1.04h-2.07v1.14h1.77v1.04h-1.77v1.98h-1.25V89.47z"/>
		<path class="st13" d="M65.06,90.51h-1.4v-1.04h4.06v1.04h-1.41v4.16h-1.25L65.06,90.51L65.06,90.51z"/>
	</g>
	<g>
		<path class="st13" d="M63.94,212.92h1.43c0.93,0,1.59,0.34,1.59,1.28c0,0.71-0.41,1.13-1.04,1.27l1.17,1.99h-0.65l-1.1-1.93h-0.82
			v1.93h-0.58V212.92z M65.29,215.09c0.72,0,1.1-0.29,1.1-0.87c0-0.6-0.39-0.81-1.1-0.81h-0.77v1.69L65.29,215.09L65.29,215.09z"/>
		<path class="st13" d="M67.52,215.8c0-1.09,0.74-1.77,1.52-1.77c0.85,0,1.34,0.62,1.34,1.58c0,0.12-0.01,0.24-0.03,0.33h-2.27
			c0.04,0.72,0.48,1.18,1.12,1.18c0.33,0,0.59-0.1,0.84-0.27l0.2,0.37c-0.3,0.19-0.66,0.35-1.12,0.35
			C68.24,217.56,67.52,216.91,67.52,215.8z M69.88,215.52c0-0.68-0.31-1.04-0.83-1.04c-0.48,0-0.9,0.38-0.97,1.04H69.88z"/>
		<path class="st13" d="M70.84,214.11h0.58l0.5,1.95c0.07,0.33,0.13,0.62,0.2,0.94h0.03c0.08-0.32,0.14-0.62,0.23-0.94l0.52-1.95
			h0.56l0.53,1.95c0.08,0.33,0.15,0.62,0.24,0.94h0.03c0.08-0.32,0.13-0.62,0.21-0.94l0.5-1.95h0.54l-0.91,3.37h-0.68l-0.49-1.82
			c-0.09-0.32-0.15-0.62-0.23-0.97h-0.03c-0.08,0.35-0.14,0.66-0.23,0.98l-0.47,1.81h-0.66L70.84,214.11z"/>
		<path class="st13" d="M75.93,216.6c0-0.73,0.64-1.1,2.07-1.27c0-0.43-0.14-0.85-0.7-0.85c-0.39,0-0.75,0.18-1.02,0.36l-0.22-0.39
			c0.31-0.2,0.79-0.44,1.33-0.44c0.82,0,1.17,0.56,1.17,1.39v2.07H78.1l-0.05-0.4h-0.02c-0.33,0.27-0.7,0.49-1.12,0.49
			C76.36,217.56,75.93,217.22,75.93,216.6z M78.02,216.66v-0.94c-1.14,0.13-1.52,0.41-1.52,0.85c0,0.38,0.26,0.54,0.59,0.54
			C77.42,217.11,77.68,216.96,78.02,216.66z"/>
		<path class="st13" d="M79.65,214.11h0.47l0.05,0.61h0.02c0.24-0.43,0.58-0.7,0.96-0.7c0.15,0,0.26,0.02,0.36,0.08l-0.11,0.5
			c-0.12-0.05-0.19-0.06-0.33-0.06c-0.28,0-0.62,0.2-0.85,0.78v2.17h-0.57L79.65,214.11L79.65,214.11z"/>
		<path class="st13" d="M81.75,215.8c0-1.09,0.69-1.77,1.46-1.77c0.39,0,0.65,0.15,0.95,0.39l-0.03-0.58v-1.29h0.56v4.95h-0.46
			l-0.05-0.39h-0.02c-0.27,0.26-0.62,0.48-1.03,0.48C82.3,217.56,81.75,216.92,81.75,215.8z M84.13,216.62v-1.77
			c-0.29-0.26-0.55-0.35-0.82-0.35c-0.55,0-0.98,0.52-0.98,1.29c0,0.81,0.34,1.29,0.93,1.29C83.57,217.09,83.85,216.94,84.13,216.62
			z"/>
	</g>
	<g>
		<path class="st13" d="M224.04,212.92h1.43c0.93,0,1.59,0.34,1.59,1.28c0,0.71-0.41,1.13-1.04,1.27l1.17,1.99h-0.65l-1.1-1.93
			h-0.82v1.93h-0.58L224.04,212.92L224.04,212.92z M225.39,215.09c0.72,0,1.1-0.29,1.1-0.87c0-0.6-0.39-0.81-1.1-0.81h-0.77v1.69
			L225.39,215.09L225.39,215.09z"/>
		<path class="st13" d="M227.62,215.8c0-1.09,0.74-1.77,1.52-1.77c0.85,0,1.34,0.62,1.34,1.58c0,0.12-0.01,0.24-0.03,0.33h-2.27
			c0.04,0.72,0.48,1.18,1.12,1.18c0.33,0,0.59-0.1,0.84-0.27l0.2,0.37c-0.3,0.19-0.66,0.35-1.12,0.35
			C228.35,217.56,227.62,216.91,227.62,215.8z M229.99,215.52c0-0.68-0.31-1.04-0.83-1.04c-0.48,0-0.9,0.38-0.97,1.04H229.99z"/>
		<path class="st13" d="M230.95,214.11h0.58l0.5,1.95c0.07,0.33,0.13,0.62,0.2,0.94h0.03c0.08-0.32,0.14-0.62,0.23-0.94l0.52-1.95
			h0.57l0.53,1.95c0.08,0.33,0.15,0.62,0.24,0.94h0.03c0.08-0.32,0.13-0.62,0.21-0.94l0.5-1.95h0.54l-0.91,3.37h-0.68l-0.49-1.82
			c-0.09-0.32-0.15-0.62-0.23-0.97h-0.03c-0.08,0.35-0.14,0.66-0.23,0.98l-0.47,1.81h-0.66L230.95,214.11z"/>
		<path class="st13" d="M236.05,216.6c0-0.73,0.64-1.1,2.07-1.27c0-0.43-0.14-0.85-0.7-0.85c-0.39,0-0.75,0.18-1.02,0.36l-0.22-0.39
			c0.31-0.2,0.79-0.44,1.33-0.44c0.82,0,1.17,0.56,1.17,1.39v2.07h-0.47l-0.05-0.4h-0.02c-0.33,0.27-0.7,0.49-1.12,0.49
			C236.47,217.56,236.05,217.22,236.05,216.6z M238.13,216.66v-0.94c-1.14,0.13-1.52,0.41-1.52,0.85c0,0.38,0.26,0.54,0.59,0.54
			C237.52,217.11,237.79,216.96,238.13,216.66z"/>
		<path class="st13" d="M239.75,214.11h0.47l0.05,0.61h0.02c0.24-0.43,0.58-0.7,0.96-0.7c0.15,0,0.26,0.02,0.36,0.08l-0.11,0.5
			c-0.12-0.05-0.19-0.06-0.33-0.06c-0.28,0-0.62,0.2-0.85,0.78v2.17h-0.57L239.75,214.11L239.75,214.11z"/>
		<path class="st13" d="M241.85,215.8c0-1.09,0.69-1.77,1.46-1.77c0.39,0,0.65,0.15,0.95,0.39l-0.03-0.58v-1.29h0.56v4.95h-0.46
			l-0.05-0.39h-0.02c-0.27,0.26-0.62,0.48-1.03,0.48C242.4,217.56,241.85,216.92,241.85,215.8z M244.24,216.62v-1.77
			c-0.29-0.26-0.55-0.35-0.82-0.35c-0.55,0-0.98,0.52-0.98,1.29c0,0.81,0.34,1.29,0.93,1.29
			C243.68,217.09,243.95,216.94,244.24,216.62z"/>
	</g>
	
		<linearGradient id="SVGID_00000072275045744196415190000012900876280341137304_" gradientUnits="userSpaceOnUse" x1="223.162" y1="127.4193" x2="272.0683" y2="127.4193" gradientTransform="matrix(1 0 0 -1 0 253.5139)">
		<stop  offset="0" style="stop-color:#456CB4"/>
		<stop  offset="1" style="stop-color:#9654A1"/>
	</linearGradient>
	<path style="fill:url(#SVGID_00000072275045744196415190000012900876280341137304_);" d="M265.86,132.31h-36.48
		c-3.43,0-6.21-2.78-6.21-6.21l0,0c0-3.43,2.78-6.21,6.21-6.21h36.48c3.43,0,6.21,2.78,6.21,6.21l0,0
		C272.07,129.53,269.29,132.31,265.86,132.31z"/>
	<g>
		<path class="st13" d="M239.58,124.11h2.7v0.6h-1.98v1.27h1.68v0.61h-1.68v1.48h2.05v0.6h-2.77V124.11z"/>
		<path class="st13" d="M242.95,126.99c0-1.1,0.7-1.79,1.47-1.79c0.39,0,0.64,0.15,0.92,0.38l-0.03-0.57v-1.27h0.72v4.95h-0.58
			l-0.06-0.38h-0.03c-0.26,0.26-0.6,0.47-1,0.47C243.5,128.77,242.95,128.12,242.95,126.99z M245.3,127.76v-1.67
			c-0.26-0.23-0.5-0.31-0.75-0.31c-0.48,0-0.86,0.45-0.86,1.19c0,0.78,0.31,1.21,0.83,1.21
			C244.82,128.18,245.06,128.05,245.3,127.76z"/>
		<path class="st13" d="M247,124.21c0-0.26,0.18-0.42,0.44-0.42s0.45,0.17,0.45,0.42c0,0.26-0.18,0.43-0.45,0.43
			C247.18,124.64,247,124.46,247,124.21z M247.09,125.27h0.72v3.41h-0.72V125.27z"/>
		<path class="st13" d="M248.99,127.57v-1.73h-0.5v-0.54l0.54-0.04l0.08-0.94h0.59v0.94h0.89v0.58h-0.89v1.74
			c0,0.41,0.14,0.62,0.5,0.62c0.12,0,0.27-0.04,0.36-0.08l0.13,0.53c-0.19,0.06-0.42,0.12-0.67,0.12
			C249.25,128.77,248.99,128.29,248.99,127.57z"/>
		<path class="st13" d="M250.98,126.99c0-1.14,0.77-1.79,1.61-1.79c0.84,0,1.61,0.66,1.61,1.79c0,1.14-0.77,1.79-1.61,1.79
			C251.75,128.77,250.98,128.12,250.98,126.99z M253.46,126.99c0-0.72-0.34-1.21-0.87-1.21c-0.54,0-0.87,0.49-0.87,1.21
			c0,0.73,0.34,1.21,0.87,1.21C253.13,128.18,253.46,127.7,253.46,126.99z"/>
		<path class="st13" d="M255.03,125.27h0.58l0.06,0.61h0.02c0.24-0.44,0.6-0.7,0.97-0.7c0.16,0,0.28,0.03,0.38,0.08l-0.13,0.62
			c-0.12-0.04-0.2-0.06-0.35-0.06c-0.28,0-0.61,0.19-0.82,0.73v2.13h-0.72L255.03,125.27L255.03,125.27z"/>
	</g>
	
		<linearGradient id="SVGID_00000121977899108454549500000000505223194003392644_" gradientUnits="userSpaceOnUse" x1="223.162" y1="106.3883" x2="272.0683" y2="106.3883" gradientTransform="matrix(1 0 0 -1 0 253.5139)">
		<stop  offset="0" style="stop-color:#456CB4"/>
		<stop  offset="1" style="stop-color:#9654A1"/>
	</linearGradient>
	<path style="fill:url(#SVGID_00000121977899108454549500000000505223194003392644_);" d="M265.86,153.34h-36.48
		c-3.43,0-6.21-2.78-6.21-6.21l0,0c0-3.43,2.78-6.21,6.21-6.21h36.48c3.43,0,6.21,2.78,6.21,6.21l0,0
		C272.07,150.56,269.29,153.34,265.86,153.34z"/>
	<g>
		<path class="st13" d="M240.61,149.14l0.42-0.5c0.33,0.33,0.78,0.54,1.22,0.54c0.56,0,0.86-0.26,0.86-0.64
			c0-0.41-0.31-0.55-0.73-0.73l-0.63-0.27c-0.44-0.18-0.93-0.54-0.93-1.2c0-0.72,0.63-1.27,1.5-1.27c0.54,0,1.04,0.22,1.38,0.58
			l-0.37,0.46c-0.29-0.26-0.6-0.41-1.01-0.41c-0.47,0-0.77,0.22-0.77,0.58c0,0.39,0.36,0.55,0.74,0.7l0.62,0.27
			c0.54,0.23,0.93,0.57,0.93,1.24c0,0.73-0.6,1.33-1.61,1.33C241.61,149.81,241.03,149.56,240.61,149.14z"/>
		<path class="st13" d="M244.64,144.78h0.72v1.31l-0.03,0.68c0.3-0.29,0.64-0.54,1.1-0.54c0.73,0,1.04,0.49,1.04,1.35v2.15h-0.72
			v-2.06c0-0.59-0.17-0.82-0.58-0.82c-0.32,0-0.54,0.16-0.83,0.47v2.43h-0.72L244.64,144.78L244.64,144.78z"/>
		<path class="st13" d="M248.26,148.02c0-1.14,0.77-1.79,1.61-1.79s1.61,0.66,1.61,1.79c0,1.14-0.77,1.79-1.61,1.79
			S248.26,149.16,248.26,148.02z M250.74,148.02c0-0.72-0.34-1.21-0.87-1.21c-0.54,0-0.87,0.49-0.87,1.21
			c0,0.73,0.34,1.21,0.87,1.21C250.4,149.22,250.74,148.75,250.74,148.02z"/>
		<path class="st13" d="M252.31,146.31h0.58l0.06,0.37h0.02c0.3-0.25,0.67-0.46,1.05-0.46c0.86,0,1.35,0.69,1.35,1.74
			c0,1.17-0.7,1.84-1.48,1.84c-0.31,0-0.6-0.13-0.9-0.38l0.03,0.58v1.1h-0.72L252.31,146.31L252.31,146.31z M254.63,147.98
			c0-0.72-0.23-1.16-0.81-1.16c-0.27,0-0.52,0.13-0.81,0.41v1.67c0.27,0.23,0.53,0.31,0.74,0.31
			C254.27,149.22,254.63,148.77,254.63,147.98z"/>
	</g>
	
		<linearGradient id="SVGID_00000137111708105149106220000015037890854129719692_" gradientUnits="userSpaceOnUse" x1="107.865" y1="128.0616" x2="200.2425" y2="128.0616" gradientTransform="matrix(1 0 0 -1 0 253.5139)">
		<stop  offset="0" style="stop-color:#456CB4"/>
		<stop  offset="1" style="stop-color:#9654A1"/>
	</linearGradient>
	<path style="fill:url(#SVGID_00000137111708105149106220000015037890854129719692_);" d="M183.05,168.7h-57.98
		c-9.48,0-17.2-7.72-17.2-17.2V99.4c0-9.48,7.72-17.2,17.2-17.2h57.98c9.48,0,17.2,7.72,17.2,17.2v52.11
		C200.24,161,192.53,168.7,183.05,168.7z M125.06,83.37c-8.84,0-16.04,7.19-16.04,16.04v52.11c0,8.84,7.19,16.04,16.04,16.04h57.98
		c8.84,0,16.04-7.19,16.04-16.04V99.41c0-8.84-7.19-16.04-16.04-16.04C183.05,83.37,125.06,83.37,125.06,83.37z"/>
	<path class="st19" d="M160.82,166.48h-13.53c-20.48,0-37.09-16.6-37.09-37.09v-7.88c0-20.48,16.6-37.09,37.09-37.09h13.53
		c20.48,0,37.09,16.6,37.09,37.09v7.88C197.9,149.88,181.3,166.48,160.82,166.48z"/>
	
		<linearGradient id="SVGID_00000169538453540906597530000001401308645804378557_" gradientUnits="userSpaceOnUse" x1="84.2362" y1="127.4769" x2="95.9403" y2="127.4769" gradientTransform="matrix(1 0 0 -1 0 253.5139)">
		<stop  offset="0" style="stop-color:#456CB4"/>
		<stop  offset="1" style="stop-color:#9654A1"/>
	</linearGradient>
	<polygon style="fill:url(#SVGID_00000169538453540906597530000001401308645804378557_);" points="95.94,147.96 84.24,147.96 
		84.24,146.8 94.78,146.8 94.78,105.27 84.89,105.27 84.89,104.11 95.94,104.11 	"/>
	<g>
		
			<linearGradient id="SVGID_00000157292300790993410470000015575130979754839702_" gradientUnits="userSpaceOnUse" x1="82.6354" y1="127.4241" x2="107.154" y2="127.4241" gradientTransform="matrix(1 0 0 -1 0 253.5139)">
			<stop  offset="0" style="stop-color:#456CB4"/>
			<stop  offset="1" style="stop-color:#9654A1"/>
		</linearGradient>
		
			<rect x="82.64" y="125.51" style="fill:url(#SVGID_00000157292300790993410470000015575130979754839702_);" width="20.34" height="1.16"/>
		<g>
			
				<linearGradient id="SVGID_00000012442613550659523840000013639712989362480521_" gradientUnits="userSpaceOnUse" x1="82.6313" y1="127.4241" x2="107.1499" y2="127.4241" gradientTransform="matrix(1 0 0 -1 0 253.5139)">
				<stop  offset="0" style="stop-color:#456CB4"/>
				<stop  offset="1" style="stop-color:#9654A1"/>
			</linearGradient>
			<polygon style="fill:url(#SVGID_00000012442613550659523840000013639712989362480521_);" points="102.12,128.99 107.15,126.09 
				102.12,123.19 			"/>
		</g>
	</g>
	<g>
		
			<linearGradient id="SVGID_00000173135868811487041660000002520963137015300792_" gradientUnits="userSpaceOnUse" x1="621.9608" y1="127.4769" x2="633.6649" y2="127.4769" gradientTransform="matrix(-1 0 0 -1 845.7554 253.5139)">
			<stop  offset="0" style="stop-color:#456CB4"/>
			<stop  offset="1" style="stop-color:#9654A1"/>
		</linearGradient>
		<polygon style="fill:url(#SVGID_00000173135868811487041660000002520963137015300792_);" points="223.79,147.96 212.09,147.96 
			212.09,104.11 223.15,104.11 223.15,105.27 213.26,105.27 213.26,146.8 223.79,146.8 		"/>
		<g>
			
				<linearGradient id="SVGID_00000080183639490449110570000001409555676185981863_" gradientUnits="userSpaceOnUse" x1="225.405" y1="127.4241" x2="200.8864" y2="127.4241" gradientTransform="matrix(1 0 0 -1 0 253.5139)">
				<stop  offset="0" style="stop-color:#456CB4"/>
				<stop  offset="1" style="stop-color:#9654A1"/>
			</linearGradient>
			
				<rect x="205.06" y="125.51" style="fill:url(#SVGID_00000080183639490449110570000001409555676185981863_);" width="20.34" height="1.16"/>
			<g>
				
					<linearGradient id="SVGID_00000142135355313194410070000015174289337817929140_" gradientUnits="userSpaceOnUse" x1="225.4052" y1="127.4241" x2="200.8866" y2="127.4241" gradientTransform="matrix(1 0 0 -1 0 253.5139)">
					<stop  offset="0" style="stop-color:#456CB4"/>
					<stop  offset="1" style="stop-color:#9654A1"/>
				</linearGradient>
				<polygon style="fill:url(#SVGID_00000142135355313194410070000015174289337817929140_);" points="205.91,123.19 200.88,126.09 
					205.91,128.99 				"/>
			</g>
		</g>
	</g>
	
		<linearGradient id="SVGID_00000013162186113835284690000005067593901179250306_" gradientUnits="userSpaceOnUse" x1="35.9817" y1="148.8242" x2="84.888" y2="148.8242" gradientTransform="matrix(1 0 0 -1 0 253.5139)">
		<stop  offset="0" style="stop-color:#456CB4"/>
		<stop  offset="1" style="stop-color:#9654A1"/>
	</linearGradient>
	<path style="fill:url(#SVGID_00000013162186113835284690000005067593901179250306_);" d="M78.68,110.9H42.19
		c-3.43,0-6.21-2.78-6.21-6.21l0,0c0-3.43,2.78-6.21,6.21-6.21h36.48c3.43,0,6.21,2.78,6.21,6.21l0,0
		C84.89,108.12,82.11,110.9,78.68,110.9z"/>
	<g>
		<path class="st13" d="M54.22,102.71h0.72v4.57h-0.72V102.71z"/>
		<path class="st13" d="M56.19,106.18v-1.73h-0.5v-0.54l0.54-0.04l0.08-0.94h0.59v0.94h0.89v0.58H56.9v1.74
			c0,0.41,0.14,0.62,0.5,0.62c0.12,0,0.27-0.04,0.36-0.08l0.13,0.53c-0.19,0.06-0.42,0.12-0.67,0.12
			C56.46,107.37,56.19,106.89,56.19,106.18z"/>
		<path class="st13" d="M58.19,105.58c0-1.1,0.77-1.79,1.56-1.79c0.91,0,1.4,0.65,1.4,1.61c0,0.14-0.02,0.28-0.04,0.36H58.9
			c0.06,0.65,0.47,1.04,1.05,1.04c0.31,0,0.57-0.1,0.81-0.26l0.25,0.45c-0.32,0.21-0.71,0.36-1.15,0.36
			C58.93,107.37,58.19,106.71,58.19,105.58z M60.52,105.27c0-0.58-0.27-0.93-0.77-0.93c-0.43,0-0.81,0.33-0.87,0.93H60.52z"/>
		<path class="st13" d="M61.94,103.87h0.58l0.06,0.48h0.02c0.29-0.31,0.63-0.57,1.05-0.57c0.51,0,0.8,0.24,0.94,0.62
			c0.34-0.36,0.68-0.62,1.11-0.62c0.72,0,1.04,0.49,1.04,1.35v2.15h-0.72v-2.06c0-0.59-0.18-0.82-0.58-0.82
			c-0.24,0-0.49,0.15-0.77,0.47v2.43h-0.7v-2.06c0-0.59-0.18-0.82-0.58-0.82c-0.23,0-0.49,0.15-0.77,0.47v2.43h-0.72L61.94,103.87
			L61.94,103.87z"/>
	</g>
	<g>
		<path class="st13" d="M113.79,109.86h0.93l0.36,2.25c0.07,0.49,0.14,0.97,0.21,1.47h0.03c0.1-0.5,0.19-0.99,0.29-1.47l0.54-2.25
			h0.79l0.53,2.25c0.1,0.47,0.19,0.97,0.29,1.47h0.03c0.07-0.5,0.13-0.99,0.2-1.47l0.36-2.25h0.87l-0.85,4.6h-1.14l-0.52-2.27
			c-0.08-0.36-0.14-0.72-0.2-1.06h-0.03c-0.06,0.35-0.12,0.71-0.2,1.06l-0.5,2.27h-1.12L113.79,109.86z"/>
		<path class="st13" d="M119.29,112.15c0-1.5,0.83-2.37,2.05-2.37s2.05,0.87,2.05,2.37c0,1.49-0.83,2.41-2.05,2.41
			C120.13,114.54,119.29,113.63,119.29,112.15z M122.46,112.15c0-0.99-0.43-1.58-1.12-1.58c-0.68,0-1.12,0.59-1.12,1.58
			c0,0.98,0.43,1.61,1.12,1.61C122.03,113.75,122.46,113.13,122.46,112.15z"/>
		<path class="st13" d="M123.46,109.86h0.93l0.36,2.25c0.07,0.49,0.14,0.97,0.21,1.47h0.03c0.1-0.5,0.19-0.99,0.29-1.47l0.54-2.25
			h0.79l0.53,2.25c0.1,0.47,0.19,0.97,0.29,1.47h0.03c0.07-0.5,0.13-0.99,0.2-1.47l0.36-2.25h0.87l-0.85,4.6h-1.14l-0.52-2.27
			c-0.08-0.36-0.14-0.72-0.2-1.06h-0.03c-0.06,0.35-0.12,0.71-0.2,1.06l-0.5,2.27h-1.12L123.46,109.86z"/>
		<path class="st13" d="M130.26,109.86h1.02l0.79,2.16c0.1,0.29,0.18,0.59,0.28,0.88h0.03c0.1-0.29,0.18-0.59,0.28-0.88l0.77-2.16
			h1.02v4.6h-0.83v-1.92c0-0.43,0.07-1.07,0.12-1.5h-0.03l-0.37,1.08l-0.71,1.94h-0.53l-0.72-1.94l-0.36-1.08h-0.03
			c0.05,0.43,0.12,1.07,0.12,1.5v1.92h-0.82L130.26,109.86L130.26,109.86z"/>
		<path class="st13" d="M135.18,109.86H138v0.77h-1.9v1.06h1.61v0.77h-1.61v1.23h1.97v0.77h-2.89L135.18,109.86L135.18,109.86z"/>
		<path class="st13" d="M139.55,110.63h-1.29v-0.77h3.52v0.77h-1.3v3.83h-0.92L139.55,110.63L139.55,110.63z"/>
		<path class="st13" d="M142.74,109.86h1.08l1.48,4.6h-0.96l-0.33-1.18h-1.49l-0.33,1.18h-0.93L142.74,109.86z M142.72,112.57h1.09
			l-0.13-0.5c-0.14-0.48-0.27-1.01-0.39-1.5h-0.03c-0.12,0.5-0.26,1.03-0.39,1.5L142.72,112.57z"/>
		<path class="st13" d="M144.75,109.86h0.96l0.6,2.24c0.14,0.51,0.24,0.97,0.38,1.49h0.03c0.15-0.52,0.25-0.98,0.39-1.49l0.59-2.24
			h0.93l-1.4,4.6h-1.1L144.75,109.86z"/>
		<path class="st13" d="M148.82,109.86h2.82v0.77h-1.9v1.06h1.61v0.77h-1.61v1.23h1.97v0.77h-2.89L148.82,109.86L148.82,109.86z"/>
		<path class="st13" d="M152.26,109.86h1.6c0.96,0,1.73,0.35,1.73,1.4c0,0.69-0.35,1.12-0.87,1.32l1.07,1.88h-1.03l-0.94-1.74h-0.64
			v1.74h-0.92L152.26,109.86L152.26,109.86z M153.77,111.99c0.59,0,0.92-0.25,0.92-0.74c0-0.5-0.33-0.66-0.92-0.66h-0.59v1.4H153.77
			z"/>
		<path class="st13" d="M155.72,113.87l0.53-0.63c0.33,0.31,0.77,0.51,1.17,0.51c0.48,0,0.73-0.2,0.73-0.53
			c0-0.35-0.28-0.45-0.69-0.62l-0.61-0.26c-0.47-0.19-0.93-0.57-0.93-1.24c0-0.75,0.66-1.33,1.59-1.33c0.54,0,1.06,0.21,1.44,0.59
			l-0.47,0.58c-0.29-0.24-0.59-0.38-0.98-0.38c-0.4,0-0.66,0.18-0.66,0.49c0,0.33,0.33,0.45,0.72,0.6l0.6,0.26
			c0.56,0.23,0.93,0.58,0.93,1.25c0,0.75-0.62,1.39-1.69,1.39C156.77,114.54,156.16,114.3,155.72,113.87z"/>
		<path class="st13" d="M159.52,109.86h2.82v0.77h-1.9v1.06h1.61v0.77h-1.61v1.23h1.97v0.77h-2.89L159.52,109.86L159.52,109.86z"/>
		<path class="st13" d="M164,109.86h1.5c1.02,0,1.8,0.36,1.8,1.45c0,1.04-0.79,1.52-1.77,1.52h-0.61v1.63H164V109.86z M165.48,112.1
			c0.63,0,0.94-0.27,0.94-0.8c0-0.54-0.34-0.72-0.97-0.72h-0.52v1.5L165.48,112.1L165.48,112.1z"/>
		<path class="st13" d="M167.77,109.86h0.92v3.83h1.87v0.77h-2.79V109.86z"/>
		<path class="st13" d="M171.84,109.86h1.08l1.48,4.6h-0.96l-0.33-1.18h-1.49l-0.33,1.18h-0.93L171.84,109.86z M171.82,112.57h1.09
			l-0.13-0.5c-0.14-0.48-0.27-1.01-0.39-1.5h-0.03c-0.12,0.5-0.26,1.03-0.39,1.5L171.82,112.57z"/>
		<path class="st13" d="M174.99,110.63h-1.29v-0.77h3.52v0.77h-1.3v3.83h-0.92L174.99,110.63L174.99,110.63z"/>
		<path class="st13" d="M177.59,109.86h2.83v0.77h-1.92v1.2h1.63v0.77h-1.63v1.86h-0.92L177.59,109.86L177.59,109.86z"/>
		<path class="st13" d="M180.54,112.15c0-1.5,0.83-2.37,2.05-2.37s2.05,0.87,2.05,2.37c0,1.49-0.83,2.41-2.05,2.41
			C181.39,114.54,180.54,113.63,180.54,112.15z M183.72,112.15c0-0.99-0.43-1.58-1.12-1.58c-0.68,0-1.12,0.59-1.12,1.58
			c0,0.98,0.43,1.61,1.12,1.61C183.29,113.75,183.72,113.13,183.72,112.15z"/>
		<path class="st13" d="M185.18,109.86h1.6c0.96,0,1.73,0.35,1.73,1.4c0,0.69-0.35,1.12-0.87,1.32l1.07,1.88h-1.03l-0.94-1.74h-0.64
			v1.74h-0.92L185.18,109.86L185.18,109.86z M186.7,111.99c0.59,0,0.92-0.25,0.92-0.74c0-0.5-0.33-0.66-0.92-0.66h-0.59v1.4H186.7z"
			/>
		<path class="st13" d="M189.05,109.86h1.02l0.79,2.16c0.1,0.29,0.18,0.59,0.28,0.88h0.03c0.1-0.29,0.18-0.59,0.28-0.88l0.77-2.16
			h1.02v4.6h-0.83v-1.92c0-0.43,0.07-1.07,0.12-1.5h-0.03l-0.37,1.08l-0.71,1.94h-0.53l-0.72-1.94l-0.36-1.08h-0.03
			c0.05,0.43,0.12,1.07,0.12,1.5v1.92h-0.82L189.05,109.86L189.05,109.86z"/>
	</g>
	<g>
		<path class="st13" d="M142.86,122.64h0.52v4.11h2.01v0.43h-2.53V122.64z"/>
		<path class="st13" d="M146.04,122.76c0-0.2,0.14-0.35,0.35-0.35c0.2,0,0.35,0.13,0.35,0.35c0,0.22-0.15,0.35-0.35,0.35
			C146.19,123.11,146.04,122.98,146.04,122.76z M146.15,123.83h0.5v3.36h-0.5V123.83z"/>
		<path class="st13" d="M147.89,124.25h-0.46v-0.38l0.46-0.03v-0.58c0-0.68,0.31-1.08,0.95-1.08c0.19,0,0.38,0.05,0.54,0.12
			l-0.12,0.39c-0.13-0.06-0.27-0.1-0.38-0.1c-0.33,0-0.49,0.24-0.49,0.68v0.58h0.72v0.41h-0.72v2.93h-0.51L147.89,124.25
			L147.89,124.25z"/>
		<path class="st13" d="M149.46,125.51c0-1.08,0.73-1.76,1.5-1.76c0.83,0,1.32,0.6,1.32,1.57c0,0.12-0.01,0.22-0.03,0.31h-2.29
			c0.03,0.75,0.48,1.25,1.15,1.25c0.33,0,0.6-0.11,0.85-0.27l0.18,0.34c-0.29,0.18-0.63,0.35-1.1,0.35
			C150.17,127.27,149.46,126.61,149.46,125.51z M151.83,125.25c0-0.72-0.33-1.09-0.87-1.09c-0.5,0-0.94,0.4-1.01,1.09H151.83z"/>
		<path class="st13" d="M152.74,126.81l0.26-0.35c0.29,0.24,0.59,0.4,1.02,0.4c0.47,0,0.7-0.25,0.7-0.56c0-0.36-0.4-0.52-0.79-0.66
			c-0.48-0.17-1-0.39-1-0.97c0-0.52,0.41-0.94,1.14-0.94c0.4,0,0.77,0.16,1.02,0.37l-0.25,0.33c-0.23-0.17-0.47-0.3-0.77-0.3
			c-0.45,0-0.65,0.24-0.65,0.51c0,0.34,0.35,0.47,0.73,0.6c0.49,0.19,1.04,0.38,1.04,1.03c0,0.54-0.42,0.98-1.2,0.98
			C153.5,127.27,153.05,127.07,152.74,126.81z"/>
		<path class="st13" d="M155.96,126.17v-1.93h-0.51v-0.38l0.53-0.03l0.06-0.95h0.42v0.95h0.93v0.41h-0.93v1.95
			c0,0.41,0.12,0.66,0.53,0.66c0.12,0,0.28-0.05,0.39-0.1l0.1,0.38c-0.18,0.06-0.41,0.12-0.59,0.12
			C156.18,127.27,155.96,126.83,155.96,126.17z"/>
		<path class="st13" d="M157.78,128.59l0.11-0.41c0.07,0.03,0.17,0.05,0.26,0.05c0.38,0,0.63-0.33,0.79-0.76l0.08-0.26l-1.35-3.37
			h0.53l0.71,1.92c0.11,0.29,0.22,0.64,0.34,0.94h0.03c0.1-0.31,0.19-0.65,0.29-0.94l0.62-1.92h0.5l-1.27,3.66
			c-0.22,0.64-0.58,1.15-1.23,1.15C158.01,128.65,157.88,128.63,157.78,128.59z"/>
		<path class="st13" d="M161.33,126.57v-4.33h0.5v4.36c0,0.16,0.07,0.24,0.15,0.24c0.03,0,0.06,0,0.12-0.01l0.08,0.39
			c-0.08,0.03-0.16,0.05-0.31,0.05C161.5,127.27,161.33,127.02,161.33,126.57z"/>
		<path class="st13" d="M162.8,125.51c0-1.08,0.73-1.76,1.5-1.76c0.83,0,1.32,0.6,1.32,1.57c0,0.12-0.01,0.22-0.03,0.31h-2.29
			c0.03,0.75,0.48,1.25,1.15,1.25c0.33,0,0.6-0.11,0.85-0.27l0.18,0.34c-0.29,0.18-0.63,0.35-1.1,0.35
			C163.51,127.27,162.8,126.61,162.8,125.51z M165.18,125.25c0-0.72-0.33-1.09-0.87-1.09c-0.5,0-0.94,0.4-1.01,1.09H165.18z"/>
	</g>
	<g>
		<path class="st13" d="M137.56,138.06c0-1.46,0.84-2.36,1.99-2.36c0.56,0,0.98,0.27,1.24,0.56l-0.29,0.34
			c-0.24-0.26-0.55-0.43-0.94-0.43c-0.89,0-1.48,0.72-1.48,1.89s0.56,1.92,1.46,1.92c0.44,0,0.78-0.18,1.07-0.52l0.29,0.33
			c-0.35,0.41-0.8,0.65-1.38,0.65C138.4,140.41,137.56,139.52,137.56,138.06z"/>
		<path class="st13" d="M141.46,138.65c0-1.12,0.72-1.76,1.54-1.76c0.82,0,1.54,0.64,1.54,1.76c0,1.11-0.73,1.75-1.54,1.75
			C142.19,140.41,141.46,139.76,141.46,138.65z M144.03,138.65c0-0.8-0.42-1.33-1.03-1.33c-0.6,0-1.02,0.54-1.02,1.33
			c0,0.81,0.41,1.33,1.02,1.33C143.61,139.98,144.03,139.46,144.03,138.65z"/>
		<path class="st13" d="M145.46,136.97h0.41l0.05,0.5h0.02c0.29-0.33,0.65-0.58,1.04-0.58c0.52,0,0.8,0.26,0.93,0.65
			c0.36-0.38,0.72-0.65,1.12-0.65c0.68,0,1.02,0.45,1.02,1.31v2.13h-0.51v-2.07c0-0.64-0.2-0.93-0.65-0.93
			c-0.28,0-0.56,0.18-0.88,0.55v2.45h-0.5v-2.07c0-0.64-0.2-0.93-0.66-0.93c-0.26,0-0.56,0.18-0.87,0.55v2.45h-0.5v-3.35H145.46z"/>
		<path class="st13" d="M151.16,136.97h0.41l0.05,0.5h0.02c0.29-0.33,0.65-0.58,1.04-0.58c0.52,0,0.8,0.26,0.93,0.65
			c0.36-0.38,0.72-0.65,1.12-0.65c0.68,0,1.02,0.45,1.02,1.31v2.13h-0.51v-2.07c0-0.64-0.2-0.93-0.65-0.93
			c-0.28,0-0.56,0.18-0.88,0.55v2.45h-0.5v-2.07c0-0.64-0.2-0.93-0.66-0.93c-0.26,0-0.56,0.18-0.87,0.55v2.45h-0.5v-3.35H151.16z"/>
		<path class="st13" d="M156.82,139.1v-2.13h0.5v2.07c0,0.64,0.19,0.93,0.66,0.93c0.35,0,0.6-0.18,0.95-0.59v-2.41h0.5v3.35h-0.41
			l-0.05-0.54h-0.02c-0.32,0.36-0.65,0.61-1.12,0.61C157.14,140.41,156.82,139.97,156.82,139.1z"/>
		<path class="st13" d="M160.61,136.97h0.41l0.05,0.49h0.02c0.33-0.32,0.67-0.58,1.13-0.58c0.7,0,1.03,0.45,1.03,1.31v2.13h-0.51
			v-2.07c0-0.64-0.2-0.93-0.66-0.93c-0.35,0-0.61,0.18-0.96,0.55v2.45h-0.5L160.61,136.97L160.61,136.97z"/>
		<path class="st13" d="M164.27,135.9c0-0.2,0.14-0.35,0.35-0.35c0.2,0,0.35,0.13,0.35,0.35c0,0.22-0.15,0.35-0.35,0.35
			C164.41,136.26,164.27,136.12,164.27,135.9z M164.36,136.97h0.5v3.35h-0.5V136.97z"/>
		<path class="st13" d="M166.13,139.31v-1.93h-0.51V137l0.53-0.03l0.06-0.95h0.42v0.95h0.93v0.41h-0.93v1.95
			c0,0.41,0.12,0.66,0.53,0.66c0.12,0,0.28-0.05,0.39-0.1l0.1,0.38c-0.18,0.06-0.41,0.12-0.59,0.12
			C166.35,140.41,166.13,139.97,166.13,139.31z"/>
		<path class="st13" d="M167.95,141.73l0.11-0.41c0.07,0.03,0.16,0.05,0.26,0.05c0.38,0,0.63-0.33,0.79-0.76l0.08-0.26l-1.35-3.37
			h0.53l0.72,1.92c0.11,0.29,0.22,0.64,0.34,0.94h0.03c0.1-0.31,0.19-0.65,0.29-0.94l0.62-1.92h0.5l-1.27,3.66
			c-0.22,0.64-0.58,1.15-1.23,1.15C168.18,141.8,168.05,141.77,167.95,141.73z"/>
	</g>
	
		<linearGradient id="SVGID_00000122691222262882747820000002974462862196265625_" gradientUnits="userSpaceOnUse" x1="35.9817" y1="127.4193" x2="84.888" y2="127.4193" gradientTransform="matrix(1 0 0 -1 0 253.5139)">
		<stop  offset="0" style="stop-color:#456CB4"/>
		<stop  offset="1" style="stop-color:#9654A1"/>
	</linearGradient>
	<path style="fill:url(#SVGID_00000122691222262882747820000002974462862196265625_);" d="M78.68,132.31H42.19
		c-3.43,0-6.21-2.78-6.21-6.21l0,0c0-3.43,2.78-6.21,6.21-6.21h36.48c3.43,0,6.21,2.78,6.21,6.21l0,0
		C84.89,129.53,82.11,132.31,78.68,132.31z"/>
	<g>
		<path class="st13" d="M45.34,126.42c0-1.49,0.91-2.39,2.06-2.39c0.58,0,1.02,0.27,1.29,0.58l-0.39,0.46
			c-0.24-0.24-0.52-0.41-0.89-0.41c-0.79,0-1.33,0.66-1.33,1.74c0,1.08,0.51,1.75,1.31,1.75c0.42,0,0.74-0.18,1.02-0.49l0.38,0.45
			c-0.36,0.42-0.83,0.66-1.42,0.66C46.22,128.77,45.34,127.92,45.34,126.42z"/>
		<path class="st13" d="M49.42,127.42v-2.15h0.72v2.06c0,0.58,0.16,0.81,0.58,0.81c0.32,0,0.54-0.14,0.82-0.51v-2.37h0.72v3.41
			h-0.58l-0.06-0.52H51.6c-0.31,0.36-0.64,0.59-1.11,0.59C49.74,128.77,49.42,128.29,49.42,127.42z"/>
		<path class="st13" d="M52.95,128.3l0.34-0.46c0.31,0.24,0.6,0.39,0.97,0.39c0.41,0,0.6-0.2,0.6-0.46c0-0.31-0.38-0.45-0.75-0.59
			c-0.46-0.17-0.96-0.41-0.96-1c0-0.58,0.46-1,1.22-1c0.45,0,0.83,0.18,1.1,0.4l-0.34,0.44c-0.24-0.17-0.48-0.3-0.76-0.3
			c-0.38,0-0.56,0.18-0.56,0.42c0,0.29,0.34,0.4,0.71,0.54c0.48,0.18,1.01,0.39,1.01,1.04c0,0.58-0.45,1.04-1.29,1.04
			C53.76,128.77,53.28,128.57,52.95,128.3z"/>
		<path class="st13" d="M56.27,127.57v-1.73h-0.5v-0.54l0.54-0.04l0.08-0.94h0.59v0.94h0.89v0.58h-0.89v1.74
			c0,0.41,0.14,0.62,0.5,0.62c0.12,0,0.27-0.04,0.36-0.08l0.13,0.53c-0.19,0.06-0.42,0.12-0.67,0.12
			C56.53,128.77,56.27,128.29,56.27,127.57z"/>
		<path class="st13" d="M58.27,126.99c0-1.14,0.77-1.79,1.61-1.79s1.61,0.66,1.61,1.79c0,1.14-0.77,1.79-1.61,1.79
			C59.03,128.77,58.27,128.12,58.27,126.99z M60.75,126.99c0-0.72-0.34-1.21-0.87-1.21s-0.87,0.49-0.87,1.21
			c0,0.73,0.34,1.21,0.87,1.21C60.42,128.18,60.75,127.7,60.75,126.99z"/>
		<path class="st13" d="M62.31,125.27h0.58l0.06,0.48h0.02c0.29-0.31,0.63-0.57,1.05-0.57c0.51,0,0.8,0.24,0.94,0.62
			c0.34-0.36,0.68-0.62,1.11-0.62c0.72,0,1.04,0.49,1.04,1.35v2.15h-0.72v-2.06c0-0.59-0.18-0.82-0.58-0.82
			c-0.24,0-0.49,0.15-0.77,0.47v2.43h-0.72v-2.06c0-0.59-0.18-0.82-0.58-0.82c-0.23,0-0.49,0.15-0.77,0.47v2.43h-0.72v-3.43H62.31z"
			/>
		<path class="st13" d="M68.07,124.21c0-0.26,0.18-0.42,0.44-0.42c0.26,0,0.45,0.17,0.45,0.42c0,0.26-0.18,0.43-0.45,0.43
			C68.26,124.64,68.07,124.46,68.07,124.21z M68.17,125.27h0.72v3.41h-0.72V125.27z"/>
		<path class="st13" d="M69.64,128.3l1.69-2.46h-1.5v-0.58h2.4v0.38l-1.69,2.46h1.74v0.58h-2.64L69.64,128.3L69.64,128.3z"/>
		<path class="st13" d="M72.68,126.99c0-1.1,0.77-1.79,1.56-1.79c0.91,0,1.4,0.65,1.4,1.61c0,0.14-0.02,0.28-0.04,0.36h-2.21
			c0.06,0.65,0.47,1.04,1.05,1.04c0.31,0,0.57-0.1,0.81-0.26l0.25,0.45c-0.32,0.21-0.71,0.36-1.15,0.36
			C73.41,128.77,72.68,128.11,72.68,126.99z M75.01,126.67c0-0.58-0.27-0.93-0.77-0.93c-0.43,0-0.81,0.33-0.87,0.93H75.01z"/>
	</g>
	
		<linearGradient id="SVGID_00000165950332187471641730000015302738085450771098_" gradientUnits="userSpaceOnUse" x1="35.9817" y1="106.3883" x2="84.888" y2="106.3883" gradientTransform="matrix(1 0 0 -1 0 253.5139)">
		<stop  offset="0" style="stop-color:#456CB4"/>
		<stop  offset="1" style="stop-color:#9654A1"/>
	</linearGradient>
	<path style="fill:url(#SVGID_00000165950332187471641730000015302738085450771098_);" d="M78.68,153.34H42.19
		c-3.43,0-6.21-2.78-6.21-6.21l0,0c0-3.43,2.78-6.21,6.21-6.21h36.48c3.43,0,6.21,2.78,6.21,6.21l0,0
		C84.89,150.56,82.11,153.34,78.68,153.34z"/>
	<g>
		<path class="st13" d="M42.81,145.15h0.82l0.83,2.32c0.11,0.31,0.2,0.61,0.31,0.92h0.03c0.11-0.31,0.19-0.61,0.3-0.92l0.82-2.32
			h0.83v4.57h-0.67v-2.26c0-0.41,0.06-1,0.1-1.42h-0.02l-0.36,1.05l-0.8,2.18h-0.45l-0.81-2.18l-0.36-1.05h-0.03
			c0.03,0.41,0.09,1.01,0.09,1.42v2.26h-0.63V145.15z"/>
		<path class="st13" d="M47.7,148.82c0-0.73,0.62-1.11,2.04-1.27c-0.01-0.39-0.15-0.75-0.65-0.75c-0.36,0-0.7,0.16-0.99,0.35
			l-0.27-0.49c0.35-0.22,0.83-0.45,1.38-0.45c0.85,0,1.25,0.54,1.25,1.45v2.05h-0.58l-0.06-0.39h-0.03
			c-0.31,0.27-0.68,0.47-1.08,0.47C48.11,149.81,47.7,149.43,47.7,148.82z M49.74,148.84v-0.83c-1.02,0.12-1.35,0.38-1.35,0.77
			c0,0.34,0.23,0.47,0.54,0.47C49.22,149.24,49.46,149.1,49.74,148.84z"/>
		<path class="st13" d="M51.46,146.31h0.58l0.06,0.61h0.02c0.24-0.44,0.6-0.7,0.97-0.7c0.16,0,0.28,0.03,0.38,0.08l-0.13,0.62
			c-0.12-0.04-0.2-0.06-0.35-0.06c-0.28,0-0.61,0.19-0.82,0.73v2.13h-0.72L51.46,146.31L51.46,146.31z"/>
		<path class="st13" d="M54,144.78h0.7v3.18h0.03l1.32-1.65h0.8l-1.16,1.39l1.28,2.02H56.2l-0.93-1.54l-0.58,0.66v0.89h-0.7
			L54,144.78L54,144.78z"/>
		<path class="st13" d="M57.19,148.02c0-1.1,0.77-1.79,1.56-1.79c0.91,0,1.4,0.65,1.4,1.61c0,0.14-0.02,0.28-0.04,0.36h-2.21
			c0.06,0.65,0.47,1.04,1.05,1.04c0.31,0,0.57-0.1,0.81-0.26l0.25,0.45c-0.32,0.21-0.71,0.36-1.15,0.36
			C57.92,149.81,57.19,149.15,57.19,148.02z M59.51,147.71c0-0.58-0.27-0.93-0.77-0.93c-0.43,0-0.81,0.33-0.87,0.93H59.51z"/>
		<path class="st13" d="M60.97,148.61v-1.73h-0.5v-0.54l0.54-0.04l0.08-0.94h0.59v0.94h0.89v0.58h-0.88v1.74
			c0,0.41,0.14,0.62,0.5,0.62c0.12,0,0.27-0.04,0.36-0.08l0.13,0.53c-0.19,0.06-0.42,0.12-0.67,0.12
			C61.24,149.81,60.97,149.33,60.97,148.61z"/>
		<path class="st13" d="M63.32,146.31h0.58l0.06,0.37h0.02c0.3-0.25,0.67-0.46,1.05-0.46c0.86,0,1.35,0.69,1.35,1.74
			c0,1.17-0.7,1.84-1.48,1.84c-0.31,0-0.61-0.13-0.9-0.38l0.03,0.58v1.1h-0.72V146.31z M65.64,147.98c0-0.72-0.23-1.16-0.81-1.16
			c-0.27,0-0.52,0.13-0.81,0.41v1.67c0.27,0.23,0.53,0.31,0.74,0.31C65.27,149.22,65.64,148.77,65.64,147.98z"/>
		<path class="st13" d="M67.23,148.93v-4.15h0.72v4.19c0,0.19,0.08,0.26,0.16,0.26c0.03,0,0.06,0,0.12-0.01l0.1,0.54
			c-0.09,0.03-0.2,0.06-0.38,0.06C67.42,149.81,67.23,149.47,67.23,148.93z"/>
		<path class="st13" d="M68.88,148.82c0-0.73,0.62-1.11,2.04-1.27c-0.01-0.39-0.15-0.75-0.65-0.75c-0.36,0-0.7,0.16-0.99,0.35
			l-0.27-0.49c0.35-0.22,0.83-0.45,1.38-0.45c0.85,0,1.25,0.54,1.25,1.45v2.05h-0.58L71,149.32h-0.03
			c-0.31,0.27-0.68,0.47-1.08,0.47C69.3,149.81,68.88,149.43,68.88,148.82z M70.92,148.84v-0.83c-1.02,0.12-1.35,0.38-1.35,0.77
			c0,0.34,0.23,0.47,0.54,0.47C70.4,149.24,70.64,149.1,70.92,148.84z"/>
		<path class="st13" d="M72.41,148.02c0-1.14,0.79-1.79,1.69-1.79c0.43,0,0.75,0.17,1,0.39l-0.35,0.47
			c-0.18-0.17-0.38-0.27-0.6-0.27c-0.58,0-0.99,0.49-0.99,1.21c0,0.73,0.39,1.21,0.96,1.21c0.29,0,0.54-0.13,0.75-0.31l0.3,0.47
			c-0.32,0.28-0.72,0.42-1.11,0.42C73.12,149.81,72.41,149.16,72.41,148.02z"/>
		<path class="st13" d="M75.46,148.02c0-1.1,0.77-1.79,1.56-1.79c0.91,0,1.4,0.65,1.4,1.61c0,0.14-0.02,0.28-0.04,0.36h-2.21
			c0.06,0.65,0.47,1.04,1.05,1.04c0.31,0,0.57-0.1,0.81-0.26l0.25,0.45c-0.32,0.21-0.71,0.36-1.15,0.36
			C76.19,149.81,75.46,149.15,75.46,148.02z M77.79,147.71c0-0.58-0.27-0.93-0.77-0.93c-0.43,0-0.81,0.33-0.87,0.93H77.79z"/>
	</g>
	
		<linearGradient id="SVGID_00000041295466553499093350000000391423794462610080_" gradientUnits="userSpaceOnUse" x1="99.3241" y1="57.2519" x2="148.2304" y2="57.2519" gradientTransform="matrix(1 0 0 -1 0 253.5139)">
		<stop  offset="0" style="stop-color:#456CB4"/>
		<stop  offset="1" style="stop-color:#9654A1"/>
	</linearGradient>
	<path style="fill:url(#SVGID_00000041295466553499093350000000391423794462610080_);" d="M142.02,202.47h-36.48
		c-3.43,0-6.21-2.78-6.21-6.21l0,0c0-3.43,2.78-6.21,6.21-6.21h36.48c3.43,0,6.21,2.78,6.21,6.21l0,0
		C148.23,199.69,145.45,202.47,142.02,202.47z"/>
	<g>
		<path class="st13" d="M109.52,194.29h1.38c1.02,0,1.74,0.35,1.74,1.38c0,1-0.73,1.46-1.72,1.46h-0.69v1.74h-0.72V194.29z
			 M110.87,196.55c0.73,0,1.08-0.28,1.08-0.88c0-0.6-0.38-0.81-1.1-0.81h-0.59v1.69H110.87z"/>
		<path class="st13" d="M113.2,198.45c1.27-1.25,2.04-2.04,2.04-2.74c0-0.49-0.26-0.81-0.78-0.81c-0.36,0-0.66,0.23-0.9,0.51
			l-0.4-0.39c0.39-0.42,0.8-0.68,1.39-0.68c0.83,0,1.38,0.54,1.38,1.34c0,0.81-0.74,1.63-1.69,2.63c0.23-0.03,0.52-0.05,0.75-0.05
			h1.16v0.6h-2.95C113.2,198.86,113.2,198.45,113.2,198.45z"/>
		<path class="st13" d="M117.08,194.29h2.7v0.6h-1.98v1.27h1.68v0.61h-1.68v1.48h2.05v0.6h-2.77V194.29z"/>
		<path class="st13" d="M121.95,196.59c0-1.49,0.92-2.39,2.13-2.39c0.64,0,1.08,0.29,1.36,0.58l-0.38,0.46
			c-0.23-0.23-0.51-0.41-0.95-0.41c-0.85,0-1.42,0.66-1.42,1.74c0,1.08,0.5,1.75,1.45,1.75c0.28,0,0.56-0.08,0.72-0.22v-1.07h-0.91
			v-0.59h1.56v1.98c-0.31,0.31-0.82,0.54-1.45,0.54C122.85,198.95,121.95,198.08,121.95,196.59z"/>
		<path class="st13" d="M127.43,194.29h0.83l1.51,4.57h-0.77l-0.38-1.3h-1.59l-0.39,1.3h-0.73L127.43,194.29z M127.2,196.99h1.25
			l-0.18-0.61c-0.15-0.5-0.29-1.01-0.43-1.52h-0.03c-0.13,0.52-0.27,1.03-0.42,1.52L127.2,196.99z"/>
		<path class="st13" d="M130.37,194.29h0.82l0.83,2.32c0.11,0.31,0.2,0.61,0.31,0.92h0.03c0.11-0.31,0.19-0.61,0.3-0.92l0.82-2.32
			h0.83v4.57h-0.67v-2.26c0-0.41,0.06-1,0.1-1.42h-0.03l-0.36,1.05l-0.8,2.18h-0.45l-0.81-2.18l-0.36-1.05h-0.03
			c0.03,0.41,0.09,1.01,0.09,1.42v2.26h-0.64v-4.57H130.37z"/>
		<path class="st13" d="M135.53,194.29h2.7v0.6h-1.98v1.27h1.68v0.61h-1.68v1.48h2.05v0.6h-2.77V194.29z"/>
	</g>
	
		<linearGradient id="SVGID_00000003082035162689656190000009060091567996139399_" gradientUnits="userSpaceOnUse" x1="160.2318" y1="57.2519" x2="209.1381" y2="57.2519" gradientTransform="matrix(1 0 0 -1 0 253.5139)">
		<stop  offset="0" style="stop-color:#456CB4"/>
		<stop  offset="1" style="stop-color:#9654A1"/>
	</linearGradient>
	<path style="fill:url(#SVGID_00000003082035162689656190000009060091567996139399_);" d="M202.93,202.47h-36.48
		c-3.43,0-6.21-2.78-6.21-6.21l0,0c0-3.43,2.78-6.21,6.21-6.21h36.48c3.43,0,6.21,2.78,6.21,6.21l0,0
		C209.14,199.69,206.36,202.47,202.93,202.47z"/>
	<g>
		<path class="st13" d="M172.11,194.29h1.38c1.02,0,1.74,0.35,1.74,1.38c0,1-0.73,1.46-1.72,1.46h-0.69v1.74h-0.72L172.11,194.29
			L172.11,194.29z M173.45,196.55c0.73,0,1.08-0.28,1.08-0.88c0-0.6-0.38-0.81-1.1-0.81h-0.59v1.69H173.45z"/>
		<path class="st13" d="M175.59,197.96c0-0.73,0.62-1.11,2.04-1.27c-0.01-0.39-0.15-0.75-0.65-0.75c-0.36,0-0.7,0.16-0.99,0.35
			l-0.27-0.49c0.35-0.22,0.83-0.45,1.38-0.45c0.85,0,1.25,0.54,1.25,1.45v2.05h-0.58l-0.06-0.39h-0.03
			c-0.31,0.27-0.68,0.47-1.08,0.47C176,198.95,175.59,198.55,175.59,197.96z M177.63,197.98v-0.83c-1.02,0.12-1.35,0.38-1.35,0.77
			c0,0.34,0.23,0.47,0.54,0.47C177.1,198.38,177.35,198.24,177.63,197.98z"/>
		<path class="st13" d="M179.08,200.22l0.13-0.56c0.06,0.02,0.16,0.05,0.25,0.05c0.37,0,0.59-0.28,0.72-0.64l0.07-0.24l-1.35-3.39
			h0.73l0.63,1.75c0.1,0.31,0.2,0.64,0.31,0.96h0.03c0.09-0.31,0.18-0.65,0.27-0.96l0.55-1.75h0.7l-1.26,3.62
			c-0.27,0.73-0.62,1.23-1.35,1.23C179.34,200.29,179.2,200.27,179.08,200.22z"/>
		<path class="st13" d="M182.73,195.45h0.58l0.06,0.48h0.02c0.29-0.31,0.63-0.57,1.05-0.57c0.51,0,0.8,0.24,0.94,0.62
			c0.34-0.36,0.68-0.62,1.11-0.62c0.72,0,1.04,0.49,1.04,1.35v2.15h-0.72v-2.06c0-0.59-0.18-0.82-0.58-0.82
			c-0.24,0-0.49,0.15-0.77,0.47v2.43h-0.72v-2.06c0-0.59-0.18-0.82-0.58-0.82c-0.23,0-0.49,0.15-0.77,0.47v2.43h-0.72v-3.43H182.73z
			"/>
		<path class="st13" d="M188.34,197.15c0-1.1,0.77-1.79,1.56-1.79c0.91,0,1.4,0.65,1.4,1.61c0,0.14-0.02,0.28-0.04,0.36h-2.21
			c0.06,0.65,0.47,1.04,1.05,1.04c0.31,0,0.57-0.1,0.81-0.26l0.25,0.45c-0.32,0.21-0.71,0.36-1.16,0.36
			C189.08,198.95,188.34,198.28,188.34,197.15z M190.67,196.85c0-0.58-0.27-0.93-0.77-0.93c-0.43,0-0.81,0.33-0.87,0.93H190.67z"/>
		<path class="st13" d="M192.09,195.45h0.58l0.06,0.47h0.02c0.32-0.31,0.66-0.56,1.13-0.56c0.73,0,1.04,0.49,1.04,1.35v2.15h-0.72
			v-2.06c0-0.59-0.17-0.82-0.58-0.82c-0.32,0-0.54,0.16-0.83,0.47v2.43h-0.72L192.09,195.45L192.09,195.45z"/>
		<path class="st13" d="M196.07,197.75v-1.73h-0.5v-0.54l0.54-0.04l0.08-0.94h0.59v0.94h0.89v0.58h-0.89v1.73
			c0,0.41,0.14,0.62,0.5,0.62c0.12,0,0.27-0.04,0.36-0.08l0.13,0.53c-0.19,0.06-0.42,0.12-0.67,0.12
			C196.34,198.95,196.07,198.47,196.07,197.75z"/>
	</g>
	
		<linearGradient id="SVGID_00000132087665002578805030000017116412410153432452_" gradientUnits="userSpaceOnUse" x1="140.5523" y1="32.3865" x2="167.4114" y2="32.3865" gradientTransform="matrix(1 0 0 -1 0 253.5139)">
		<stop  offset="0" style="stop-color:#456CB4"/>
		<stop  offset="1" style="stop-color:#9654A1"/>
	</linearGradient>
	<circle style="fill:url(#SVGID_00000132087665002578805030000017116412410153432452_);" cx="153.98" cy="221.13" r="13.43"/>
	<g>
		<path class="st13" d="M148.12,221.67v-2.62h0.72v2.66c0,1.04,0.41,1.37,0.98,1.37c0.58,0,1-0.34,1-1.37v-2.66h0.7v2.62
			c0,1.49-0.68,2.04-1.7,2.04C148.81,223.72,148.12,223.17,148.12,221.67z"/>
		<path class="st13" d="M152.23,223.25l0.34-0.46c0.31,0.24,0.6,0.39,0.97,0.39c0.41,0,0.6-0.2,0.6-0.46c0-0.31-0.38-0.45-0.75-0.59
			c-0.46-0.17-0.96-0.41-0.96-1c0-0.58,0.46-1,1.22-1c0.45,0,0.83,0.18,1.1,0.4l-0.34,0.44c-0.24-0.17-0.48-0.3-0.76-0.3
			c-0.38,0-0.56,0.18-0.56,0.42c0,0.29,0.34,0.4,0.71,0.54c0.48,0.18,1.01,0.39,1.01,1.04c0,0.58-0.45,1.04-1.29,1.04
			C153.04,223.72,152.56,223.51,152.23,223.25z"/>
		<path class="st13" d="M155.32,221.93c0-1.1,0.77-1.79,1.56-1.79c0.91,0,1.4,0.65,1.4,1.61c0,0.14-0.02,0.28-0.04,0.36h-2.21
			c0.06,0.65,0.47,1.04,1.05,1.04c0.31,0,0.57-0.1,0.81-0.26l0.25,0.45c-0.32,0.21-0.71,0.36-1.16,0.36
			C156.06,223.72,155.32,223.06,155.32,221.93z M157.66,221.62c0-0.58-0.27-0.93-0.77-0.93c-0.43,0-0.81,0.33-0.87,0.93H157.66z"/>
		<path class="st13" d="M159.07,220.22h0.58l0.06,0.61h0.02c0.24-0.44,0.6-0.7,0.97-0.7c0.17,0,0.28,0.03,0.38,0.08l-0.13,0.62
			c-0.12-0.04-0.2-0.06-0.35-0.06c-0.28,0-0.61,0.19-0.82,0.73v2.13h-0.72L159.07,220.22L159.07,220.22z"/>
	</g>
</g>
<g>
	<path class="st13" d="M98.09,244.93v-0.52l3.35-1.32v0.56l-1.65,0.61l-1.05,0.39v0.03l1.05,0.39l1.65,0.61v0.56L98.09,244.93z"/>
	<path class="st13" d="M103.46,242.13h0.67l0.54,2.8c0.1,0.55,0.2,1.11,0.3,1.66H105c0.12-0.55,0.25-1.11,0.37-1.66l0.71-2.8h0.6
		l0.71,2.8c0.13,0.55,0.25,1.1,0.36,1.66h0.04c0.1-0.56,0.2-1.11,0.29-1.66l0.54-2.8h0.62l-1.06,5.14h-0.78l-0.78-3.1
		c-0.09-0.41-0.17-0.78-0.25-1.17h-0.03c-0.08,0.39-0.17,0.76-0.26,1.17l-0.76,3.1h-0.77L103.46,242.13z"/>
	<path class="st13" d="M109.78,244.68c0-1.65,0.9-2.65,2.19-2.65s2.19,1,2.19,2.65s-0.9,2.67-2.19,2.67
		C110.68,247.36,109.78,246.33,109.78,244.68z M113.5,244.68c0-1.29-0.61-2.08-1.53-2.08s-1.53,0.79-1.53,2.08
		c0,1.28,0.6,2.11,1.53,2.11C112.89,246.79,113.5,245.97,113.5,244.68z"/>
	<path class="st13" d="M114.7,242.13h0.67l0.54,2.8c0.1,0.55,0.2,1.11,0.3,1.66h0.03c0.12-0.55,0.25-1.11,0.37-1.66l0.71-2.8h0.6
		l0.71,2.8c0.13,0.55,0.25,1.1,0.36,1.66h0.04c0.1-0.56,0.2-1.11,0.29-1.66l0.54-2.8h0.62l-1.06,5.14h-0.78l-0.78-3.1
		c-0.09-0.41-0.17-0.78-0.25-1.17h-0.03c-0.08,0.39-0.17,0.76-0.26,1.17l-0.76,3.1h-0.77L114.7,242.13z"/>
	<path class="st13" d="M122.93,242.13h0.78l0.99,2.75c0.12,0.36,0.24,0.71,0.36,1.07h0.04c0.12-0.36,0.23-0.71,0.35-1.07l0.98-2.75
		h0.78v5.14h-0.61v-2.84c0-0.44,0.05-1.06,0.08-1.51h-0.03l-0.41,1.17l-0.97,2.67h-0.43l-0.97-2.67l-0.41-1.17h-0.03
		c0.03,0.45,0.08,1.07,0.08,1.51v2.84h-0.59v-5.14H122.93z"/>
	<path class="st13" d="M128.62,242.13h2.96v0.55h-2.31v1.61h1.95v0.55h-1.95v1.87h2.39v0.55h-3.04L128.62,242.13L128.62,242.13z"/>
	<path class="st13" d="M133.81,242.68h-1.55v-0.55h3.76v0.55h-1.55v4.59h-0.65L133.81,242.68L133.81,242.68z"/>
	<path class="st13" d="M137.68,242.13h0.72l1.74,5.14h-0.69l-0.49-1.57h-1.88l-0.5,1.57h-0.66L137.68,242.13z M137.25,245.18h1.55
		l-0.25-0.78c-0.19-0.58-0.35-1.14-0.52-1.74H138c-0.16,0.6-0.33,1.16-0.51,1.74L137.25,245.18z"/>
	<path class="st13" d="M140.06,242.13h0.68l0.83,2.79c0.18,0.6,0.3,1.09,0.5,1.7h0.03c0.19-0.6,0.32-1.09,0.5-1.7l0.83-2.79h0.66
		l-1.63,5.14h-0.75L140.06,242.13z"/>
	<path class="st13" d="M144.78,242.13h2.96v0.55h-2.31v1.61h1.95v0.55h-1.95v1.87h2.39v0.55h-3.04L144.78,242.13L144.78,242.13z"/>
	<path class="st13" d="M148.9,242.13h1.61c1.04,0,1.79,0.38,1.79,1.45c0,0.8-0.46,1.28-1.16,1.44l1.32,2.25h-0.74l-1.25-2.18h-0.92
		v2.18h-0.65V242.13z M150.41,244.56c0.81,0,1.25-0.32,1.25-0.99c0-0.68-0.44-0.92-1.25-0.92h-0.86v1.91H150.41z"/>
	<path class="st13" d="M152.87,246.6l0.39-0.44c0.36,0.38,0.88,0.64,1.42,0.64c0.67,0,1.08-0.34,1.08-0.84
		c0-0.53-0.37-0.69-0.85-0.91l-0.74-0.32c-0.48-0.2-1.04-0.57-1.04-1.32c0-0.79,0.69-1.37,1.62-1.37c0.61,0,1.15,0.26,1.51,0.64
		l-0.34,0.41c-0.31-0.29-0.69-0.48-1.17-0.48c-0.58,0-0.96,0.29-0.96,0.76c0,0.5,0.45,0.69,0.85,0.85l0.74,0.32
		c0.6,0.26,1.06,0.61,1.06,1.37c0,0.81-0.67,1.46-1.74,1.46C153.94,247.36,153.32,247.06,152.87,246.6z"/>
	<path class="st13" d="M157.42,242.13h2.96v0.55h-2.31v1.61h1.95v0.55h-1.95v1.87h2.39v0.55h-3.04L157.42,242.13L157.42,242.13z"/>
	<path class="st13" d="M163.11,242.13h2.96v0.55h-2.31v1.61h1.95v0.55h-1.95v1.87h2.39v0.55h-3.04L163.11,242.13L163.11,242.13z"/>
	<path class="st13" d="M166.93,244.7c0-1.66,0.97-2.67,2.28-2.67c0.62,0,1.11,0.31,1.41,0.64l-0.35,0.42
		c-0.27-0.29-0.61-0.49-1.05-0.49c-0.97,0-1.62,0.8-1.62,2.08c0,1.29,0.62,2.11,1.6,2.11c0.49,0,0.86-0.22,1.19-0.57l0.36,0.41
		c-0.41,0.47-0.91,0.74-1.58,0.74C167.89,247.36,166.93,246.37,166.93,244.7z"/>
	<path class="st13" d="M171.17,244.68c0-1.65,0.9-2.65,2.19-2.65c1.29,0,2.19,1,2.19,2.65s-0.9,2.67-2.19,2.67
		C172.07,247.36,171.17,246.33,171.17,244.68z M174.89,244.68c0-1.29-0.61-2.08-1.53-2.08s-1.53,0.79-1.53,2.08
		c0,1.28,0.6,2.11,1.53,2.11C174.28,246.79,174.89,245.97,174.89,244.68z"/>
	<path class="st13" d="M177.85,246.6l0.39-0.44c0.36,0.38,0.88,0.64,1.42,0.64c0.67,0,1.08-0.34,1.08-0.84
		c0-0.53-0.37-0.69-0.85-0.91l-0.74-0.32c-0.48-0.2-1.04-0.57-1.04-1.32c0-0.79,0.69-1.37,1.62-1.37c0.61,0,1.15,0.26,1.51,0.64
		l-0.34,0.41c-0.31-0.29-0.69-0.48-1.17-0.48c-0.58,0-0.96,0.29-0.96,0.76c0,0.5,0.45,0.69,0.85,0.85l0.74,0.32
		c0.6,0.26,1.06,0.61,1.06,1.37c0,0.81-0.67,1.46-1.74,1.46C178.93,247.36,178.3,247.06,177.85,246.6z"/>
	<path class="st13" d="M183.13,245.27l-1.54-3.14h0.69l0.66,1.46c0.17,0.38,0.32,0.74,0.5,1.12h0.03c0.18-0.38,0.36-0.74,0.51-1.12
		l0.67-1.46h0.67l-1.54,3.14v2h-0.65L183.13,245.27L183.13,245.27z"/>
	<path class="st13" d="M185.52,246.6l0.39-0.44c0.36,0.38,0.88,0.64,1.42,0.64c0.67,0,1.08-0.34,1.08-0.84
		c0-0.53-0.37-0.69-0.85-0.91l-0.74-0.32c-0.48-0.2-1.04-0.57-1.04-1.32c0-0.79,0.69-1.37,1.62-1.37c0.61,0,1.15,0.26,1.51,0.64
		l-0.34,0.41c-0.31-0.29-0.69-0.48-1.17-0.48c-0.58,0-0.96,0.29-0.96,0.76c0,0.5,0.45,0.69,0.85,0.85l0.74,0.32
		c0.6,0.26,1.06,0.61,1.06,1.37c0,0.81-0.67,1.46-1.74,1.46C186.59,247.36,185.97,247.06,185.52,246.6z"/>
	<path class="st13" d="M190.99,242.68h-1.55v-0.55h3.76v0.55h-1.55v4.59H191L190.99,242.68L190.99,242.68z"/>
	<path class="st13" d="M194.11,242.13h2.96v0.55h-2.31v1.61h1.95v0.55h-1.95v1.87h2.39v0.55h-3.04L194.11,242.13L194.11,242.13z"/>
	<path class="st13" d="M198.22,242.13H199l0.99,2.75c0.12,0.36,0.24,0.71,0.36,1.07h0.04c0.12-0.36,0.23-0.71,0.35-1.07l0.98-2.75
		h0.78v5.14h-0.61v-2.84c0-0.44,0.05-1.06,0.08-1.51h-0.03l-0.41,1.17l-0.97,2.67h-0.43l-0.97-2.67l-0.41-1.17h-0.03
		c0.03,0.45,0.08,1.07,0.08,1.51v2.84h-0.59L198.22,242.13L198.22,242.13z"/>
	<path class="st13" d="M205.04,245.69l1.65-0.61l1.05-0.39v-0.03l-1.05-0.39l-1.65-0.61v-0.56l3.35,1.32v0.52l-3.35,1.32V245.69z"/>
</g>
</svg>
